%TF.GenerationSoftware,KiCad,Pcbnew,9.0.3*%
%TF.CreationDate,2025-10-10T19:55:00+02:00*%
%TF.ProjectId,AxxSolder,41787853-6f6c-4646-9572-2e6b69636164,rev?*%
%TF.SameCoordinates,Original*%
%TF.FileFunction,Legend,Top*%
%TF.FilePolarity,Positive*%
%FSLAX46Y46*%
G04 Gerber Fmt 4.6, Leading zero omitted, Abs format (unit mm)*
G04 Created by KiCad (PCBNEW 9.0.3) date 2025-10-10 19:55:00*
%MOMM*%
%LPD*%
G01*
G04 APERTURE LIST*
%ADD10C,0.200000*%
%ADD11C,0.150000*%
%ADD12C,0.100000*%
%ADD13C,0.000000*%
G04 APERTURE END LIST*
D10*
X199250000Y-147000000D02*
G75*
G02*
X194750000Y-147000000I-2250000J0D01*
G01*
X194750000Y-147000000D02*
G75*
G02*
X199250000Y-147000000I2250000J0D01*
G01*
X198000000Y-70000000D02*
G75*
G02*
X193500000Y-70000000I-2250000J0D01*
G01*
X193500000Y-70000000D02*
G75*
G02*
X198000000Y-70000000I2250000J0D01*
G01*
X167500000Y-70000000D02*
G75*
G02*
X163000000Y-70000000I-2250000J0D01*
G01*
X163000000Y-70000000D02*
G75*
G02*
X167500000Y-70000000I2250000J0D01*
G01*
X166250000Y-147000000D02*
G75*
G02*
X161750000Y-147000000I-2250000J0D01*
G01*
X161750000Y-147000000D02*
G75*
G02*
X166250000Y-147000000I2250000J0D01*
G01*
X165190476Y-73985552D02*
X164428571Y-74271266D01*
X164428571Y-74271266D02*
X165190476Y-74556980D01*
X165666666Y-74271266D02*
X166428571Y-74271266D01*
X166904761Y-74271266D02*
X167666666Y-74271266D01*
X168142856Y-74271266D02*
X168904761Y-74271266D01*
X169380951Y-74271266D02*
X170142856Y-74271266D01*
X174380952Y-74604600D02*
X174523809Y-74652219D01*
X174523809Y-74652219D02*
X174761904Y-74652219D01*
X174761904Y-74652219D02*
X174857142Y-74604600D01*
X174857142Y-74604600D02*
X174904761Y-74556980D01*
X174904761Y-74556980D02*
X174952380Y-74461742D01*
X174952380Y-74461742D02*
X174952380Y-74366504D01*
X174952380Y-74366504D02*
X174904761Y-74271266D01*
X174904761Y-74271266D02*
X174857142Y-74223647D01*
X174857142Y-74223647D02*
X174761904Y-74176028D01*
X174761904Y-74176028D02*
X174571428Y-74128409D01*
X174571428Y-74128409D02*
X174476190Y-74080790D01*
X174476190Y-74080790D02*
X174428571Y-74033171D01*
X174428571Y-74033171D02*
X174380952Y-73937933D01*
X174380952Y-73937933D02*
X174380952Y-73842695D01*
X174380952Y-73842695D02*
X174428571Y-73747457D01*
X174428571Y-73747457D02*
X174476190Y-73699838D01*
X174476190Y-73699838D02*
X174571428Y-73652219D01*
X174571428Y-73652219D02*
X174809523Y-73652219D01*
X174809523Y-73652219D02*
X174952380Y-73699838D01*
X175952380Y-74556980D02*
X175904761Y-74604600D01*
X175904761Y-74604600D02*
X175761904Y-74652219D01*
X175761904Y-74652219D02*
X175666666Y-74652219D01*
X175666666Y-74652219D02*
X175523809Y-74604600D01*
X175523809Y-74604600D02*
X175428571Y-74509361D01*
X175428571Y-74509361D02*
X175380952Y-74414123D01*
X175380952Y-74414123D02*
X175333333Y-74223647D01*
X175333333Y-74223647D02*
X175333333Y-74080790D01*
X175333333Y-74080790D02*
X175380952Y-73890314D01*
X175380952Y-73890314D02*
X175428571Y-73795076D01*
X175428571Y-73795076D02*
X175523809Y-73699838D01*
X175523809Y-73699838D02*
X175666666Y-73652219D01*
X175666666Y-73652219D02*
X175761904Y-73652219D01*
X175761904Y-73652219D02*
X175904761Y-73699838D01*
X175904761Y-73699838D02*
X175952380Y-73747457D01*
X176952380Y-74652219D02*
X176619047Y-74176028D01*
X176380952Y-74652219D02*
X176380952Y-73652219D01*
X176380952Y-73652219D02*
X176761904Y-73652219D01*
X176761904Y-73652219D02*
X176857142Y-73699838D01*
X176857142Y-73699838D02*
X176904761Y-73747457D01*
X176904761Y-73747457D02*
X176952380Y-73842695D01*
X176952380Y-73842695D02*
X176952380Y-73985552D01*
X176952380Y-73985552D02*
X176904761Y-74080790D01*
X176904761Y-74080790D02*
X176857142Y-74128409D01*
X176857142Y-74128409D02*
X176761904Y-74176028D01*
X176761904Y-74176028D02*
X176380952Y-74176028D01*
X177380952Y-74128409D02*
X177714285Y-74128409D01*
X177857142Y-74652219D02*
X177380952Y-74652219D01*
X177380952Y-74652219D02*
X177380952Y-73652219D01*
X177380952Y-73652219D02*
X177857142Y-73652219D01*
X178285714Y-74128409D02*
X178619047Y-74128409D01*
X178761904Y-74652219D02*
X178285714Y-74652219D01*
X178285714Y-74652219D02*
X178285714Y-73652219D01*
X178285714Y-73652219D02*
X178761904Y-73652219D01*
X179190476Y-74652219D02*
X179190476Y-73652219D01*
X179190476Y-73652219D02*
X179761904Y-74652219D01*
X179761904Y-74652219D02*
X179761904Y-73652219D01*
X180952381Y-74604600D02*
X181095238Y-74652219D01*
X181095238Y-74652219D02*
X181333333Y-74652219D01*
X181333333Y-74652219D02*
X181428571Y-74604600D01*
X181428571Y-74604600D02*
X181476190Y-74556980D01*
X181476190Y-74556980D02*
X181523809Y-74461742D01*
X181523809Y-74461742D02*
X181523809Y-74366504D01*
X181523809Y-74366504D02*
X181476190Y-74271266D01*
X181476190Y-74271266D02*
X181428571Y-74223647D01*
X181428571Y-74223647D02*
X181333333Y-74176028D01*
X181333333Y-74176028D02*
X181142857Y-74128409D01*
X181142857Y-74128409D02*
X181047619Y-74080790D01*
X181047619Y-74080790D02*
X181000000Y-74033171D01*
X181000000Y-74033171D02*
X180952381Y-73937933D01*
X180952381Y-73937933D02*
X180952381Y-73842695D01*
X180952381Y-73842695D02*
X181000000Y-73747457D01*
X181000000Y-73747457D02*
X181047619Y-73699838D01*
X181047619Y-73699838D02*
X181142857Y-73652219D01*
X181142857Y-73652219D02*
X181380952Y-73652219D01*
X181380952Y-73652219D02*
X181523809Y-73699838D01*
X181952381Y-73652219D02*
X181952381Y-74461742D01*
X181952381Y-74461742D02*
X182000000Y-74556980D01*
X182000000Y-74556980D02*
X182047619Y-74604600D01*
X182047619Y-74604600D02*
X182142857Y-74652219D01*
X182142857Y-74652219D02*
X182333333Y-74652219D01*
X182333333Y-74652219D02*
X182428571Y-74604600D01*
X182428571Y-74604600D02*
X182476190Y-74556980D01*
X182476190Y-74556980D02*
X182523809Y-74461742D01*
X182523809Y-74461742D02*
X182523809Y-73652219D01*
X183000000Y-74652219D02*
X183000000Y-73652219D01*
X183000000Y-73652219D02*
X183380952Y-73652219D01*
X183380952Y-73652219D02*
X183476190Y-73699838D01*
X183476190Y-73699838D02*
X183523809Y-73747457D01*
X183523809Y-73747457D02*
X183571428Y-73842695D01*
X183571428Y-73842695D02*
X183571428Y-73985552D01*
X183571428Y-73985552D02*
X183523809Y-74080790D01*
X183523809Y-74080790D02*
X183476190Y-74128409D01*
X183476190Y-74128409D02*
X183380952Y-74176028D01*
X183380952Y-74176028D02*
X183000000Y-74176028D01*
X184000000Y-74652219D02*
X184000000Y-73652219D01*
X184000000Y-73652219D02*
X184380952Y-73652219D01*
X184380952Y-73652219D02*
X184476190Y-73699838D01*
X184476190Y-73699838D02*
X184523809Y-73747457D01*
X184523809Y-73747457D02*
X184571428Y-73842695D01*
X184571428Y-73842695D02*
X184571428Y-73985552D01*
X184571428Y-73985552D02*
X184523809Y-74080790D01*
X184523809Y-74080790D02*
X184476190Y-74128409D01*
X184476190Y-74128409D02*
X184380952Y-74176028D01*
X184380952Y-74176028D02*
X184000000Y-74176028D01*
X185190476Y-73652219D02*
X185380952Y-73652219D01*
X185380952Y-73652219D02*
X185476190Y-73699838D01*
X185476190Y-73699838D02*
X185571428Y-73795076D01*
X185571428Y-73795076D02*
X185619047Y-73985552D01*
X185619047Y-73985552D02*
X185619047Y-74318885D01*
X185619047Y-74318885D02*
X185571428Y-74509361D01*
X185571428Y-74509361D02*
X185476190Y-74604600D01*
X185476190Y-74604600D02*
X185380952Y-74652219D01*
X185380952Y-74652219D02*
X185190476Y-74652219D01*
X185190476Y-74652219D02*
X185095238Y-74604600D01*
X185095238Y-74604600D02*
X185000000Y-74509361D01*
X185000000Y-74509361D02*
X184952381Y-74318885D01*
X184952381Y-74318885D02*
X184952381Y-73985552D01*
X184952381Y-73985552D02*
X185000000Y-73795076D01*
X185000000Y-73795076D02*
X185095238Y-73699838D01*
X185095238Y-73699838D02*
X185190476Y-73652219D01*
X186619047Y-74652219D02*
X186285714Y-74176028D01*
X186047619Y-74652219D02*
X186047619Y-73652219D01*
X186047619Y-73652219D02*
X186428571Y-73652219D01*
X186428571Y-73652219D02*
X186523809Y-73699838D01*
X186523809Y-73699838D02*
X186571428Y-73747457D01*
X186571428Y-73747457D02*
X186619047Y-73842695D01*
X186619047Y-73842695D02*
X186619047Y-73985552D01*
X186619047Y-73985552D02*
X186571428Y-74080790D01*
X186571428Y-74080790D02*
X186523809Y-74128409D01*
X186523809Y-74128409D02*
X186428571Y-74176028D01*
X186428571Y-74176028D02*
X186047619Y-74176028D01*
X186904762Y-73652219D02*
X187476190Y-73652219D01*
X187190476Y-74652219D02*
X187190476Y-73652219D01*
X190857144Y-74271266D02*
X191619049Y-74271266D01*
X192095239Y-74271266D02*
X192857144Y-74271266D01*
X193333334Y-74271266D02*
X194095239Y-74271266D01*
X194571429Y-74271266D02*
X195333334Y-74271266D01*
X195809524Y-73985552D02*
X196571429Y-74271266D01*
X196571429Y-74271266D02*
X195809524Y-74556980D01*
D11*
X195117969Y-141475247D02*
X195232255Y-141513342D01*
X195232255Y-141513342D02*
X195270350Y-141551438D01*
X195270350Y-141551438D02*
X195308446Y-141627628D01*
X195308446Y-141627628D02*
X195308446Y-141741914D01*
X195308446Y-141741914D02*
X195270350Y-141818104D01*
X195270350Y-141818104D02*
X195232255Y-141856200D01*
X195232255Y-141856200D02*
X195156065Y-141894295D01*
X195156065Y-141894295D02*
X194851303Y-141894295D01*
X194851303Y-141894295D02*
X194851303Y-141094295D01*
X194851303Y-141094295D02*
X195117969Y-141094295D01*
X195117969Y-141094295D02*
X195194160Y-141132390D01*
X195194160Y-141132390D02*
X195232255Y-141170485D01*
X195232255Y-141170485D02*
X195270350Y-141246676D01*
X195270350Y-141246676D02*
X195270350Y-141322866D01*
X195270350Y-141322866D02*
X195232255Y-141399057D01*
X195232255Y-141399057D02*
X195194160Y-141437152D01*
X195194160Y-141437152D02*
X195117969Y-141475247D01*
X195117969Y-141475247D02*
X194851303Y-141475247D01*
X195803684Y-141094295D02*
X195956065Y-141094295D01*
X195956065Y-141094295D02*
X196032255Y-141132390D01*
X196032255Y-141132390D02*
X196108446Y-141208580D01*
X196108446Y-141208580D02*
X196146541Y-141360961D01*
X196146541Y-141360961D02*
X196146541Y-141627628D01*
X196146541Y-141627628D02*
X196108446Y-141780009D01*
X196108446Y-141780009D02*
X196032255Y-141856200D01*
X196032255Y-141856200D02*
X195956065Y-141894295D01*
X195956065Y-141894295D02*
X195803684Y-141894295D01*
X195803684Y-141894295D02*
X195727493Y-141856200D01*
X195727493Y-141856200D02*
X195651303Y-141780009D01*
X195651303Y-141780009D02*
X195613207Y-141627628D01*
X195613207Y-141627628D02*
X195613207Y-141360961D01*
X195613207Y-141360961D02*
X195651303Y-141208580D01*
X195651303Y-141208580D02*
X195727493Y-141132390D01*
X195727493Y-141132390D02*
X195803684Y-141094295D01*
X196641779Y-141094295D02*
X196794160Y-141094295D01*
X196794160Y-141094295D02*
X196870350Y-141132390D01*
X196870350Y-141132390D02*
X196946541Y-141208580D01*
X196946541Y-141208580D02*
X196984636Y-141360961D01*
X196984636Y-141360961D02*
X196984636Y-141627628D01*
X196984636Y-141627628D02*
X196946541Y-141780009D01*
X196946541Y-141780009D02*
X196870350Y-141856200D01*
X196870350Y-141856200D02*
X196794160Y-141894295D01*
X196794160Y-141894295D02*
X196641779Y-141894295D01*
X196641779Y-141894295D02*
X196565588Y-141856200D01*
X196565588Y-141856200D02*
X196489398Y-141780009D01*
X196489398Y-141780009D02*
X196451302Y-141627628D01*
X196451302Y-141627628D02*
X196451302Y-141360961D01*
X196451302Y-141360961D02*
X196489398Y-141208580D01*
X196489398Y-141208580D02*
X196565588Y-141132390D01*
X196565588Y-141132390D02*
X196641779Y-141094295D01*
X197213207Y-141094295D02*
X197670350Y-141094295D01*
X197441778Y-141894295D02*
X197441778Y-141094295D01*
X166774874Y-145818385D02*
X167232017Y-145818385D01*
X167003445Y-146618385D02*
X167003445Y-145818385D01*
X167498684Y-146618385D02*
X167498684Y-145818385D01*
X167879636Y-146618385D02*
X167879636Y-145818385D01*
X167879636Y-145818385D02*
X168184398Y-145818385D01*
X168184398Y-145818385D02*
X168260588Y-145856480D01*
X168260588Y-145856480D02*
X168298683Y-145894575D01*
X168298683Y-145894575D02*
X168336779Y-145970766D01*
X168336779Y-145970766D02*
X168336779Y-146085051D01*
X168336779Y-146085051D02*
X168298683Y-146161242D01*
X168298683Y-146161242D02*
X168260588Y-146199337D01*
X168260588Y-146199337D02*
X168184398Y-146237432D01*
X168184398Y-146237432D02*
X167879636Y-146237432D01*
X169708207Y-145856480D02*
X169632017Y-145818385D01*
X169632017Y-145818385D02*
X169517731Y-145818385D01*
X169517731Y-145818385D02*
X169403445Y-145856480D01*
X169403445Y-145856480D02*
X169327255Y-145932670D01*
X169327255Y-145932670D02*
X169289160Y-146008861D01*
X169289160Y-146008861D02*
X169251064Y-146161242D01*
X169251064Y-146161242D02*
X169251064Y-146275528D01*
X169251064Y-146275528D02*
X169289160Y-146427909D01*
X169289160Y-146427909D02*
X169327255Y-146504099D01*
X169327255Y-146504099D02*
X169403445Y-146580290D01*
X169403445Y-146580290D02*
X169517731Y-146618385D01*
X169517731Y-146618385D02*
X169593922Y-146618385D01*
X169593922Y-146618385D02*
X169708207Y-146580290D01*
X169708207Y-146580290D02*
X169746303Y-146542194D01*
X169746303Y-146542194D02*
X169746303Y-146275528D01*
X169746303Y-146275528D02*
X169593922Y-146275528D01*
X170089160Y-146618385D02*
X170089160Y-145818385D01*
X170089160Y-145818385D02*
X170546303Y-146618385D01*
X170546303Y-146618385D02*
X170546303Y-145818385D01*
X170927255Y-146618385D02*
X170927255Y-145818385D01*
X170927255Y-145818385D02*
X171117731Y-145818385D01*
X171117731Y-145818385D02*
X171232017Y-145856480D01*
X171232017Y-145856480D02*
X171308207Y-145932670D01*
X171308207Y-145932670D02*
X171346302Y-146008861D01*
X171346302Y-146008861D02*
X171384398Y-146161242D01*
X171384398Y-146161242D02*
X171384398Y-146275528D01*
X171384398Y-146275528D02*
X171346302Y-146427909D01*
X171346302Y-146427909D02*
X171308207Y-146504099D01*
X171308207Y-146504099D02*
X171232017Y-146580290D01*
X171232017Y-146580290D02*
X171117731Y-146618385D01*
X171117731Y-146618385D02*
X170927255Y-146618385D01*
X171727255Y-146542194D02*
X171765350Y-146580290D01*
X171765350Y-146580290D02*
X171727255Y-146618385D01*
X171727255Y-146618385D02*
X171689159Y-146580290D01*
X171689159Y-146580290D02*
X171727255Y-146542194D01*
X171727255Y-146542194D02*
X171727255Y-146618385D01*
X171727255Y-146123147D02*
X171765350Y-146161242D01*
X171765350Y-146161242D02*
X171727255Y-146199337D01*
X171727255Y-146199337D02*
X171689159Y-146161242D01*
X171689159Y-146161242D02*
X171727255Y-146123147D01*
X171727255Y-146123147D02*
X171727255Y-146199337D01*
X172717731Y-145818385D02*
X172717731Y-146466004D01*
X172717731Y-146466004D02*
X172755826Y-146542194D01*
X172755826Y-146542194D02*
X172793921Y-146580290D01*
X172793921Y-146580290D02*
X172870112Y-146618385D01*
X172870112Y-146618385D02*
X173022493Y-146618385D01*
X173022493Y-146618385D02*
X173098683Y-146580290D01*
X173098683Y-146580290D02*
X173136778Y-146542194D01*
X173136778Y-146542194D02*
X173174874Y-146466004D01*
X173174874Y-146466004D02*
X173174874Y-145818385D01*
X173517730Y-146580290D02*
X173632016Y-146618385D01*
X173632016Y-146618385D02*
X173822492Y-146618385D01*
X173822492Y-146618385D02*
X173898683Y-146580290D01*
X173898683Y-146580290D02*
X173936778Y-146542194D01*
X173936778Y-146542194D02*
X173974873Y-146466004D01*
X173974873Y-146466004D02*
X173974873Y-146389813D01*
X173974873Y-146389813D02*
X173936778Y-146313623D01*
X173936778Y-146313623D02*
X173898683Y-146275528D01*
X173898683Y-146275528D02*
X173822492Y-146237432D01*
X173822492Y-146237432D02*
X173670111Y-146199337D01*
X173670111Y-146199337D02*
X173593921Y-146161242D01*
X173593921Y-146161242D02*
X173555826Y-146123147D01*
X173555826Y-146123147D02*
X173517730Y-146046956D01*
X173517730Y-146046956D02*
X173517730Y-145970766D01*
X173517730Y-145970766D02*
X173555826Y-145894575D01*
X173555826Y-145894575D02*
X173593921Y-145856480D01*
X173593921Y-145856480D02*
X173670111Y-145818385D01*
X173670111Y-145818385D02*
X173860588Y-145818385D01*
X173860588Y-145818385D02*
X173974873Y-145856480D01*
X174317731Y-146199337D02*
X174584397Y-146199337D01*
X174698683Y-146618385D02*
X174317731Y-146618385D01*
X174317731Y-146618385D02*
X174317731Y-145818385D01*
X174317731Y-145818385D02*
X174698683Y-145818385D01*
X175612969Y-146389813D02*
X175993922Y-146389813D01*
X175536779Y-146618385D02*
X175803446Y-145818385D01*
X175803446Y-145818385D02*
X176070112Y-146618385D01*
X176908207Y-146580290D02*
X177022493Y-146618385D01*
X177022493Y-146618385D02*
X177212969Y-146618385D01*
X177212969Y-146618385D02*
X177289160Y-146580290D01*
X177289160Y-146580290D02*
X177327255Y-146542194D01*
X177327255Y-146542194D02*
X177365350Y-146466004D01*
X177365350Y-146466004D02*
X177365350Y-146389813D01*
X177365350Y-146389813D02*
X177327255Y-146313623D01*
X177327255Y-146313623D02*
X177289160Y-146275528D01*
X177289160Y-146275528D02*
X177212969Y-146237432D01*
X177212969Y-146237432D02*
X177060588Y-146199337D01*
X177060588Y-146199337D02*
X176984398Y-146161242D01*
X176984398Y-146161242D02*
X176946303Y-146123147D01*
X176946303Y-146123147D02*
X176908207Y-146046956D01*
X176908207Y-146046956D02*
X176908207Y-145970766D01*
X176908207Y-145970766D02*
X176946303Y-145894575D01*
X176946303Y-145894575D02*
X176984398Y-145856480D01*
X176984398Y-145856480D02*
X177060588Y-145818385D01*
X177060588Y-145818385D02*
X177251065Y-145818385D01*
X177251065Y-145818385D02*
X177365350Y-145856480D01*
X177708208Y-145818385D02*
X177708208Y-146466004D01*
X177708208Y-146466004D02*
X177746303Y-146542194D01*
X177746303Y-146542194D02*
X177784398Y-146580290D01*
X177784398Y-146580290D02*
X177860589Y-146618385D01*
X177860589Y-146618385D02*
X178012970Y-146618385D01*
X178012970Y-146618385D02*
X178089160Y-146580290D01*
X178089160Y-146580290D02*
X178127255Y-146542194D01*
X178127255Y-146542194D02*
X178165351Y-146466004D01*
X178165351Y-146466004D02*
X178165351Y-145818385D01*
X178546303Y-146618385D02*
X178546303Y-145818385D01*
X178546303Y-145818385D02*
X178851065Y-145818385D01*
X178851065Y-145818385D02*
X178927255Y-145856480D01*
X178927255Y-145856480D02*
X178965350Y-145894575D01*
X178965350Y-145894575D02*
X179003446Y-145970766D01*
X179003446Y-145970766D02*
X179003446Y-146085051D01*
X179003446Y-146085051D02*
X178965350Y-146161242D01*
X178965350Y-146161242D02*
X178927255Y-146199337D01*
X178927255Y-146199337D02*
X178851065Y-146237432D01*
X178851065Y-146237432D02*
X178546303Y-146237432D01*
X179346303Y-146618385D02*
X179346303Y-145818385D01*
X179346303Y-145818385D02*
X179651065Y-145818385D01*
X179651065Y-145818385D02*
X179727255Y-145856480D01*
X179727255Y-145856480D02*
X179765350Y-145894575D01*
X179765350Y-145894575D02*
X179803446Y-145970766D01*
X179803446Y-145970766D02*
X179803446Y-146085051D01*
X179803446Y-146085051D02*
X179765350Y-146161242D01*
X179765350Y-146161242D02*
X179727255Y-146199337D01*
X179727255Y-146199337D02*
X179651065Y-146237432D01*
X179651065Y-146237432D02*
X179346303Y-146237432D01*
X180527255Y-146618385D02*
X180146303Y-146618385D01*
X180146303Y-146618385D02*
X180146303Y-145818385D01*
X180946303Y-146237432D02*
X180946303Y-146618385D01*
X180679636Y-145818385D02*
X180946303Y-146237432D01*
X180946303Y-146237432D02*
X181212969Y-145818385D01*
X182012969Y-145818385D02*
X182203445Y-146618385D01*
X182203445Y-146618385D02*
X182355826Y-146046956D01*
X182355826Y-146046956D02*
X182508207Y-146618385D01*
X182508207Y-146618385D02*
X182698684Y-145818385D01*
X183003446Y-146618385D02*
X183003446Y-145818385D01*
X183270112Y-145818385D02*
X183727255Y-145818385D01*
X183498683Y-146618385D02*
X183498683Y-145818385D01*
X183993922Y-146618385D02*
X183993922Y-145818385D01*
X183993922Y-146199337D02*
X184451065Y-146199337D01*
X184451065Y-146618385D02*
X184451065Y-145818385D01*
X166851064Y-147677768D02*
X167232017Y-147677768D01*
X166774874Y-147906340D02*
X167041541Y-147106340D01*
X167041541Y-147106340D02*
X167308207Y-147906340D01*
X168451064Y-147487292D02*
X168184398Y-147487292D01*
X168184398Y-147906340D02*
X168184398Y-147106340D01*
X168184398Y-147106340D02*
X168565350Y-147106340D01*
X169251064Y-147906340D02*
X168870112Y-147906340D01*
X168870112Y-147906340D02*
X168870112Y-147106340D01*
X169670112Y-147106340D02*
X169822493Y-147106340D01*
X169822493Y-147106340D02*
X169898683Y-147144435D01*
X169898683Y-147144435D02*
X169974874Y-147220625D01*
X169974874Y-147220625D02*
X170012969Y-147373006D01*
X170012969Y-147373006D02*
X170012969Y-147639673D01*
X170012969Y-147639673D02*
X169974874Y-147792054D01*
X169974874Y-147792054D02*
X169898683Y-147868245D01*
X169898683Y-147868245D02*
X169822493Y-147906340D01*
X169822493Y-147906340D02*
X169670112Y-147906340D01*
X169670112Y-147906340D02*
X169593921Y-147868245D01*
X169593921Y-147868245D02*
X169517731Y-147792054D01*
X169517731Y-147792054D02*
X169479635Y-147639673D01*
X169479635Y-147639673D02*
X169479635Y-147373006D01*
X169479635Y-147373006D02*
X169517731Y-147220625D01*
X169517731Y-147220625D02*
X169593921Y-147144435D01*
X169593921Y-147144435D02*
X169670112Y-147106340D01*
X170317730Y-147677768D02*
X170698683Y-147677768D01*
X170241540Y-147906340D02*
X170508207Y-147106340D01*
X170508207Y-147106340D02*
X170774873Y-147906340D01*
X170927254Y-147106340D02*
X171384397Y-147106340D01*
X171155825Y-147906340D02*
X171155825Y-147106340D01*
X171651064Y-147906340D02*
X171651064Y-147106340D01*
X172032016Y-147906340D02*
X172032016Y-147106340D01*
X172032016Y-147106340D02*
X172489159Y-147906340D01*
X172489159Y-147906340D02*
X172489159Y-147106340D01*
X173289158Y-147144435D02*
X173212968Y-147106340D01*
X173212968Y-147106340D02*
X173098682Y-147106340D01*
X173098682Y-147106340D02*
X172984396Y-147144435D01*
X172984396Y-147144435D02*
X172908206Y-147220625D01*
X172908206Y-147220625D02*
X172870111Y-147296816D01*
X172870111Y-147296816D02*
X172832015Y-147449197D01*
X172832015Y-147449197D02*
X172832015Y-147563483D01*
X172832015Y-147563483D02*
X172870111Y-147715864D01*
X172870111Y-147715864D02*
X172908206Y-147792054D01*
X172908206Y-147792054D02*
X172984396Y-147868245D01*
X172984396Y-147868245D02*
X173098682Y-147906340D01*
X173098682Y-147906340D02*
X173174873Y-147906340D01*
X173174873Y-147906340D02*
X173289158Y-147868245D01*
X173289158Y-147868245D02*
X173327254Y-147830149D01*
X173327254Y-147830149D02*
X173327254Y-147563483D01*
X173327254Y-147563483D02*
X173174873Y-147563483D01*
X174432016Y-147106340D02*
X174584397Y-147106340D01*
X174584397Y-147106340D02*
X174660587Y-147144435D01*
X174660587Y-147144435D02*
X174736778Y-147220625D01*
X174736778Y-147220625D02*
X174774873Y-147373006D01*
X174774873Y-147373006D02*
X174774873Y-147639673D01*
X174774873Y-147639673D02*
X174736778Y-147792054D01*
X174736778Y-147792054D02*
X174660587Y-147868245D01*
X174660587Y-147868245D02*
X174584397Y-147906340D01*
X174584397Y-147906340D02*
X174432016Y-147906340D01*
X174432016Y-147906340D02*
X174355825Y-147868245D01*
X174355825Y-147868245D02*
X174279635Y-147792054D01*
X174279635Y-147792054D02*
X174241539Y-147639673D01*
X174241539Y-147639673D02*
X174241539Y-147373006D01*
X174241539Y-147373006D02*
X174279635Y-147220625D01*
X174279635Y-147220625D02*
X174355825Y-147144435D01*
X174355825Y-147144435D02*
X174432016Y-147106340D01*
X175117730Y-147106340D02*
X175117730Y-147753959D01*
X175117730Y-147753959D02*
X175155825Y-147830149D01*
X175155825Y-147830149D02*
X175193920Y-147868245D01*
X175193920Y-147868245D02*
X175270111Y-147906340D01*
X175270111Y-147906340D02*
X175422492Y-147906340D01*
X175422492Y-147906340D02*
X175498682Y-147868245D01*
X175498682Y-147868245D02*
X175536777Y-147830149D01*
X175536777Y-147830149D02*
X175574873Y-147753959D01*
X175574873Y-147753959D02*
X175574873Y-147106340D01*
X175841539Y-147106340D02*
X176298682Y-147106340D01*
X176070110Y-147906340D02*
X176070110Y-147106340D01*
X176565349Y-147906340D02*
X176565349Y-147106340D01*
X176565349Y-147106340D02*
X176870111Y-147106340D01*
X176870111Y-147106340D02*
X176946301Y-147144435D01*
X176946301Y-147144435D02*
X176984396Y-147182530D01*
X176984396Y-147182530D02*
X177022492Y-147258721D01*
X177022492Y-147258721D02*
X177022492Y-147373006D01*
X177022492Y-147373006D02*
X176984396Y-147449197D01*
X176984396Y-147449197D02*
X176946301Y-147487292D01*
X176946301Y-147487292D02*
X176870111Y-147525387D01*
X176870111Y-147525387D02*
X176565349Y-147525387D01*
X177365349Y-147106340D02*
X177365349Y-147753959D01*
X177365349Y-147753959D02*
X177403444Y-147830149D01*
X177403444Y-147830149D02*
X177441539Y-147868245D01*
X177441539Y-147868245D02*
X177517730Y-147906340D01*
X177517730Y-147906340D02*
X177670111Y-147906340D01*
X177670111Y-147906340D02*
X177746301Y-147868245D01*
X177746301Y-147868245D02*
X177784396Y-147830149D01*
X177784396Y-147830149D02*
X177822492Y-147753959D01*
X177822492Y-147753959D02*
X177822492Y-147106340D01*
X178089158Y-147106340D02*
X178546301Y-147106340D01*
X178317729Y-147906340D02*
X178317729Y-147106340D01*
X179651063Y-148211102D02*
X179612968Y-148173006D01*
X179612968Y-148173006D02*
X179536777Y-148058721D01*
X179536777Y-148058721D02*
X179498682Y-147982530D01*
X179498682Y-147982530D02*
X179460587Y-147868245D01*
X179460587Y-147868245D02*
X179422492Y-147677768D01*
X179422492Y-147677768D02*
X179422492Y-147525387D01*
X179422492Y-147525387D02*
X179460587Y-147334911D01*
X179460587Y-147334911D02*
X179498682Y-147220625D01*
X179498682Y-147220625D02*
X179536777Y-147144435D01*
X179536777Y-147144435D02*
X179612968Y-147030149D01*
X179612968Y-147030149D02*
X179651063Y-146992054D01*
X179917729Y-147868245D02*
X180032015Y-147906340D01*
X180032015Y-147906340D02*
X180222491Y-147906340D01*
X180222491Y-147906340D02*
X180298682Y-147868245D01*
X180298682Y-147868245D02*
X180336777Y-147830149D01*
X180336777Y-147830149D02*
X180374872Y-147753959D01*
X180374872Y-147753959D02*
X180374872Y-147677768D01*
X180374872Y-147677768D02*
X180336777Y-147601578D01*
X180336777Y-147601578D02*
X180298682Y-147563483D01*
X180298682Y-147563483D02*
X180222491Y-147525387D01*
X180222491Y-147525387D02*
X180070110Y-147487292D01*
X180070110Y-147487292D02*
X179993920Y-147449197D01*
X179993920Y-147449197D02*
X179955825Y-147411102D01*
X179955825Y-147411102D02*
X179917729Y-147334911D01*
X179917729Y-147334911D02*
X179917729Y-147258721D01*
X179917729Y-147258721D02*
X179955825Y-147182530D01*
X179955825Y-147182530D02*
X179993920Y-147144435D01*
X179993920Y-147144435D02*
X180070110Y-147106340D01*
X180070110Y-147106340D02*
X180260587Y-147106340D01*
X180260587Y-147106340D02*
X180374872Y-147144435D01*
X180717730Y-147487292D02*
X180984396Y-147487292D01*
X181098682Y-147906340D02*
X180717730Y-147906340D01*
X180717730Y-147906340D02*
X180717730Y-147106340D01*
X180717730Y-147106340D02*
X181098682Y-147106340D01*
X181822492Y-147906340D02*
X181441540Y-147906340D01*
X181441540Y-147906340D02*
X181441540Y-147106340D01*
X181974873Y-147106340D02*
X182241540Y-147906340D01*
X182241540Y-147906340D02*
X182508206Y-147106340D01*
X182698682Y-148211102D02*
X182736777Y-148173006D01*
X182736777Y-148173006D02*
X182812968Y-148058721D01*
X182812968Y-148058721D02*
X182851063Y-147982530D01*
X182851063Y-147982530D02*
X182889158Y-147868245D01*
X182889158Y-147868245D02*
X182927254Y-147677768D01*
X182927254Y-147677768D02*
X182927254Y-147525387D01*
X182927254Y-147525387D02*
X182889158Y-147334911D01*
X182889158Y-147334911D02*
X182851063Y-147220625D01*
X182851063Y-147220625D02*
X182812968Y-147144435D01*
X182812968Y-147144435D02*
X182736777Y-147030149D01*
X182736777Y-147030149D02*
X182698682Y-146992054D01*
X166774874Y-148394295D02*
X167232017Y-148394295D01*
X167003445Y-149194295D02*
X167003445Y-148394295D01*
X167498684Y-149194295D02*
X167498684Y-148394295D01*
X167498684Y-148775247D02*
X167955827Y-148775247D01*
X167955827Y-149194295D02*
X167955827Y-148394295D01*
X168336779Y-148775247D02*
X168603445Y-148775247D01*
X168717731Y-149194295D02*
X168336779Y-149194295D01*
X168336779Y-149194295D02*
X168336779Y-148394295D01*
X168336779Y-148394295D02*
X168717731Y-148394295D01*
X169670113Y-148394295D02*
X169670113Y-149041914D01*
X169670113Y-149041914D02*
X169708208Y-149118104D01*
X169708208Y-149118104D02*
X169746303Y-149156200D01*
X169746303Y-149156200D02*
X169822494Y-149194295D01*
X169822494Y-149194295D02*
X169974875Y-149194295D01*
X169974875Y-149194295D02*
X170051065Y-149156200D01*
X170051065Y-149156200D02*
X170089160Y-149118104D01*
X170089160Y-149118104D02*
X170127256Y-149041914D01*
X170127256Y-149041914D02*
X170127256Y-148394295D01*
X170470112Y-149156200D02*
X170584398Y-149194295D01*
X170584398Y-149194295D02*
X170774874Y-149194295D01*
X170774874Y-149194295D02*
X170851065Y-149156200D01*
X170851065Y-149156200D02*
X170889160Y-149118104D01*
X170889160Y-149118104D02*
X170927255Y-149041914D01*
X170927255Y-149041914D02*
X170927255Y-148965723D01*
X170927255Y-148965723D02*
X170889160Y-148889533D01*
X170889160Y-148889533D02*
X170851065Y-148851438D01*
X170851065Y-148851438D02*
X170774874Y-148813342D01*
X170774874Y-148813342D02*
X170622493Y-148775247D01*
X170622493Y-148775247D02*
X170546303Y-148737152D01*
X170546303Y-148737152D02*
X170508208Y-148699057D01*
X170508208Y-148699057D02*
X170470112Y-148622866D01*
X170470112Y-148622866D02*
X170470112Y-148546676D01*
X170470112Y-148546676D02*
X170508208Y-148470485D01*
X170508208Y-148470485D02*
X170546303Y-148432390D01*
X170546303Y-148432390D02*
X170622493Y-148394295D01*
X170622493Y-148394295D02*
X170812970Y-148394295D01*
X170812970Y-148394295D02*
X170927255Y-148432390D01*
X171536779Y-148775247D02*
X171651065Y-148813342D01*
X171651065Y-148813342D02*
X171689160Y-148851438D01*
X171689160Y-148851438D02*
X171727256Y-148927628D01*
X171727256Y-148927628D02*
X171727256Y-149041914D01*
X171727256Y-149041914D02*
X171689160Y-149118104D01*
X171689160Y-149118104D02*
X171651065Y-149156200D01*
X171651065Y-149156200D02*
X171574875Y-149194295D01*
X171574875Y-149194295D02*
X171270113Y-149194295D01*
X171270113Y-149194295D02*
X171270113Y-148394295D01*
X171270113Y-148394295D02*
X171536779Y-148394295D01*
X171536779Y-148394295D02*
X171612970Y-148432390D01*
X171612970Y-148432390D02*
X171651065Y-148470485D01*
X171651065Y-148470485D02*
X171689160Y-148546676D01*
X171689160Y-148546676D02*
X171689160Y-148622866D01*
X171689160Y-148622866D02*
X171651065Y-148699057D01*
X171651065Y-148699057D02*
X171612970Y-148737152D01*
X171612970Y-148737152D02*
X171536779Y-148775247D01*
X171536779Y-148775247D02*
X171270113Y-148775247D01*
X172679637Y-149194295D02*
X172679637Y-148394295D01*
X172679637Y-148394295D02*
X172984399Y-148394295D01*
X172984399Y-148394295D02*
X173060589Y-148432390D01*
X173060589Y-148432390D02*
X173098684Y-148470485D01*
X173098684Y-148470485D02*
X173136780Y-148546676D01*
X173136780Y-148546676D02*
X173136780Y-148660961D01*
X173136780Y-148660961D02*
X173098684Y-148737152D01*
X173098684Y-148737152D02*
X173060589Y-148775247D01*
X173060589Y-148775247D02*
X172984399Y-148813342D01*
X172984399Y-148813342D02*
X172679637Y-148813342D01*
X173632018Y-148394295D02*
X173784399Y-148394295D01*
X173784399Y-148394295D02*
X173860589Y-148432390D01*
X173860589Y-148432390D02*
X173936780Y-148508580D01*
X173936780Y-148508580D02*
X173974875Y-148660961D01*
X173974875Y-148660961D02*
X173974875Y-148927628D01*
X173974875Y-148927628D02*
X173936780Y-149080009D01*
X173936780Y-149080009D02*
X173860589Y-149156200D01*
X173860589Y-149156200D02*
X173784399Y-149194295D01*
X173784399Y-149194295D02*
X173632018Y-149194295D01*
X173632018Y-149194295D02*
X173555827Y-149156200D01*
X173555827Y-149156200D02*
X173479637Y-149080009D01*
X173479637Y-149080009D02*
X173441541Y-148927628D01*
X173441541Y-148927628D02*
X173441541Y-148660961D01*
X173441541Y-148660961D02*
X173479637Y-148508580D01*
X173479637Y-148508580D02*
X173555827Y-148432390D01*
X173555827Y-148432390D02*
X173632018Y-148394295D01*
X174774875Y-149194295D02*
X174508208Y-148813342D01*
X174317732Y-149194295D02*
X174317732Y-148394295D01*
X174317732Y-148394295D02*
X174622494Y-148394295D01*
X174622494Y-148394295D02*
X174698684Y-148432390D01*
X174698684Y-148432390D02*
X174736779Y-148470485D01*
X174736779Y-148470485D02*
X174774875Y-148546676D01*
X174774875Y-148546676D02*
X174774875Y-148660961D01*
X174774875Y-148660961D02*
X174736779Y-148737152D01*
X174736779Y-148737152D02*
X174698684Y-148775247D01*
X174698684Y-148775247D02*
X174622494Y-148813342D01*
X174622494Y-148813342D02*
X174317732Y-148813342D01*
X175003446Y-148394295D02*
X175460589Y-148394295D01*
X175232017Y-149194295D02*
X175232017Y-148394295D01*
X176336780Y-149194295D02*
X176336780Y-148394295D01*
X176679636Y-149156200D02*
X176793922Y-149194295D01*
X176793922Y-149194295D02*
X176984398Y-149194295D01*
X176984398Y-149194295D02*
X177060589Y-149156200D01*
X177060589Y-149156200D02*
X177098684Y-149118104D01*
X177098684Y-149118104D02*
X177136779Y-149041914D01*
X177136779Y-149041914D02*
X177136779Y-148965723D01*
X177136779Y-148965723D02*
X177098684Y-148889533D01*
X177098684Y-148889533D02*
X177060589Y-148851438D01*
X177060589Y-148851438D02*
X176984398Y-148813342D01*
X176984398Y-148813342D02*
X176832017Y-148775247D01*
X176832017Y-148775247D02*
X176755827Y-148737152D01*
X176755827Y-148737152D02*
X176717732Y-148699057D01*
X176717732Y-148699057D02*
X176679636Y-148622866D01*
X176679636Y-148622866D02*
X176679636Y-148546676D01*
X176679636Y-148546676D02*
X176717732Y-148470485D01*
X176717732Y-148470485D02*
X176755827Y-148432390D01*
X176755827Y-148432390D02*
X176832017Y-148394295D01*
X176832017Y-148394295D02*
X177022494Y-148394295D01*
X177022494Y-148394295D02*
X177136779Y-148432390D01*
X178089161Y-148394295D02*
X178089161Y-149041914D01*
X178089161Y-149041914D02*
X178127256Y-149118104D01*
X178127256Y-149118104D02*
X178165351Y-149156200D01*
X178165351Y-149156200D02*
X178241542Y-149194295D01*
X178241542Y-149194295D02*
X178393923Y-149194295D01*
X178393923Y-149194295D02*
X178470113Y-149156200D01*
X178470113Y-149156200D02*
X178508208Y-149118104D01*
X178508208Y-149118104D02*
X178546304Y-149041914D01*
X178546304Y-149041914D02*
X178546304Y-148394295D01*
X178927256Y-149194295D02*
X178927256Y-148394295D01*
X178927256Y-148394295D02*
X179384399Y-149194295D01*
X179384399Y-149194295D02*
X179384399Y-148394295D01*
X180184398Y-148432390D02*
X180108208Y-148394295D01*
X180108208Y-148394295D02*
X179993922Y-148394295D01*
X179993922Y-148394295D02*
X179879636Y-148432390D01*
X179879636Y-148432390D02*
X179803446Y-148508580D01*
X179803446Y-148508580D02*
X179765351Y-148584771D01*
X179765351Y-148584771D02*
X179727255Y-148737152D01*
X179727255Y-148737152D02*
X179727255Y-148851438D01*
X179727255Y-148851438D02*
X179765351Y-149003819D01*
X179765351Y-149003819D02*
X179803446Y-149080009D01*
X179803446Y-149080009D02*
X179879636Y-149156200D01*
X179879636Y-149156200D02*
X179993922Y-149194295D01*
X179993922Y-149194295D02*
X180070113Y-149194295D01*
X180070113Y-149194295D02*
X180184398Y-149156200D01*
X180184398Y-149156200D02*
X180222494Y-149118104D01*
X180222494Y-149118104D02*
X180222494Y-148851438D01*
X180222494Y-148851438D02*
X180070113Y-148851438D01*
X181022494Y-149194295D02*
X180755827Y-148813342D01*
X180565351Y-149194295D02*
X180565351Y-148394295D01*
X180565351Y-148394295D02*
X180870113Y-148394295D01*
X180870113Y-148394295D02*
X180946303Y-148432390D01*
X180946303Y-148432390D02*
X180984398Y-148470485D01*
X180984398Y-148470485D02*
X181022494Y-148546676D01*
X181022494Y-148546676D02*
X181022494Y-148660961D01*
X181022494Y-148660961D02*
X180984398Y-148737152D01*
X180984398Y-148737152D02*
X180946303Y-148775247D01*
X180946303Y-148775247D02*
X180870113Y-148813342D01*
X180870113Y-148813342D02*
X180565351Y-148813342D01*
X181517732Y-148394295D02*
X181670113Y-148394295D01*
X181670113Y-148394295D02*
X181746303Y-148432390D01*
X181746303Y-148432390D02*
X181822494Y-148508580D01*
X181822494Y-148508580D02*
X181860589Y-148660961D01*
X181860589Y-148660961D02*
X181860589Y-148927628D01*
X181860589Y-148927628D02*
X181822494Y-149080009D01*
X181822494Y-149080009D02*
X181746303Y-149156200D01*
X181746303Y-149156200D02*
X181670113Y-149194295D01*
X181670113Y-149194295D02*
X181517732Y-149194295D01*
X181517732Y-149194295D02*
X181441541Y-149156200D01*
X181441541Y-149156200D02*
X181365351Y-149080009D01*
X181365351Y-149080009D02*
X181327255Y-148927628D01*
X181327255Y-148927628D02*
X181327255Y-148660961D01*
X181327255Y-148660961D02*
X181365351Y-148508580D01*
X181365351Y-148508580D02*
X181441541Y-148432390D01*
X181441541Y-148432390D02*
X181517732Y-148394295D01*
X182203446Y-148394295D02*
X182203446Y-149041914D01*
X182203446Y-149041914D02*
X182241541Y-149118104D01*
X182241541Y-149118104D02*
X182279636Y-149156200D01*
X182279636Y-149156200D02*
X182355827Y-149194295D01*
X182355827Y-149194295D02*
X182508208Y-149194295D01*
X182508208Y-149194295D02*
X182584398Y-149156200D01*
X182584398Y-149156200D02*
X182622493Y-149118104D01*
X182622493Y-149118104D02*
X182660589Y-149041914D01*
X182660589Y-149041914D02*
X182660589Y-148394295D01*
X183041541Y-149194295D02*
X183041541Y-148394295D01*
X183041541Y-148394295D02*
X183498684Y-149194295D01*
X183498684Y-149194295D02*
X183498684Y-148394295D01*
X183879636Y-149194295D02*
X183879636Y-148394295D01*
X183879636Y-148394295D02*
X184070112Y-148394295D01*
X184070112Y-148394295D02*
X184184398Y-148432390D01*
X184184398Y-148432390D02*
X184260588Y-148508580D01*
X184260588Y-148508580D02*
X184298683Y-148584771D01*
X184298683Y-148584771D02*
X184336779Y-148737152D01*
X184336779Y-148737152D02*
X184336779Y-148851438D01*
X184336779Y-148851438D02*
X184298683Y-149003819D01*
X184298683Y-149003819D02*
X184260588Y-149080009D01*
X184260588Y-149080009D02*
X184184398Y-149156200D01*
X184184398Y-149156200D02*
X184070112Y-149194295D01*
X184070112Y-149194295D02*
X183879636Y-149194295D01*
X184679636Y-148775247D02*
X184946302Y-148775247D01*
X185060588Y-149194295D02*
X184679636Y-149194295D01*
X184679636Y-149194295D02*
X184679636Y-148394295D01*
X184679636Y-148394295D02*
X185060588Y-148394295D01*
X185403446Y-149194295D02*
X185403446Y-148394295D01*
X185403446Y-148394295D02*
X185593922Y-148394295D01*
X185593922Y-148394295D02*
X185708208Y-148432390D01*
X185708208Y-148432390D02*
X185784398Y-148508580D01*
X185784398Y-148508580D02*
X185822493Y-148584771D01*
X185822493Y-148584771D02*
X185860589Y-148737152D01*
X185860589Y-148737152D02*
X185860589Y-148851438D01*
X185860589Y-148851438D02*
X185822493Y-149003819D01*
X185822493Y-149003819D02*
X185784398Y-149080009D01*
X185784398Y-149080009D02*
X185708208Y-149156200D01*
X185708208Y-149156200D02*
X185593922Y-149194295D01*
X185593922Y-149194295D02*
X185403446Y-149194295D01*
X179262857Y-121510295D02*
X179720000Y-121510295D01*
X179491428Y-122310295D02*
X179491428Y-121510295D01*
X180253333Y-121891247D02*
X179986667Y-121891247D01*
X179986667Y-122310295D02*
X179986667Y-121510295D01*
X179986667Y-121510295D02*
X180367619Y-121510295D01*
X180558095Y-121510295D02*
X181015238Y-121510295D01*
X180786666Y-122310295D02*
X180786666Y-121510295D01*
X181700952Y-122310295D02*
X181243809Y-122310295D01*
X181472381Y-122310295D02*
X181472381Y-121510295D01*
X181472381Y-121510295D02*
X181396190Y-121624580D01*
X181396190Y-121624580D02*
X181320000Y-121700771D01*
X181320000Y-121700771D02*
X181243809Y-121738866D01*
X176890475Y-127524200D02*
X177004761Y-127562295D01*
X177004761Y-127562295D02*
X177195237Y-127562295D01*
X177195237Y-127562295D02*
X177271428Y-127524200D01*
X177271428Y-127524200D02*
X177309523Y-127486104D01*
X177309523Y-127486104D02*
X177347618Y-127409914D01*
X177347618Y-127409914D02*
X177347618Y-127333723D01*
X177347618Y-127333723D02*
X177309523Y-127257533D01*
X177309523Y-127257533D02*
X177271428Y-127219438D01*
X177271428Y-127219438D02*
X177195237Y-127181342D01*
X177195237Y-127181342D02*
X177042856Y-127143247D01*
X177042856Y-127143247D02*
X176966666Y-127105152D01*
X176966666Y-127105152D02*
X176928571Y-127067057D01*
X176928571Y-127067057D02*
X176890475Y-126990866D01*
X176890475Y-126990866D02*
X176890475Y-126914676D01*
X176890475Y-126914676D02*
X176928571Y-126838485D01*
X176928571Y-126838485D02*
X176966666Y-126800390D01*
X176966666Y-126800390D02*
X177042856Y-126762295D01*
X177042856Y-126762295D02*
X177233333Y-126762295D01*
X177233333Y-126762295D02*
X177347618Y-126800390D01*
X178109523Y-127562295D02*
X177652380Y-127562295D01*
X177880952Y-127562295D02*
X177880952Y-126762295D01*
X177880952Y-126762295D02*
X177804761Y-126876580D01*
X177804761Y-126876580D02*
X177728571Y-126952771D01*
X177728571Y-126952771D02*
X177652380Y-126990866D01*
X167783333Y-123612295D02*
X167783333Y-124183723D01*
X167783333Y-124183723D02*
X167745238Y-124298009D01*
X167745238Y-124298009D02*
X167669047Y-124374200D01*
X167669047Y-124374200D02*
X167554762Y-124412295D01*
X167554762Y-124412295D02*
X167478571Y-124412295D01*
X168088095Y-123612295D02*
X168621429Y-123612295D01*
X168621429Y-123612295D02*
X168278571Y-124412295D01*
X195640475Y-131574200D02*
X195754761Y-131612295D01*
X195754761Y-131612295D02*
X195945237Y-131612295D01*
X195945237Y-131612295D02*
X196021428Y-131574200D01*
X196021428Y-131574200D02*
X196059523Y-131536104D01*
X196059523Y-131536104D02*
X196097618Y-131459914D01*
X196097618Y-131459914D02*
X196097618Y-131383723D01*
X196097618Y-131383723D02*
X196059523Y-131307533D01*
X196059523Y-131307533D02*
X196021428Y-131269438D01*
X196021428Y-131269438D02*
X195945237Y-131231342D01*
X195945237Y-131231342D02*
X195792856Y-131193247D01*
X195792856Y-131193247D02*
X195716666Y-131155152D01*
X195716666Y-131155152D02*
X195678571Y-131117057D01*
X195678571Y-131117057D02*
X195640475Y-131040866D01*
X195640475Y-131040866D02*
X195640475Y-130964676D01*
X195640475Y-130964676D02*
X195678571Y-130888485D01*
X195678571Y-130888485D02*
X195716666Y-130850390D01*
X195716666Y-130850390D02*
X195792856Y-130812295D01*
X195792856Y-130812295D02*
X195983333Y-130812295D01*
X195983333Y-130812295D02*
X196097618Y-130850390D01*
X196364285Y-130812295D02*
X196859523Y-130812295D01*
X196859523Y-130812295D02*
X196592857Y-131117057D01*
X196592857Y-131117057D02*
X196707142Y-131117057D01*
X196707142Y-131117057D02*
X196783333Y-131155152D01*
X196783333Y-131155152D02*
X196821428Y-131193247D01*
X196821428Y-131193247D02*
X196859523Y-131269438D01*
X196859523Y-131269438D02*
X196859523Y-131459914D01*
X196859523Y-131459914D02*
X196821428Y-131536104D01*
X196821428Y-131536104D02*
X196783333Y-131574200D01*
X196783333Y-131574200D02*
X196707142Y-131612295D01*
X196707142Y-131612295D02*
X196478571Y-131612295D01*
X196478571Y-131612295D02*
X196402380Y-131574200D01*
X196402380Y-131574200D02*
X196364285Y-131536104D01*
X174290476Y-140262295D02*
X174290476Y-140909914D01*
X174290476Y-140909914D02*
X174328571Y-140986104D01*
X174328571Y-140986104D02*
X174366666Y-141024200D01*
X174366666Y-141024200D02*
X174442857Y-141062295D01*
X174442857Y-141062295D02*
X174595238Y-141062295D01*
X174595238Y-141062295D02*
X174671428Y-141024200D01*
X174671428Y-141024200D02*
X174709523Y-140986104D01*
X174709523Y-140986104D02*
X174747619Y-140909914D01*
X174747619Y-140909914D02*
X174747619Y-140262295D01*
X175090475Y-140338485D02*
X175128571Y-140300390D01*
X175128571Y-140300390D02*
X175204761Y-140262295D01*
X175204761Y-140262295D02*
X175395237Y-140262295D01*
X175395237Y-140262295D02*
X175471428Y-140300390D01*
X175471428Y-140300390D02*
X175509523Y-140338485D01*
X175509523Y-140338485D02*
X175547618Y-140414676D01*
X175547618Y-140414676D02*
X175547618Y-140490866D01*
X175547618Y-140490866D02*
X175509523Y-140605152D01*
X175509523Y-140605152D02*
X175052380Y-141062295D01*
X175052380Y-141062295D02*
X175547618Y-141062295D01*
X183640475Y-131574200D02*
X183754761Y-131612295D01*
X183754761Y-131612295D02*
X183945237Y-131612295D01*
X183945237Y-131612295D02*
X184021428Y-131574200D01*
X184021428Y-131574200D02*
X184059523Y-131536104D01*
X184059523Y-131536104D02*
X184097618Y-131459914D01*
X184097618Y-131459914D02*
X184097618Y-131383723D01*
X184097618Y-131383723D02*
X184059523Y-131307533D01*
X184059523Y-131307533D02*
X184021428Y-131269438D01*
X184021428Y-131269438D02*
X183945237Y-131231342D01*
X183945237Y-131231342D02*
X183792856Y-131193247D01*
X183792856Y-131193247D02*
X183716666Y-131155152D01*
X183716666Y-131155152D02*
X183678571Y-131117057D01*
X183678571Y-131117057D02*
X183640475Y-131040866D01*
X183640475Y-131040866D02*
X183640475Y-130964676D01*
X183640475Y-130964676D02*
X183678571Y-130888485D01*
X183678571Y-130888485D02*
X183716666Y-130850390D01*
X183716666Y-130850390D02*
X183792856Y-130812295D01*
X183792856Y-130812295D02*
X183983333Y-130812295D01*
X183983333Y-130812295D02*
X184097618Y-130850390D01*
X184402380Y-130888485D02*
X184440476Y-130850390D01*
X184440476Y-130850390D02*
X184516666Y-130812295D01*
X184516666Y-130812295D02*
X184707142Y-130812295D01*
X184707142Y-130812295D02*
X184783333Y-130850390D01*
X184783333Y-130850390D02*
X184821428Y-130888485D01*
X184821428Y-130888485D02*
X184859523Y-130964676D01*
X184859523Y-130964676D02*
X184859523Y-131040866D01*
X184859523Y-131040866D02*
X184821428Y-131155152D01*
X184821428Y-131155152D02*
X184364285Y-131612295D01*
X184364285Y-131612295D02*
X184859523Y-131612295D01*
X164233333Y-108862295D02*
X164233333Y-109433723D01*
X164233333Y-109433723D02*
X164195238Y-109548009D01*
X164195238Y-109548009D02*
X164119047Y-109624200D01*
X164119047Y-109624200D02*
X164004762Y-109662295D01*
X164004762Y-109662295D02*
X163928571Y-109662295D01*
X164957143Y-109128961D02*
X164957143Y-109662295D01*
X164766667Y-108824200D02*
X164576190Y-109395628D01*
X164576190Y-109395628D02*
X165071429Y-109395628D01*
D12*
%TO.C,TP18*%
X189390000Y-122810000D02*
X191930000Y-122810000D01*
X189390000Y-125350000D02*
X189390000Y-122810000D01*
X191930000Y-122810000D02*
X191930000Y-125350000D01*
X191930000Y-125350000D02*
X189390000Y-125350000D01*
D10*
X190660000Y-125830000D02*
G75*
G02*
X190560000Y-125830000I-50000J0D01*
G01*
X190560000Y-125830000D02*
G75*
G02*
X190660000Y-125830000I50000J0D01*
G01*
%TO.C,S1*%
X167150000Y-132600000D02*
X167150000Y-138200000D01*
X171650000Y-132300000D02*
X168850000Y-132300000D01*
X171650000Y-138500000D02*
X168850000Y-138500000D01*
D12*
X172450000Y-130200000D02*
X172450000Y-130200000D01*
X172550000Y-130200000D02*
X172550000Y-130200000D01*
D10*
X173350000Y-132600000D02*
X173350000Y-138200000D01*
D12*
X172450000Y-130200000D02*
G75*
G02*
X172550000Y-130200000I50000J0D01*
G01*
X172550000Y-130200000D02*
G75*
G02*
X172450000Y-130200000I-50000J0D01*
G01*
D13*
%TO.C,wombat_logo_front\u002A\u002A\u002A*%
G36*
X186296590Y-146129528D02*
G01*
X186334522Y-146147893D01*
X186365126Y-146179189D01*
X186404274Y-146247894D01*
X186409269Y-146317430D01*
X186380221Y-146383511D01*
X186359247Y-146407862D01*
X186295730Y-146450409D01*
X186227055Y-146458957D01*
X186157506Y-146433396D01*
X186130574Y-146413741D01*
X186094921Y-146377282D01*
X186079402Y-146337622D01*
X186076454Y-146289811D01*
X186089236Y-146211902D01*
X186127264Y-146158469D01*
X186190063Y-146129988D01*
X186241196Y-146125069D01*
X186296590Y-146129528D01*
G37*
G36*
X190402469Y-146545713D02*
G01*
X190444912Y-146587072D01*
X190458675Y-146607790D01*
X190467565Y-146630591D01*
X190471989Y-146662076D01*
X190472350Y-146708846D01*
X190469054Y-146777503D01*
X190462538Y-146874213D01*
X190455383Y-146970855D01*
X190448924Y-147038860D01*
X190441663Y-147084702D01*
X190432100Y-147114857D01*
X190418737Y-147135798D01*
X190400075Y-147154001D01*
X190397188Y-147156498D01*
X190333722Y-147191977D01*
X190268861Y-147193702D01*
X190208168Y-147161791D01*
X190197877Y-147152246D01*
X190152063Y-147106432D01*
X190163512Y-146867694D01*
X190170386Y-146754463D01*
X190179724Y-146671023D01*
X190193300Y-146611994D01*
X190212885Y-146571995D01*
X190240251Y-146545643D01*
X190275260Y-146528277D01*
X190340358Y-146520921D01*
X190402469Y-146545713D01*
G37*
G36*
X191469450Y-143968618D02*
G01*
X191731091Y-143989686D01*
X191971674Y-144026840D01*
X192196889Y-144081320D01*
X192412429Y-144154364D01*
X192623983Y-144247211D01*
X192724016Y-144298233D01*
X193000682Y-144463458D01*
X193251301Y-144650486D01*
X193474947Y-144858051D01*
X193670694Y-145084885D01*
X193837616Y-145329722D01*
X193974788Y-145591294D01*
X194081282Y-145868334D01*
X194156173Y-146159574D01*
X194178340Y-146288257D01*
X194196258Y-146472919D01*
X194199863Y-146676245D01*
X194189615Y-146884971D01*
X194165973Y-147085830D01*
X194147192Y-147189266D01*
X194134832Y-147251351D01*
X194125281Y-147308541D01*
X194118195Y-147366643D01*
X194113232Y-147431463D01*
X194110049Y-147508810D01*
X194108303Y-147604489D01*
X194107651Y-147724308D01*
X194107716Y-147857687D01*
X194108711Y-148026250D01*
X194111254Y-148167804D01*
X194115756Y-148290498D01*
X194122634Y-148402484D01*
X194132299Y-148511913D01*
X194145167Y-148626937D01*
X194147901Y-148649238D01*
X194165896Y-148793740D01*
X194179949Y-148907359D01*
X194190168Y-148994155D01*
X194196659Y-149058190D01*
X194199528Y-149103528D01*
X194198883Y-149134230D01*
X194194830Y-149154358D01*
X194187475Y-149167974D01*
X194176926Y-149179140D01*
X194163288Y-149191919D01*
X194162177Y-149193023D01*
X194116696Y-149238504D01*
X193090196Y-149238504D01*
X192874455Y-149238476D01*
X192691133Y-149238332D01*
X192537473Y-149237978D01*
X192410715Y-149237323D01*
X192308099Y-149236274D01*
X192226866Y-149234738D01*
X192164256Y-149232623D01*
X192117510Y-149229837D01*
X192083869Y-149226287D01*
X192060573Y-149221881D01*
X192044862Y-149216527D01*
X192033978Y-149210131D01*
X192025413Y-149202837D01*
X191996051Y-149171212D01*
X191979624Y-149138863D01*
X191977014Y-149100259D01*
X191989105Y-149049870D01*
X192016780Y-148982166D01*
X192060923Y-148891617D01*
X192081561Y-148851306D01*
X192198406Y-148624743D01*
X192035387Y-148341620D01*
X191977792Y-148242126D01*
X191934494Y-148169368D01*
X191902516Y-148119433D01*
X191878879Y-148088412D01*
X191860607Y-148072391D01*
X191844723Y-148067460D01*
X191828393Y-148069670D01*
X191640833Y-148111768D01*
X191448251Y-148143332D01*
X191244241Y-148164941D01*
X191022397Y-148177178D01*
X190776312Y-148180621D01*
X190623327Y-148178883D01*
X190183427Y-148170472D01*
X190140705Y-148269135D01*
X190091283Y-148381571D01*
X190037141Y-148501825D01*
X189980451Y-148625347D01*
X189923388Y-148747591D01*
X189868126Y-148864009D01*
X189816837Y-148970055D01*
X189771696Y-149061179D01*
X189734876Y-149132835D01*
X189708552Y-149180476D01*
X189696695Y-149198046D01*
X189658687Y-149238504D01*
X188627008Y-149238504D01*
X187595329Y-149238504D01*
X187559704Y-149198926D01*
X187526138Y-149154530D01*
X187512151Y-149110735D01*
X187514645Y-149053695D01*
X187520020Y-149021605D01*
X187562145Y-148887338D01*
X187635029Y-148760243D01*
X187732905Y-148649294D01*
X187834386Y-148555340D01*
X187757792Y-148391209D01*
X187724935Y-148316317D01*
X187684346Y-148216977D01*
X187639077Y-148101363D01*
X187592184Y-147977648D01*
X187546719Y-147854007D01*
X187531975Y-147812492D01*
X187853047Y-147812492D01*
X187859473Y-147835685D01*
X187876933Y-147884457D01*
X187902692Y-147952010D01*
X187934021Y-148031545D01*
X187968187Y-148116265D01*
X188002459Y-148199373D01*
X188034104Y-148274071D01*
X188060392Y-148333561D01*
X188073831Y-148361895D01*
X188108743Y-148426182D01*
X188146623Y-148487939D01*
X188166358Y-148516354D01*
X188205137Y-148590162D01*
X188210196Y-148659218D01*
X188182991Y-148719122D01*
X188124979Y-148765475D01*
X188077532Y-148784495D01*
X188023998Y-148808809D01*
X187964332Y-148847767D01*
X187935278Y-148871572D01*
X187861842Y-148938030D01*
X188138433Y-148938752D01*
X188415024Y-148939473D01*
X188440411Y-148891101D01*
X188477784Y-148838412D01*
X188534635Y-148778692D01*
X188599957Y-148722467D01*
X188658138Y-148682841D01*
X188693195Y-148657493D01*
X188707957Y-148635803D01*
X188707412Y-148632047D01*
X188671639Y-148552295D01*
X188632047Y-148461303D01*
X188591712Y-148366458D01*
X188553713Y-148275146D01*
X188521129Y-148194754D01*
X188497037Y-148132668D01*
X188485340Y-148099156D01*
X188464802Y-148047548D01*
X188438471Y-148021546D01*
X188417423Y-148014420D01*
X188319553Y-147989475D01*
X188207576Y-147954250D01*
X188096015Y-147913784D01*
X187999396Y-147873119D01*
X187971779Y-147859763D01*
X187915500Y-147832772D01*
X187873645Y-147815668D01*
X187853736Y-147811445D01*
X187853047Y-147812492D01*
X187531975Y-147812492D01*
X187505737Y-147738614D01*
X187472291Y-147639643D01*
X187450046Y-147567451D01*
X187421312Y-147501292D01*
X187377536Y-147437078D01*
X187365522Y-147423695D01*
X187303275Y-147359094D01*
X187213168Y-147430819D01*
X187121041Y-147496407D01*
X187025011Y-147547340D01*
X186916968Y-147586666D01*
X186788798Y-147617435D01*
X186659556Y-147638912D01*
X186471536Y-147667610D01*
X186303036Y-147696994D01*
X186157949Y-147726279D01*
X186040169Y-147754678D01*
X185953588Y-147781406D01*
X185953557Y-147781418D01*
X185847535Y-147814557D01*
X185765588Y-147827413D01*
X185709521Y-147819778D01*
X185695049Y-147811193D01*
X185675602Y-147790825D01*
X185637775Y-147747530D01*
X185585315Y-147685732D01*
X185521966Y-147609856D01*
X185451473Y-147524328D01*
X185429451Y-147497398D01*
X185192797Y-147207470D01*
X185203610Y-147104003D01*
X185219856Y-146992412D01*
X185247083Y-146856249D01*
X185283318Y-146703647D01*
X185326586Y-146542742D01*
X185374911Y-146381667D01*
X185391278Y-146330940D01*
X185496659Y-146045746D01*
X185616094Y-145787798D01*
X185748769Y-145558239D01*
X185893868Y-145358211D01*
X186050578Y-145188856D01*
X186218083Y-145051315D01*
X186369082Y-144959894D01*
X186436855Y-144924451D01*
X186481892Y-144896428D01*
X186512771Y-144867211D01*
X186538069Y-144828186D01*
X186566365Y-144770739D01*
X186574283Y-144753836D01*
X186671852Y-144579717D01*
X186789081Y-144430319D01*
X186923467Y-144307802D01*
X187072502Y-144214330D01*
X187233681Y-144152063D01*
X187286634Y-144139244D01*
X187362659Y-144125216D01*
X187414543Y-144122118D01*
X187451996Y-144131290D01*
X187484724Y-144154071D01*
X187500090Y-144168713D01*
X187533288Y-144212101D01*
X187553100Y-144267792D01*
X187561734Y-144319561D01*
X187572288Y-144380909D01*
X187585126Y-144410159D01*
X187596902Y-144412893D01*
X187622462Y-144407789D01*
X187675229Y-144400335D01*
X187747390Y-144391549D01*
X187827407Y-144382833D01*
X187953668Y-144373645D01*
X188093946Y-144369839D01*
X188238825Y-144371137D01*
X188378891Y-144377260D01*
X188504728Y-144387930D01*
X188606923Y-144402869D01*
X188623856Y-144406379D01*
X188735040Y-144430978D01*
X188966862Y-144353294D01*
X189091425Y-144313329D01*
X189228631Y-144272366D01*
X189373118Y-144231731D01*
X189519525Y-144192748D01*
X189662490Y-144156744D01*
X189796651Y-144125044D01*
X189916647Y-144098972D01*
X190017117Y-144079854D01*
X190092699Y-144069016D01*
X190124896Y-144067036D01*
X190184716Y-144083031D01*
X190232425Y-144125029D01*
X190259597Y-144184043D01*
X190262880Y-144214188D01*
X190246495Y-144276774D01*
X190200166Y-144327414D01*
X190128134Y-144362471D01*
X190076170Y-144374244D01*
X189993287Y-144389431D01*
X189883548Y-144413665D01*
X189753581Y-144445207D01*
X189610018Y-144482316D01*
X189459486Y-144523254D01*
X189308615Y-144566279D01*
X189164034Y-144609654D01*
X189087837Y-144633592D01*
X188748321Y-144742299D01*
X188595317Y-144710434D01*
X188382759Y-144678951D01*
X188151814Y-144668035D01*
X187912935Y-144678112D01*
X187878409Y-144681326D01*
X187793881Y-144690183D01*
X187720556Y-144698666D01*
X187666474Y-144705791D01*
X187640081Y-144710453D01*
X187628852Y-144718603D01*
X187620345Y-144738976D01*
X187613859Y-144776607D01*
X187608692Y-144836527D01*
X187604142Y-144923770D01*
X187601600Y-144986502D01*
X187594206Y-145129526D01*
X187583377Y-145241579D01*
X187567861Y-145326802D01*
X187546402Y-145389337D01*
X187517749Y-145433325D01*
X187480645Y-145462908D01*
X187453532Y-145475571D01*
X187396067Y-145480534D01*
X187337169Y-145459141D01*
X187289951Y-145417067D01*
X187279495Y-145400250D01*
X187264286Y-145363374D01*
X187261598Y-145326526D01*
X187271024Y-145275033D01*
X187275510Y-145257039D01*
X187283892Y-145204417D01*
X187290328Y-145124837D01*
X187294732Y-145026473D01*
X187297018Y-144917497D01*
X187297100Y-144806085D01*
X187294892Y-144700407D01*
X187290307Y-144608639D01*
X187283260Y-144538953D01*
X187283088Y-144537801D01*
X187270490Y-144454481D01*
X187187944Y-144496310D01*
X187079049Y-144570043D01*
X186979474Y-144674313D01*
X186891535Y-144805181D01*
X186817548Y-144958710D01*
X186759829Y-145130959D01*
X186726721Y-145280748D01*
X186704309Y-145371304D01*
X186672077Y-145431165D01*
X186626821Y-145464190D01*
X186565908Y-145474238D01*
X186494841Y-145459260D01*
X186443978Y-145416126D01*
X186418368Y-145355953D01*
X186409287Y-145315061D01*
X186404107Y-145292077D01*
X186390805Y-145293341D01*
X186359252Y-145316466D01*
X186314170Y-145356673D01*
X186260282Y-145409178D01*
X186202311Y-145469202D01*
X186144979Y-145531963D01*
X186093009Y-145592679D01*
X186051123Y-145646570D01*
X186043957Y-145656706D01*
X185960276Y-145789760D01*
X185875410Y-145946573D01*
X185794789Y-146116354D01*
X185723842Y-146288310D01*
X185716732Y-146307244D01*
X185683973Y-146402123D01*
X185648784Y-146515332D01*
X185613559Y-146637965D01*
X185580694Y-146761115D01*
X185552585Y-146875875D01*
X185531628Y-146973337D01*
X185521680Y-147032424D01*
X185510101Y-147119711D01*
X185664516Y-147309625D01*
X185728474Y-147387028D01*
X185775252Y-147440016D01*
X185808803Y-147472299D01*
X185833078Y-147487587D01*
X185852030Y-147489593D01*
X185855345Y-147488781D01*
X185940708Y-147466253D01*
X186051480Y-147441000D01*
X186178193Y-147414917D01*
X186311380Y-147389898D01*
X186441574Y-147367837D01*
X186516205Y-147356538D01*
X186614544Y-147341443D01*
X186707276Y-147325354D01*
X186785491Y-147309942D01*
X186840280Y-147296881D01*
X186850415Y-147293804D01*
X186970803Y-147235773D01*
X187083641Y-147145073D01*
X187187693Y-147023646D01*
X187281724Y-146873430D01*
X187364499Y-146696368D01*
X187434784Y-146494398D01*
X187485760Y-146295601D01*
X187506186Y-146206172D01*
X187523572Y-146144710D01*
X187541237Y-146104580D01*
X187562498Y-146079149D01*
X187590674Y-146061782D01*
X187606114Y-146054987D01*
X187672887Y-146044341D01*
X187734427Y-146064764D01*
X187781571Y-146112363D01*
X187792780Y-146134258D01*
X187802943Y-146165375D01*
X187806213Y-146200113D01*
X187802155Y-146247231D01*
X187790337Y-146315487D01*
X187781643Y-146359001D01*
X187721688Y-146591000D01*
X187638642Y-146821528D01*
X187568163Y-146976203D01*
X187498424Y-147114942D01*
X187592183Y-147211424D01*
X187720138Y-147329218D01*
X187867254Y-147441709D01*
X188020340Y-147539418D01*
X188125692Y-147594748D01*
X188212737Y-147636377D01*
X188275035Y-147664607D01*
X188315314Y-147676303D01*
X188336303Y-147668334D01*
X188340728Y-147637566D01*
X188331318Y-147580866D01*
X188310800Y-147495101D01*
X188289097Y-147407068D01*
X188260833Y-147285976D01*
X188242798Y-147193717D01*
X188235384Y-147125351D01*
X188238981Y-147075936D01*
X188253980Y-147040528D01*
X188280771Y-147014187D01*
X188319744Y-146991971D01*
X188321989Y-146990895D01*
X188364473Y-146973811D01*
X188397519Y-146974001D01*
X188441017Y-146991615D01*
X188441389Y-146991792D01*
X188462542Y-147001990D01*
X188479338Y-147012756D01*
X188493487Y-147028544D01*
X188506701Y-147053809D01*
X188520688Y-147093003D01*
X188537160Y-147150582D01*
X188557827Y-147230999D01*
X188584398Y-147338707D01*
X188601645Y-147409141D01*
X188677427Y-147697720D01*
X188755267Y-147952657D01*
X188835745Y-148175457D01*
X188919437Y-148367627D01*
X189006924Y-148530673D01*
X189068799Y-148625568D01*
X189099796Y-148693364D01*
X189097401Y-148758371D01*
X189063396Y-148817118D01*
X188999561Y-148866131D01*
X188930436Y-148895298D01*
X188879775Y-148912652D01*
X188846232Y-148926476D01*
X188838088Y-148932092D01*
X188854774Y-148934399D01*
X188901216Y-148936411D01*
X188971991Y-148938008D01*
X189061674Y-148939069D01*
X189164843Y-148939472D01*
X189169720Y-148939473D01*
X189501352Y-148939473D01*
X189594280Y-148741585D01*
X189724094Y-148460158D01*
X189844655Y-148188761D01*
X189940050Y-147964765D01*
X192164673Y-147964765D01*
X192339539Y-148266734D01*
X192407586Y-148386404D01*
X192457643Y-148479646D01*
X192491125Y-148549374D01*
X192509446Y-148598506D01*
X192514157Y-148626561D01*
X192504909Y-148673436D01*
X192480063Y-148739218D01*
X192444123Y-148812440D01*
X192374336Y-148940462D01*
X192612469Y-148935570D01*
X192850602Y-148930678D01*
X192903669Y-148770878D01*
X192956736Y-148611077D01*
X192823189Y-148424752D01*
X192776361Y-148357541D01*
X192722486Y-148277207D01*
X192665269Y-148189630D01*
X192608420Y-148100686D01*
X192555648Y-148016254D01*
X192510659Y-147942212D01*
X192477162Y-147884436D01*
X192458866Y-147848806D01*
X192457369Y-147844891D01*
X192440432Y-147845077D01*
X192399310Y-147858370D01*
X192341315Y-147882201D01*
X192308470Y-147897174D01*
X192164673Y-147964765D01*
X189940050Y-147964765D01*
X189953792Y-147932497D01*
X190049328Y-147696466D01*
X190127073Y-147491331D01*
X190162444Y-147433913D01*
X190211930Y-147402399D01*
X190267961Y-147394993D01*
X190322967Y-147409895D01*
X190369379Y-147445309D01*
X190399629Y-147499436D01*
X190407018Y-147557823D01*
X190399646Y-147604091D01*
X190382478Y-147668608D01*
X190360008Y-147735232D01*
X190339479Y-147794692D01*
X190327069Y-147840632D01*
X190325176Y-147863993D01*
X190325705Y-147864787D01*
X190345449Y-147867577D01*
X190395579Y-147869988D01*
X190471301Y-147871925D01*
X190567821Y-147873291D01*
X190680345Y-147873993D01*
X190787672Y-147873986D01*
X190969198Y-147872374D01*
X191122845Y-147868182D01*
X191255866Y-147860682D01*
X191375513Y-147849145D01*
X191489040Y-147832842D01*
X191603698Y-147811045D01*
X191726741Y-147783025D01*
X191750386Y-147777252D01*
X191862467Y-147745741D01*
X191981559Y-147705652D01*
X192096569Y-147661199D01*
X192196403Y-147616593D01*
X192253771Y-147586092D01*
X192318553Y-147547779D01*
X192275796Y-147434182D01*
X192252299Y-147362374D01*
X192230324Y-147278705D01*
X192211508Y-147191831D01*
X192197487Y-147110405D01*
X192189900Y-147043081D01*
X192190383Y-146998511D01*
X192192058Y-146991647D01*
X192227674Y-146932208D01*
X192280506Y-146892908D01*
X192330403Y-146881440D01*
X192401150Y-146896649D01*
X192453169Y-146940585D01*
X192483867Y-147010717D01*
X192488444Y-147035839D01*
X192527029Y-147219299D01*
X192595055Y-147419320D01*
X192691771Y-147634406D01*
X192816425Y-147863059D01*
X192968266Y-148103783D01*
X193146545Y-148355080D01*
X193157718Y-148369999D01*
X193228446Y-148467934D01*
X193276300Y-148544596D01*
X193302620Y-148604238D01*
X193308743Y-148651110D01*
X193296008Y-148689462D01*
X193268348Y-148721269D01*
X193222990Y-148780929D01*
X193183098Y-148874481D01*
X193174952Y-148899896D01*
X193162864Y-148939473D01*
X193515850Y-148939473D01*
X193635734Y-148939299D01*
X193724946Y-148938498D01*
X193787995Y-148936648D01*
X193829387Y-148933329D01*
X193853631Y-148928122D01*
X193865235Y-148920605D01*
X193868707Y-148910359D01*
X193868836Y-148906559D01*
X193866824Y-148877846D01*
X193861298Y-148821467D01*
X193853021Y-148744676D01*
X193842757Y-148654724D01*
X193838747Y-148620721D01*
X193827509Y-148509487D01*
X193819036Y-148385550D01*
X193813109Y-148243466D01*
X193809508Y-148077789D01*
X193808012Y-147883075D01*
X193807964Y-147857687D01*
X193807946Y-147706805D01*
X193808565Y-147585533D01*
X193810146Y-147488303D01*
X193813016Y-147409547D01*
X193817502Y-147343695D01*
X193823929Y-147285180D01*
X193832624Y-147228433D01*
X193843913Y-147167886D01*
X193850216Y-147136495D01*
X193875432Y-146976719D01*
X193890642Y-146801271D01*
X193895684Y-146621166D01*
X193890393Y-146447419D01*
X193874607Y-146291045D01*
X193863661Y-146227404D01*
X193790167Y-145947325D01*
X193685840Y-145684002D01*
X193551134Y-145438102D01*
X193386504Y-145210294D01*
X193192402Y-145001245D01*
X192969282Y-144811623D01*
X192839017Y-144718960D01*
X192648544Y-144599959D01*
X192461160Y-144501136D01*
X192271961Y-144421284D01*
X192076048Y-144359198D01*
X191868518Y-144313675D01*
X191644471Y-144283507D01*
X191399005Y-144267490D01*
X191127218Y-144264419D01*
X191000182Y-144266801D01*
X190585337Y-144277801D01*
X190547239Y-144237247D01*
X190514346Y-144178989D01*
X190510555Y-144113353D01*
X190535500Y-144052146D01*
X190553616Y-144031385D01*
X190580865Y-144011660D01*
X190618592Y-143995941D01*
X190670603Y-143983809D01*
X190740702Y-143974846D01*
X190832693Y-143968634D01*
X190950379Y-143964754D01*
X191097565Y-143962788D01*
X191181059Y-143962399D01*
X191469450Y-143968618D01*
G37*
D12*
%TO.C,J7*%
X169070000Y-122810000D02*
X189390000Y-122810000D01*
X169070000Y-125350000D02*
X169070000Y-122810000D01*
X189390000Y-122810000D02*
X189390000Y-125350000D01*
X189390000Y-125350000D02*
X169070000Y-125350000D01*
D10*
X170340000Y-125830000D02*
G75*
G02*
X170240000Y-125830000I-50000J0D01*
G01*
X170240000Y-125830000D02*
G75*
G02*
X170340000Y-125830000I50000J0D01*
G01*
%TO.C,S3*%
X193150000Y-132600000D02*
X193150000Y-138200000D01*
X197650000Y-132300000D02*
X194850000Y-132300000D01*
X197650000Y-138500000D02*
X194850000Y-138500000D01*
D12*
X198450000Y-130200000D02*
X198450000Y-130200000D01*
X198550000Y-130200000D02*
X198550000Y-130200000D01*
D10*
X199350000Y-132600000D02*
X199350000Y-138200000D01*
D12*
X198450000Y-130200000D02*
G75*
G02*
X198550000Y-130200000I50000J0D01*
G01*
X198550000Y-130200000D02*
G75*
G02*
X198450000Y-130200000I-50000J0D01*
G01*
D10*
%TO.C,U2*%
X164400000Y-129400000D02*
X164400000Y-133000000D01*
X164400000Y-137800000D02*
X164400000Y-141400000D01*
D12*
X167750000Y-145500000D02*
X167750000Y-145500000D01*
X167750000Y-145600000D02*
X167750000Y-145600000D01*
D10*
X168750000Y-128300000D02*
X171750000Y-128300000D01*
X176100000Y-129400000D02*
X176100000Y-133000000D01*
X176100000Y-137800000D02*
X176100000Y-141400000D01*
D12*
X167750000Y-145500000D02*
G75*
G02*
X167750000Y-145600000I0J-50000D01*
G01*
X167750000Y-145600000D02*
G75*
G02*
X167750000Y-145500000I0J50000D01*
G01*
D10*
%TO.C,S2*%
X181150000Y-132600000D02*
X181150000Y-138200000D01*
X185650000Y-132300000D02*
X182850000Y-132300000D01*
X185650000Y-138500000D02*
X182850000Y-138500000D01*
D12*
X186450000Y-130200000D02*
X186450000Y-130200000D01*
X186550000Y-130200000D02*
X186550000Y-130200000D01*
D10*
X187350000Y-132600000D02*
X187350000Y-138200000D01*
D12*
X186450000Y-130200000D02*
G75*
G02*
X186550000Y-130200000I50000J0D01*
G01*
X186550000Y-130200000D02*
G75*
G02*
X186450000Y-130200000I-50000J0D01*
G01*
%TD*%
M02*
