M48
; DRILL file {KiCad 9.0.3} date 2025-10-10T19:55:03+0200
; FORMAT={-:-/ absolute / metric / decimal}
; #@! TF.CreationDate,2025-10-10T19:55:03+02:00
; #@! TF.GenerationSoftware,Kicad,Pcbnew,9.0.3
; #@! TF.FileFunction,Plated,1,2,PTH
FMAT,2
METRIC
; #@! TA.AperFunction,Plated,PTH,ViaDrill
T1C0.300
; #@! TA.AperFunction,Plated,PTH,ComponentDrill
T2C1.000
; #@! TA.AperFunction,Plated,PTH,ComponentDrill
T3C1.020
; #@! TA.AperFunction,Plated,PTH,ComponentDrill
T4C1.100
%
G90
G05
T1
X161.75Y-80.0
X161.75Y-80.75
X161.75Y-81.5
X161.75Y-82.25
X161.75Y-83.0
X161.75Y-83.75
X161.75Y-84.5
X161.75Y-85.25
X161.85Y-107.96
X161.9Y-126.3
X162.25Y-133.0
X162.5Y-80.0
X162.5Y-80.75
X162.5Y-81.5
X162.5Y-82.25
X162.5Y-83.0
X162.5Y-83.75
X162.5Y-84.5
X162.5Y-85.25
X162.6Y-91.2
X162.6Y-92.0
X163.0Y-133.0
X163.0Y-140.0
X163.096Y-142.815
X163.4Y-90.4
X163.4Y-91.2
X163.4Y-92.0
X163.5Y-102.5
X163.5Y-103.25
X163.5Y-104.0
X163.5Y-104.75
X164.3Y-102.5
X164.3Y-103.25
X164.3Y-104.0
X164.3Y-104.75
X164.65Y-112.6
X165.1Y-125.5
X165.43Y-89.24
X165.5Y-141.2
X165.85Y-130.2
X166.0Y-112.4
X166.2Y-123.8
X166.253Y-113.159
X166.35Y-137.55
X166.4Y-120.8
X166.45Y-117.7
X166.534Y-76.85
X166.6Y-130.2
X166.6Y-132.8
X167.15Y-90.95
X167.15Y-112.4
X167.2Y-117.7
X167.4Y-132.8
X167.711Y-122.15
X167.9Y-93.3
X168.287Y-122.849
X168.45Y-124.9
X168.822Y-77.321
X169.0Y-75.4
X169.2Y-142.9
X169.35Y-125.95
X169.45Y-130.2
X169.532Y-76.95
X170.0Y-113.75
X170.0Y-116.0
X170.0Y-118.25
X170.0Y-120.5
X170.1Y-68.05
X170.1Y-68.75
X170.2Y-127.4
X170.2Y-130.2
X170.494Y-77.024
X170.5Y-97.25
X170.85Y-68.05
X170.85Y-68.75
X171.15Y-131.4
X171.368Y-138.35
X171.45Y-72.4
X171.45Y-75.2
X171.6Y-68.05
X171.6Y-68.75
X171.95Y-132.9
X172.0Y-134.3
X172.1Y-83.9
X172.2Y-72.4
X172.2Y-75.2
X172.35Y-68.05
X172.35Y-68.75
X172.95Y-72.4
X172.95Y-75.2
X173.1Y-68.05
X173.1Y-68.75
X173.45Y-126.5
X173.47Y-137.425
X173.5Y-112.6
X173.639Y-140.542
X173.7Y-72.4
X173.7Y-75.2
X173.85Y-68.05
X173.85Y-68.75
X174.1Y-112.0
X174.3Y-97.5
X174.6Y-68.05
X174.6Y-68.75
X174.7Y-84.5
X174.7Y-111.4
X174.913Y-115.613
X175.2Y-86.1
X175.35Y-68.05
X175.35Y-68.75
X175.5Y-110.6
X175.6Y-114.95
X175.6Y-138.6
X175.6Y-139.35
X175.9Y-86.1
X176.1Y-68.05
X176.1Y-68.75
X176.104Y-119.554
X176.6Y-91.5
X176.6Y-92.5
X176.6Y-93.5
X176.6Y-115.3
X176.8Y-133.2
X176.85Y-68.05
X176.85Y-68.75
X176.895Y-144.706
X177.0Y-119.4
X177.005Y-141.6
X177.35Y-116.469
X177.46Y-145.4
X177.525Y-105.984
X177.6Y-68.05
X177.6Y-68.75
X177.65Y-121.45
X177.7Y-107.7
X177.86Y-115.96
X177.932Y-118.55
X178.0Y-95.0
X178.0Y-111.65
X178.0Y-112.65
X178.05Y-119.341
X178.068Y-113.475
X178.1Y-141.497
X178.7Y-78.2
X178.7Y-80.4
X178.95Y-113.569
X179.2Y-135.25
X179.3Y-102.3
X179.4Y-78.2
X179.4Y-80.4
X179.4Y-144.0
X179.507Y-103.593
X179.6Y-127.4
X179.75Y-130.196
X180.1Y-78.2
X180.1Y-80.4
X180.2Y-120.7
X180.201Y-114.943
X180.3Y-113.6
X180.397Y-99.234
X180.55Y-144.35
X180.75Y-89.5
X180.75Y-90.3
X180.8Y-78.2
X180.8Y-80.4
X180.85Y-131.632
X180.85Y-114.381
X180.9Y-83.5
X180.95Y-120.7
X180.95Y-140.6
X181.001Y-112.999
X181.116Y-117.416
X181.313Y-99.213
X181.5Y-80.4
X181.5Y-89.5
X181.5Y-90.3
X181.665Y-105.515
X181.85Y-102.1
X182.1Y-106.3
X182.25Y-89.5
X182.25Y-90.3
X182.4Y-105.2
X182.4Y-141.497
X182.4Y-145.1
X182.401Y-114.399
X182.5Y-143.8
X182.7Y-125.9
X182.828Y-134.428
X183.189Y-121.366
X183.25Y-99.401
X183.4Y-139.5
X183.485Y-145.102
X183.55Y-131.85
X183.9Y-103.6
X184.0Y-105.55
X184.013Y-143.221
X184.35Y-126.0
X184.5Y-97.5
X184.75Y-140.4
X184.9Y-106.9
X185.25Y-87.75
X185.25Y-88.5
X185.25Y-89.5
X185.25Y-90.25
X185.25Y-126.0
X185.35Y-96.25
X185.4Y-128.25
X185.46Y-94.763
X186.0Y-87.75
X186.0Y-88.5
X186.0Y-89.5
X186.0Y-90.25
X186.0Y-119.6
X186.0Y-126.0
X186.1Y-121.6
X186.4Y-92.0
X186.4Y-93.75
X186.4Y-96.275
X186.415Y-120.865
X186.544Y-113.8
X186.545Y-112.3
X186.6Y-110.3
X186.7Y-108.0
X186.75Y-87.75
X186.75Y-88.5
X186.75Y-89.5
X186.75Y-90.25
X186.8Y-119.425
X187.29Y-110.91
X187.4Y-94.25
X187.5Y-126.0
X187.8Y-139.4
X187.85Y-111.55
X188.2Y-132.525
X188.25Y-126.0
X188.35Y-121.6
X189.005Y-120.96
X189.55Y-108.85
X189.8Y-113.8
X190.037Y-116.7
X190.625Y-91.375
X190.8Y-109.75
X191.075Y-137.25
X191.15Y-135.75
X191.15Y-132.5
X191.25Y-125.5
X191.4Y-121.8
X191.75Y-126.55
X191.75Y-130.25
X191.8Y-132.5
X191.9Y-146.55
X192.65Y-146.55
X192.75Y-80.0
X192.75Y-80.75
X192.9Y-111.035
X192.9Y-115.535
X192.9Y-120.035
X193.4Y-146.55
X193.5Y-80.0
X193.5Y-80.75
X193.7Y-113.735
X193.7Y-118.485
X193.7Y-122.485
X194.25Y-80.0
X194.25Y-80.75
X194.4Y-128.65
X195.0Y-80.0
X195.0Y-80.75
X195.35Y-131.35
X195.75Y-80.0
X195.894Y-118.991
X195.904Y-114.481
X195.909Y-110.007
X197.2Y-120.66
X197.258Y-122.485
X197.5Y-125.75
X197.5Y-126.5
X197.5Y-127.25
X198.2Y-124.25
X198.2Y-125.0
X198.2Y-125.75
X198.2Y-126.5
X198.2Y-127.25
X198.9Y-124.25
X198.9Y-125.0
X198.9Y-125.75
X198.9Y-126.5
X198.9Y-127.25
T2
X162.5Y-109.31
X162.5Y-111.85
X162.5Y-114.39
X162.5Y-116.93
X162.5Y-119.47
X162.5Y-122.01
X194.135Y-124.1
X196.675Y-124.1
T3
X162.25Y-72.925
X162.25Y-75.465
X162.5Y-124.55
X170.34Y-124.08
X172.88Y-124.08
X175.42Y-124.08
X177.96Y-124.08
X180.5Y-124.08
X183.04Y-124.08
X185.58Y-124.08
X188.12Y-124.08
X190.66Y-124.08
X198.75Y-72.925
X198.75Y-75.465
T4
X196.25Y-78.2
X196.25Y-81.7
X196.25Y-85.2
X196.25Y-88.7
X196.25Y-92.2
X196.25Y-95.7
X196.25Y-99.2
X196.25Y-102.7
X196.25Y-106.2
M30
