%TF.GenerationSoftware,KiCad,Pcbnew,9.0.3*%
%TF.CreationDate,2025-10-10T19:55:00+02:00*%
%TF.ProjectId,AxxSolder,41787853-6f6c-4646-9572-2e6b69636164,rev?*%
%TF.SameCoordinates,Original*%
%TF.FileFunction,Copper,L1,Top*%
%TF.FilePolarity,Positive*%
%FSLAX46Y46*%
G04 Gerber Fmt 4.6, Leading zero omitted, Abs format (unit mm)*
G04 Created by KiCad (PCBNEW 9.0.3) date 2025-10-10 19:55:00*
%MOMM*%
%LPD*%
G01*
G04 APERTURE LIST*
%TA.AperFunction,ComponentPad*%
%ADD10C,1.550000*%
%TD*%
%TA.AperFunction,SMDPad,CuDef*%
%ADD11R,1.300000X1.550000*%
%TD*%
%TA.AperFunction,SMDPad,CuDef*%
%ADD12R,1.300000X2.400000*%
%TD*%
%TA.AperFunction,SMDPad,CuDef*%
%ADD13R,3.750000X4.000000*%
%TD*%
%TA.AperFunction,SMDPad,CuDef*%
%ADD14R,2.500000X3.200000*%
%TD*%
%TA.AperFunction,SMDPad,CuDef*%
%ADD15R,2.500000X2.700000*%
%TD*%
%TA.AperFunction,ComponentPad*%
%ADD16R,1.650000X1.650000*%
%TD*%
%TA.AperFunction,ComponentPad*%
%ADD17C,1.650000*%
%TD*%
%TA.AperFunction,ComponentPad*%
%ADD18R,1.700000X1.700000*%
%TD*%
%TA.AperFunction,ComponentPad*%
%ADD19O,1.700000X1.700000*%
%TD*%
%TA.AperFunction,ViaPad*%
%ADD20C,0.600000*%
%TD*%
%TA.AperFunction,Conductor*%
%ADD21C,0.600000*%
%TD*%
%TA.AperFunction,Conductor*%
%ADD22C,0.300000*%
%TD*%
%TA.AperFunction,Conductor*%
%ADD23C,1.800000*%
%TD*%
G04 APERTURE END LIST*
D10*
%TO.P,TP18,1,1*%
%TO.N,/SD_CS*%
X190660000Y-124080000D03*
%TD*%
D11*
%TO.P,S1,1*%
%TO.N,/S1*%
X172500000Y-131425000D03*
%TO.P,S1,2*%
%TO.N,+3.3V*%
X168000000Y-131425000D03*
%TO.P,S1,3*%
%TO.N,N/C*%
X172500000Y-139375000D03*
%TO.P,S1,4*%
X168000000Y-139375000D03*
%TD*%
D10*
%TO.P,J7,1,Pin_1*%
%TO.N,+3.3V*%
X170340000Y-124080000D03*
%TO.P,J7,2,Pin_2*%
%TO.N,GND*%
X172880000Y-124080000D03*
%TO.P,J7,3,Pin_3*%
%TO.N,/SPI_SCK*%
X175420000Y-124080000D03*
%TO.P,J7,4,Pin_4*%
%TO.N,unconnected-(J7-Pin_4-Pad4)*%
X177960000Y-124080000D03*
%TO.P,J7,5,Pin_5*%
%TO.N,/SPI_MOSI*%
X180500000Y-124080000D03*
%TO.P,J7,6,Pin_6*%
%TO.N,/SPI_CS*%
X183040000Y-124080000D03*
%TO.P,J7,7,Pin_7*%
%TO.N,/SPI_RST*%
X185580000Y-124080000D03*
%TO.P,J7,8,Pin_8*%
%TO.N,/SPI_DC*%
X188120000Y-124080000D03*
%TD*%
D11*
%TO.P,S3,1*%
%TO.N,Net-(R46-Pad2)*%
X198500000Y-131425000D03*
%TO.P,S3,2*%
%TO.N,+3.3V*%
X194000000Y-131425000D03*
%TO.P,S3,3*%
%TO.N,N/C*%
X198500000Y-139375000D03*
%TO.P,S3,4*%
X194000000Y-139375000D03*
%TD*%
D12*
%TO.P,U2,A1*%
%TO.N,Net-(R47-Pad2)*%
X167750000Y-142700000D03*
%TO.P,U2,B1*%
%TO.N,GND*%
X170250000Y-142700000D03*
%TO.P,U2,C1*%
%TO.N,Net-(R48-Pad2)*%
X172750000Y-142700000D03*
%TO.P,U2,D1*%
%TO.N,+3.3V*%
X167750000Y-128400000D03*
%TO.P,U2,E1*%
%TO.N,/S1*%
X172750000Y-128400000D03*
D13*
%TO.P,U2,MP*%
%TO.N,GND*%
X163875000Y-135400000D03*
D14*
X165250000Y-127500000D03*
D15*
X165250000Y-143050000D03*
D14*
X175250000Y-127500000D03*
D15*
X175250000Y-143050000D03*
D13*
X176625000Y-135400000D03*
%TD*%
D10*
%TO.P,TP13,1,1*%
%TO.N,/USART_RX*%
X162500000Y-124550000D03*
%TD*%
%TO.P,J6,1,Pin_1*%
%TO.N,unconnected-(J6-Pin_1-Pad1)*%
X198750000Y-72925000D03*
%TO.P,J6,2,Pin_2*%
%TO.N,unconnected-(J6-Pin_2-Pad2)*%
X198750000Y-75465000D03*
%TD*%
D11*
%TO.P,S2,1*%
%TO.N,Net-(R43-Pad2)*%
X186500000Y-131425000D03*
%TO.P,S2,2*%
%TO.N,+3.3V*%
X182000000Y-131425000D03*
%TO.P,S2,3*%
%TO.N,N/C*%
X186500000Y-139375000D03*
%TO.P,S2,4*%
X182000000Y-139375000D03*
%TD*%
D10*
%TO.P,J5,1,Pin_1*%
%TO.N,unconnected-(J5-Pin_1-Pad1)*%
X162250000Y-72925000D03*
%TO.P,J5,2,Pin_2*%
%TO.N,unconnected-(J5-Pin_2-Pad2)*%
X162250000Y-75465000D03*
%TD*%
D16*
%TO.P,J2,1,1*%
%TO.N,/S_sense*%
X196250000Y-106200000D03*
D17*
%TO.P,J2,2,2*%
%TO.N,/H_sense2*%
X196250000Y-102700000D03*
%TO.P,J2,3,3*%
%TO.N,/H_sense1*%
X196250000Y-99200000D03*
%TO.P,J2,4,4*%
%TO.N,Earth*%
X196250000Y-95700000D03*
%TO.P,J2,5,5*%
%TO.N,/GREEN*%
X196250000Y-92200000D03*
%TO.P,J2,6,6*%
%TO.N,/BLUE*%
X196250000Y-88700000D03*
%TO.P,J2,7,7*%
%TO.N,/RED*%
X196250000Y-85200000D03*
%TO.P,J2,8,8*%
%TO.N,GND*%
X196250000Y-81700000D03*
%TO.P,J2,9,9*%
%TO.N,/VDD_IN*%
X196250000Y-78200000D03*
%TD*%
D18*
%TO.P,J3,1,Pin_1*%
%TO.N,GND*%
X196675000Y-124100000D03*
D19*
%TO.P,J3,2,Pin_2*%
%TO.N,/USR4*%
X194135000Y-124100000D03*
%TD*%
D18*
%TO.P,J4,1,Pin_1*%
%TO.N,GND*%
X162500000Y-109310000D03*
D19*
%TO.P,J4,2,Pin_2*%
%TO.N,+3.3V*%
X162500000Y-111850000D03*
%TO.P,J4,3,Pin_3*%
%TO.N,/NRST*%
X162500000Y-114390000D03*
%TO.P,J4,4,Pin_4*%
%TO.N,/SWCLK*%
X162500000Y-116930000D03*
%TO.P,J4,5,Pin_5*%
%TO.N,/SWDIO*%
X162500000Y-119470000D03*
%TO.P,J4,6,Pin_6*%
%TO.N,/USART_TX*%
X162500000Y-122010000D03*
%TD*%
D20*
%TO.N,+3.3V*%
X190037500Y-116700000D03*
X186400000Y-96275000D03*
X189550000Y-108850000D03*
X177859620Y-115959620D03*
X181313003Y-99213239D03*
X186400000Y-93750000D03*
X172000000Y-134300000D03*
X177350000Y-116469240D03*
X191750000Y-126550000D03*
X193700000Y-122485000D03*
X193700000Y-118485000D03*
X174300000Y-97500000D03*
X191750000Y-130250000D03*
X164650000Y-112600000D03*
X193700000Y-113735000D03*
X183550250Y-131850251D03*
%TO.N,/SWCLK*%
X177460268Y-145400000D03*
X182500000Y-143800000D03*
X163095552Y-142814791D03*
X166400000Y-120800000D03*
X175600000Y-114950000D03*
%TO.N,/SWDIO*%
X167710770Y-122150000D03*
X161900000Y-126300000D03*
X176894620Y-144706460D03*
X179400000Y-144000000D03*
X176600000Y-115300000D03*
%TO.N,/RED*%
X190625000Y-91375000D03*
%TO.N,/SPI_SCK*%
X183189202Y-121365547D03*
%TO.N,GND*%
X176800000Y-133200000D03*
X185460336Y-94763100D03*
X180800000Y-80400000D03*
X162500000Y-81500000D03*
X173450000Y-126500000D03*
X179600000Y-127400000D03*
X180550000Y-144350000D03*
X165850000Y-130200000D03*
X193500000Y-80750000D03*
X176850000Y-68050000D03*
X176600000Y-93500000D03*
X161750000Y-85250000D03*
X179400000Y-78200000D03*
X176600000Y-91500000D03*
X173850000Y-68050000D03*
X172200000Y-75200000D03*
X173700000Y-72400000D03*
X164300000Y-102500000D03*
X174600000Y-68750000D03*
X163500000Y-104000000D03*
X161750000Y-83750000D03*
X186000000Y-126000000D03*
X162500000Y-82250000D03*
X161750000Y-82250000D03*
X195904352Y-114480648D03*
X175200000Y-86100000D03*
X187400000Y-94250000D03*
X186750000Y-89500000D03*
X161750000Y-84500000D03*
X179400000Y-80400000D03*
X182250000Y-89500000D03*
X175600000Y-139350000D03*
X184000000Y-105550000D03*
X170100000Y-68750000D03*
X174700000Y-84500000D03*
X162500000Y-85250000D03*
X163000000Y-140000000D03*
X163400000Y-91200000D03*
X192750000Y-80750000D03*
X177600000Y-68050000D03*
X186750000Y-87750000D03*
X166450000Y-117700000D03*
X162500000Y-80750000D03*
X171950000Y-132900000D03*
X163500000Y-104750000D03*
X186750000Y-90250000D03*
X180200000Y-120700000D03*
X167200000Y-117700000D03*
X192900000Y-111035000D03*
X170850000Y-68050000D03*
X180800000Y-78200000D03*
X163400000Y-90400000D03*
X187500000Y-126000000D03*
X163400000Y-92000000D03*
X165100000Y-125499998D03*
X162500000Y-83000000D03*
X188350000Y-121600000D03*
X191800000Y-132500000D03*
X172950000Y-72400000D03*
X173100000Y-68050000D03*
X182700000Y-125900000D03*
X195350000Y-131350000D03*
X178700000Y-78200000D03*
X194400000Y-128650000D03*
X191250000Y-125500000D03*
X164300000Y-104750000D03*
X172950000Y-75200000D03*
X174600000Y-68050000D03*
X180950000Y-120700000D03*
X167150000Y-90950000D03*
X161750000Y-81500000D03*
X181500000Y-80400000D03*
X193500000Y-80000000D03*
X180750000Y-89500000D03*
X191075000Y-137250000D03*
X186000000Y-90250000D03*
X192900000Y-115535000D03*
X166600000Y-132800000D03*
X185250000Y-88500000D03*
X197258409Y-122485000D03*
X176600000Y-92500000D03*
X162250000Y-133000000D03*
X186100000Y-121600000D03*
X191900000Y-146550000D03*
X170200000Y-130200000D03*
X181500000Y-90300000D03*
X174700000Y-111400000D03*
X186750000Y-88500000D03*
X177600000Y-68750000D03*
X173850000Y-68750000D03*
X180900000Y-83500000D03*
X195000000Y-80750000D03*
X179506990Y-103593010D03*
X173700000Y-75200000D03*
X185250000Y-87750000D03*
X186545379Y-112300000D03*
X186400000Y-92000000D03*
X162600000Y-92000000D03*
X161750000Y-80000000D03*
X194250000Y-80750000D03*
X194250000Y-80000000D03*
X185250000Y-89500000D03*
X188250000Y-126000000D03*
X183400000Y-139500000D03*
X162500000Y-83750000D03*
X186000000Y-88500000D03*
X165430000Y-89240000D03*
X195000000Y-80000000D03*
X175350000Y-68750000D03*
X171367566Y-138350000D03*
X177005000Y-141600000D03*
X180100000Y-80400000D03*
X177931739Y-118550000D03*
X164300000Y-103250000D03*
X192650000Y-146550000D03*
X180950000Y-140600000D03*
X164300000Y-104000000D03*
X166000000Y-112400000D03*
X192750000Y-80000000D03*
X172350000Y-68750000D03*
X162600000Y-91200000D03*
X170100000Y-68050000D03*
X177700000Y-107700000D03*
X169200000Y-142900000D03*
X161750000Y-83000000D03*
X193400000Y-146550000D03*
X174100000Y-112000000D03*
X182250000Y-90300000D03*
X166533958Y-76850000D03*
X185250000Y-90250000D03*
X192900000Y-120035000D03*
X195909340Y-110006840D03*
X175900000Y-86100000D03*
X177650000Y-121450000D03*
X171450000Y-72400000D03*
X168822368Y-77320902D03*
X189800000Y-113800000D03*
X191149953Y-135750047D03*
X191150000Y-132500000D03*
X180300000Y-113600000D03*
X169450000Y-130200000D03*
X184013283Y-143220920D03*
X176100000Y-68050000D03*
X195893750Y-118991250D03*
X180100000Y-78200000D03*
X172350000Y-68050000D03*
X167400000Y-132800000D03*
X180750000Y-90300000D03*
X186000000Y-89500000D03*
X181850000Y-102100000D03*
X172100000Y-83900000D03*
X176100000Y-68750000D03*
X163500000Y-103250000D03*
X162500000Y-80000000D03*
X171600000Y-68050000D03*
X166600000Y-130200000D03*
X185250000Y-126000000D03*
X171450000Y-75200000D03*
X163500000Y-102500000D03*
X163000000Y-133000000D03*
X173100000Y-68750000D03*
X178700000Y-80400000D03*
X186000000Y-87750000D03*
X161750000Y-80750000D03*
X181500000Y-89500000D03*
X171600000Y-68750000D03*
X179200000Y-135250000D03*
X162500000Y-84500000D03*
X172200000Y-72400000D03*
X170850000Y-68750000D03*
X195750000Y-80000000D03*
X175600000Y-138600000D03*
X167150000Y-112400000D03*
X176850000Y-68750000D03*
X177000000Y-119400000D03*
X175350000Y-68050000D03*
%TO.N,/SD_CS*%
X186544057Y-113799916D03*
%TO.N,/NRST*%
X181664682Y-105515136D03*
X177525000Y-105984258D03*
X166252983Y-113158949D03*
%TO.N,/VBUS*%
X178100000Y-141497000D03*
X182400000Y-141497000D03*
%TO.N,/SCL*%
X178067737Y-113475373D03*
X186415136Y-120864682D03*
%TO.N,/SDA*%
X175500000Y-110600000D03*
X189004670Y-120960431D03*
%TO.N,/VDD_IN*%
X198200000Y-124250000D03*
X197500000Y-127250000D03*
X197500000Y-125750000D03*
X198900000Y-125000000D03*
X197500000Y-126500000D03*
X198200000Y-125750000D03*
X198200000Y-126500000D03*
X198900000Y-124250000D03*
X198200000Y-125000000D03*
X198900000Y-127250000D03*
X198900000Y-126500000D03*
X198900000Y-125750000D03*
X198200000Y-127250000D03*
%TO.N,/CC2*%
X184750000Y-140400000D03*
X182400000Y-145100000D03*
X182827880Y-134427880D03*
%TO.N,/CC1*%
X188200000Y-132525000D03*
X183484620Y-145101893D03*
X187800000Y-139400000D03*
%TO.N,/TC*%
X183250000Y-99401024D03*
X184900000Y-106900000D03*
X183900000Y-103600000D03*
%TO.N,/SW2*%
X182401168Y-114398832D03*
X179750342Y-130196097D03*
%TO.N,/SW3*%
X178949977Y-113569262D03*
X184350000Y-126000000D03*
%TO.N,/Heater*%
X178000000Y-95000000D03*
%TO.N,/ENC_A*%
X181001168Y-112998832D03*
X178050000Y-119341045D03*
%TO.N,Net-(IC2A--)*%
X184500000Y-97500000D03*
X185350000Y-96250000D03*
%TO.N,Net-(IC3-FB)*%
X170493927Y-77024177D03*
X169000000Y-75400000D03*
%TO.N,VDD*%
X169532080Y-76950000D03*
X167900000Y-93300000D03*
%TO.N,/USR1*%
X174913085Y-115613086D03*
X176103631Y-119554085D03*
X173500000Y-112600000D03*
X181116396Y-117416396D03*
X170000000Y-113750000D03*
%TO.N,/USR2*%
X186600000Y-110300000D03*
X170000000Y-116000000D03*
%TO.N,/USART_RX*%
X180200866Y-114942620D03*
X166200000Y-123800000D03*
X169350000Y-125950000D03*
X170200000Y-127400000D03*
%TO.N,/CURRENT*%
X179300000Y-102300000D03*
X180396640Y-99233885D03*
%TO.N,/USR3*%
X187290380Y-110909620D03*
X170000000Y-118250000D03*
%TO.N,/USR4*%
X191400000Y-121800000D03*
X170000000Y-120500000D03*
X187850000Y-111550000D03*
%TO.N,/VBUS_IN*%
X170500000Y-97250000D03*
X182400000Y-105200000D03*
%TO.N,/USART_TX*%
X180850000Y-114381291D03*
X168287166Y-122849431D03*
%TO.N,/CC2_*%
X186000000Y-119600000D03*
X178000000Y-112650000D03*
%TO.N,/CC1_*%
X186800000Y-119425000D03*
X178000000Y-111650000D03*
%TO.N,/S_sense*%
X197200000Y-120660000D03*
%TO.N,+7.5V*%
X168450000Y-124900000D03*
X166350000Y-137550000D03*
X165500000Y-141200000D03*
X161850000Y-107959998D03*
%TO.N,/I_LEAK*%
X190800000Y-109750000D03*
X182100000Y-106300000D03*
X186700000Y-108000000D03*
%TO.N,Net-(R43-Pad2)*%
X180849998Y-131631675D03*
%TO.N,Net-(R46-Pad2)*%
X185400000Y-128250000D03*
%TO.N,Net-(R47-Pad2)*%
X173470468Y-137424991D03*
%TO.N,Net-(R48-Pad2)*%
X173639178Y-140541778D03*
%TO.N,/S1*%
X171150000Y-131400000D03*
%TD*%
D21*
%TO.N,+3.3V*%
X168000000Y-131425000D02*
X169125000Y-131425000D01*
X181926242Y-98600000D02*
X186250000Y-98600000D01*
D22*
X165600000Y-121081503D02*
X165600000Y-118130762D01*
D21*
X192700000Y-125600000D02*
X192700000Y-123485000D01*
D22*
X164500000Y-117030762D02*
X164500000Y-112750000D01*
D21*
X191750000Y-130250000D02*
X192925000Y-131425000D01*
X167750000Y-128400000D02*
X167750000Y-131175000D01*
X191750000Y-126550000D02*
X191750000Y-130250000D01*
D22*
X170500000Y-124100000D02*
X170360000Y-124100000D01*
D21*
X170360000Y-126071371D02*
X168031371Y-128400000D01*
X191750000Y-126550000D02*
X192700000Y-125600000D01*
X192700000Y-123485000D02*
X193700000Y-122485000D01*
X186400000Y-98750000D02*
X186400000Y-105700000D01*
X183124999Y-131425000D02*
X182000000Y-131425000D01*
X189550000Y-109650000D02*
X193635000Y-113735000D01*
X181313003Y-99213239D02*
X181313003Y-99013003D01*
X190037500Y-116700000D02*
X190837500Y-117500000D01*
X177350000Y-116469240D02*
X177859620Y-115959620D01*
X189550000Y-108850000D02*
X189550000Y-109650000D01*
X169125000Y-131425000D02*
X172000000Y-134300000D01*
X186400000Y-105700000D02*
X189550000Y-108850000D01*
X168031371Y-128400000D02*
X167750000Y-128400000D01*
D22*
X186400000Y-96275000D02*
X186400000Y-93750000D01*
X170360000Y-124100000D02*
X169910000Y-123650000D01*
D21*
X193700000Y-118485000D02*
X193700000Y-122485000D01*
X183550250Y-131850251D02*
X183124999Y-131425000D01*
X177178861Y-116600000D02*
X170360000Y-123418861D01*
D22*
X165600000Y-118130762D02*
X164500000Y-117030762D01*
D21*
X181313003Y-99013003D02*
X179800000Y-97500000D01*
X193700000Y-113735000D02*
X193700000Y-117500000D01*
X170360000Y-123418861D02*
X170360000Y-124100000D01*
D22*
X164500000Y-112750000D02*
X164650000Y-112600000D01*
D21*
X177219238Y-116600000D02*
X177178861Y-116600000D01*
X190837500Y-117500000D02*
X193700000Y-117500000D01*
X167750000Y-131175000D02*
X168000000Y-131425000D01*
X192925000Y-131425000D02*
X194000000Y-131425000D01*
D22*
X168168497Y-123650000D02*
X165600000Y-121081503D01*
D21*
X177859620Y-115959620D02*
X177219238Y-116600000D01*
X179800000Y-97500000D02*
X174300000Y-97500000D01*
D22*
X193685000Y-118500000D02*
X193700000Y-118485000D01*
D21*
X186250000Y-98600000D02*
X186400000Y-98750000D01*
X186400000Y-96275000D02*
X186400000Y-98750000D01*
D22*
X169910000Y-123650000D02*
X168168497Y-123650000D01*
D21*
X193700000Y-117500000D02*
X193700000Y-118485000D01*
X181313003Y-99213239D02*
X181926242Y-98600000D01*
X170360000Y-124100000D02*
X170360000Y-126071371D01*
X193635000Y-113735000D02*
X193700000Y-113735000D01*
D22*
%TO.N,/SWCLK*%
X181050000Y-145250000D02*
X182500000Y-143800000D01*
X164200000Y-118630000D02*
X162500000Y-116930000D01*
X166600000Y-120800000D02*
X167200000Y-121400000D01*
X170045411Y-121400000D02*
X175600000Y-115845411D01*
X161600000Y-141107106D02*
X161600000Y-127748097D01*
X163095552Y-142814791D02*
X163095552Y-142602658D01*
X167200000Y-121400000D02*
X170045411Y-121400000D01*
X161600000Y-127748097D02*
X164200000Y-125148098D01*
X175600000Y-115845411D02*
X175600000Y-114950000D01*
X177460268Y-145400000D02*
X177610268Y-145250000D01*
X163095552Y-142602658D02*
X161600000Y-141107106D01*
X166400000Y-120800000D02*
X166600000Y-120800000D01*
X164200000Y-125148098D02*
X164200000Y-118630000D01*
X177610268Y-145250000D02*
X181050000Y-145250000D01*
%TO.N,/SWDIO*%
X176938160Y-144750000D02*
X178650000Y-144750000D01*
X161900000Y-126300000D02*
X162340991Y-126300000D01*
X169953086Y-122199431D02*
X176600000Y-115552517D01*
X162603553Y-119923532D02*
X162603553Y-119573553D01*
X167760201Y-122199431D02*
X169953086Y-122199431D01*
X163700000Y-121019979D02*
X162603553Y-119923532D01*
X162340991Y-126300000D02*
X163700000Y-124940991D01*
X163700000Y-124940991D02*
X163700000Y-121019979D01*
X176894620Y-144706460D02*
X176938160Y-144750000D01*
X178650000Y-144750000D02*
X179400000Y-144000000D01*
X176600000Y-115552517D02*
X176600000Y-115300000D01*
X167710770Y-122150000D02*
X167760201Y-122199431D01*
D21*
%TO.N,/RED*%
X190625000Y-91375000D02*
X190625000Y-90875000D01*
X196250000Y-85250000D02*
X196250000Y-85000000D01*
X190625000Y-90875000D02*
X196250000Y-85250000D01*
D22*
%TO.N,/SPI_SCK*%
X183189202Y-121365547D02*
X181779749Y-122775000D01*
X176797000Y-122775000D02*
X175420000Y-124152000D01*
X181779749Y-122775000D02*
X176797000Y-122775000D01*
%TO.N,GND*%
X196050937Y-110148437D02*
X195909340Y-110006840D01*
X172100000Y-83900000D02*
X174100000Y-83900000D01*
X195893750Y-118991250D02*
X196019988Y-118865012D01*
X180900000Y-104200000D02*
X180293010Y-103593010D01*
X186400000Y-90650000D02*
X186000000Y-90250000D01*
X165250000Y-134025000D02*
X165250000Y-127500000D01*
X170400000Y-144250000D02*
X166200000Y-144250000D01*
X196050937Y-114334063D02*
X196050937Y-110148437D01*
X176600000Y-135425000D02*
X176600000Y-141950000D01*
X166200000Y-144250000D02*
X165250000Y-143300000D01*
X162250000Y-137025000D02*
X163875000Y-135400000D01*
X196740000Y-124700000D02*
X196325000Y-124285000D01*
X165250000Y-143300000D02*
X164500000Y-143300000D01*
D21*
X186000000Y-90250000D02*
X185250000Y-90250000D01*
D22*
X170400000Y-142850000D02*
X170250000Y-142700000D01*
X182900000Y-140600000D02*
X183400000Y-140100000D01*
X183400000Y-140100000D02*
X183400000Y-139500000D01*
X176625000Y-135400000D02*
X176600000Y-135425000D01*
X174100000Y-83900000D02*
X174700000Y-84500000D01*
X193300000Y-135275000D02*
X193300000Y-135250000D01*
X171500000Y-141050000D02*
X170250000Y-142300000D01*
D21*
X168351466Y-76850000D02*
X166533958Y-76850000D01*
D22*
X186400000Y-92000000D02*
X187400000Y-93000000D01*
D21*
X186000000Y-88500000D02*
X185250000Y-88500000D01*
D22*
X175758475Y-128008475D02*
X175250000Y-127500000D01*
X170400000Y-144250000D02*
X170400000Y-142850000D01*
X174250000Y-126500000D02*
X175250000Y-127500000D01*
X174300000Y-144250000D02*
X170400000Y-144250000D01*
X176625000Y-135400000D02*
X175500000Y-134275000D01*
D21*
X185250000Y-88500000D02*
X185250000Y-87750000D01*
D22*
X176775000Y-135250000D02*
X176625000Y-135400000D01*
X180950000Y-140600000D02*
X182900000Y-140600000D01*
X171950000Y-132900000D02*
X174450000Y-135400000D01*
D21*
X185250000Y-89500000D02*
X185250000Y-88500000D01*
D22*
X179200000Y-137975000D02*
X176625000Y-135400000D01*
X174450000Y-135400000D02*
X176625000Y-135400000D01*
X191325000Y-137250000D02*
X193300000Y-135275000D01*
X173450000Y-126500000D02*
X174250000Y-126500000D01*
D21*
X196050000Y-81700000D02*
X192050000Y-81700000D01*
D22*
X196594976Y-135250000D02*
X199500000Y-132344976D01*
X165100000Y-127350000D02*
X165250000Y-127500000D01*
D21*
X168822368Y-77320902D02*
X168351466Y-76850000D01*
D22*
X196019988Y-118865012D02*
X196019988Y-114596284D01*
X163875000Y-135400000D02*
X165250000Y-134025000D01*
X176661226Y-138338774D02*
X176600000Y-138400000D01*
X191075000Y-137250000D02*
X191325000Y-137250000D01*
X179200000Y-138650000D02*
X179200000Y-137975000D01*
X165100000Y-125499998D02*
X165100000Y-127350000D01*
X163000000Y-140000000D02*
X163875000Y-139125000D01*
D21*
X185250000Y-90250000D02*
X185250000Y-89500000D01*
X185250000Y-89500000D02*
X186000000Y-89500000D01*
D22*
X170250000Y-142300000D02*
X170250000Y-142700000D01*
X187400000Y-93000000D02*
X187400000Y-94250000D01*
D21*
X185250000Y-87750000D02*
X186000000Y-87750000D01*
D22*
X196019988Y-114596284D02*
X195904352Y-114480648D01*
X164500000Y-143300000D02*
X163000000Y-141800000D01*
X184000000Y-105550000D02*
X182650000Y-104200000D01*
X196325000Y-124285000D02*
X196325000Y-123418409D01*
X195904352Y-114480648D02*
X196050937Y-114334063D01*
X175250000Y-127500000D02*
X175250000Y-126522000D01*
X186400000Y-92000000D02*
X186400000Y-90650000D01*
X163000000Y-141800000D02*
X163000000Y-140000000D01*
X173450000Y-124722000D02*
X172880000Y-124152000D01*
X197258409Y-122485000D02*
X195893750Y-121120341D01*
X173450000Y-126500000D02*
X173450000Y-124722000D01*
X163875000Y-139125000D02*
X163875000Y-135400000D01*
X196740000Y-127740000D02*
X196740000Y-124700000D01*
D21*
X192050000Y-81700000D02*
X186000000Y-87750000D01*
D22*
X196325000Y-123418409D02*
X197258409Y-122485000D01*
X179200000Y-135250000D02*
X176775000Y-135250000D01*
X171367566Y-138350000D02*
X171500000Y-138482434D01*
X176625000Y-137410492D02*
X176625000Y-135400000D01*
X176600000Y-141950000D02*
X174300000Y-144250000D01*
X193300000Y-135250000D02*
X196594976Y-135250000D01*
X182650000Y-104200000D02*
X180900000Y-104200000D01*
X199500000Y-130500000D02*
X196740000Y-127740000D01*
X171500000Y-138482434D02*
X171500000Y-141050000D01*
X195893750Y-121120341D02*
X195893750Y-118991250D01*
X199500000Y-132344976D02*
X199500000Y-130500000D01*
X180293010Y-103593010D02*
X179506990Y-103593010D01*
%TO.N,/SD_CS*%
X189654670Y-123146670D02*
X190660000Y-124152000D01*
X186880000Y-116649239D02*
X189654670Y-119423909D01*
X186880000Y-114135859D02*
X186880000Y-116649239D01*
X189654670Y-119423909D02*
X189654670Y-123146670D01*
X186544057Y-113799916D02*
X186880000Y-114135859D01*
%TO.N,/NRST*%
X181179818Y-106000000D02*
X181664682Y-105515136D01*
X176894424Y-105984258D02*
X169719733Y-113158949D01*
X177540742Y-106000000D02*
X181179818Y-106000000D01*
X169719733Y-113158949D02*
X166252983Y-113158949D01*
X177525000Y-105984258D02*
X176894424Y-105984258D01*
X177525000Y-105984258D02*
X177540742Y-106000000D01*
D21*
%TO.N,/VBUS*%
X178203000Y-141600000D02*
X178100000Y-141497000D01*
X182297000Y-141600000D02*
X178203000Y-141600000D01*
X182400000Y-141497000D02*
X182297000Y-141600000D01*
D22*
%TO.N,/SCL*%
X184880000Y-119599239D02*
X186145443Y-120864682D01*
X184880000Y-115251317D02*
X184880000Y-119599239D01*
X178067737Y-113475373D02*
X178124627Y-113475373D01*
X181413302Y-111784620D02*
X184880000Y-115251317D01*
X178124627Y-113475373D02*
X179815380Y-111784620D01*
X186145443Y-120864682D02*
X186415136Y-120864682D01*
X179815380Y-111784620D02*
X181413302Y-111784620D01*
%TO.N,/SDA*%
X189004670Y-119481015D02*
X189004670Y-120960431D01*
X175500000Y-110600000D02*
X175815380Y-110284620D01*
X175815380Y-110284620D02*
X182034620Y-110284620D01*
X186380000Y-114629998D02*
X186380000Y-116856345D01*
X186380000Y-116856345D02*
X189004670Y-119481015D01*
X182034620Y-110284620D02*
X186380000Y-114629998D01*
D23*
%TO.N,/VDD_IN*%
X198750000Y-80500000D02*
X198750000Y-126000000D01*
X198750000Y-126000000D02*
X198250000Y-126500000D01*
D22*
X199000000Y-127250000D02*
X199000000Y-125750000D01*
D23*
X196450000Y-78200000D02*
X198750000Y-80500000D01*
D22*
X199000000Y-124250000D02*
X199000000Y-124241591D01*
D23*
X196250000Y-78200000D02*
X196450000Y-78200000D01*
D22*
%TO.N,/CC2*%
X183848107Y-144451893D02*
X184750000Y-143550000D01*
X184750000Y-136350000D02*
X184750000Y-140400000D01*
X183048107Y-144451893D02*
X183848107Y-144451893D01*
X182400000Y-145100000D02*
X183048107Y-144451893D01*
X184750000Y-143550000D02*
X184750000Y-140400000D01*
X182827880Y-134427880D02*
X184750000Y-136350000D01*
%TO.N,/CC1*%
X185250000Y-142750000D02*
X187800000Y-140200000D01*
X185250000Y-143757106D02*
X185250000Y-142750000D01*
X183905213Y-145101893D02*
X185250000Y-143757106D01*
X187800000Y-132925000D02*
X187800000Y-139400000D01*
X183484620Y-145101893D02*
X183905213Y-145101893D01*
X187800000Y-140200000D02*
X187800000Y-139400000D01*
X188200000Y-132525000D02*
X187800000Y-132925000D01*
%TO.N,/TC*%
X183700000Y-103400000D02*
X183900000Y-103600000D01*
X183250000Y-99650000D02*
X183700000Y-100100000D01*
X183700000Y-100100000D02*
X183700000Y-103400000D01*
X183250000Y-99401024D02*
X183250000Y-99650000D01*
%TO.N,/SW2*%
X183880000Y-121611341D02*
X183880000Y-115680000D01*
X183880000Y-115680000D02*
X182598832Y-114398832D01*
X179750342Y-130196097D02*
X179750342Y-128199658D01*
X181775000Y-123687943D02*
X182790204Y-122672739D01*
X181775000Y-126175000D02*
X181775000Y-123687943D01*
X182598832Y-114398832D02*
X182401168Y-114398832D01*
X179750342Y-128199658D02*
X181775000Y-126175000D01*
X182818602Y-122672739D02*
X183880000Y-121611341D01*
X182790204Y-122672739D02*
X182818602Y-122672739D01*
%TO.N,/SW3*%
X180022486Y-112284620D02*
X181206196Y-112284620D01*
X181206196Y-112284620D02*
X184380000Y-115458424D01*
X178949977Y-113357129D02*
X180022486Y-112284620D01*
X178949977Y-113569262D02*
X178949977Y-113357129D01*
X184350000Y-126000000D02*
X184380000Y-125970000D01*
X184380000Y-125970000D02*
X184380000Y-115458424D01*
%TO.N,/ENC_A*%
X181600000Y-115800978D02*
X178059933Y-119341045D01*
X181600000Y-113597664D02*
X181600000Y-115800978D01*
X181001168Y-112998832D02*
X181600000Y-113597664D01*
X178059933Y-119341045D02*
X178050000Y-119341045D01*
%TO.N,Net-(IC2A--)*%
X184500000Y-97100000D02*
X185350000Y-96250000D01*
X184500000Y-97500000D02*
X184500000Y-97100000D01*
%TO.N,Net-(IC3-FB)*%
X170493927Y-76943927D02*
X169000000Y-75450000D01*
X170493927Y-77024177D02*
X170493927Y-76943927D01*
X169000000Y-75400000D02*
X168900000Y-75400000D01*
X169000000Y-75450000D02*
X169000000Y-75400000D01*
%TO.N,VDD*%
X169532080Y-76950000D02*
X169500000Y-76982080D01*
X167900000Y-93200000D02*
X167900000Y-93300000D01*
X169500000Y-91600000D02*
X167900000Y-93200000D01*
X169500000Y-76982080D02*
X169500000Y-91600000D01*
%TO.N,/USR1*%
X173500000Y-114200000D02*
X173500000Y-112600000D01*
X178700000Y-119600000D02*
X178700000Y-119610284D01*
X178700000Y-119610284D02*
X178260284Y-120050000D01*
X180883604Y-117416396D02*
X178700000Y-119600000D01*
X178260284Y-120050000D02*
X176599546Y-120050000D01*
X181116396Y-117416396D02*
X180883604Y-117416396D01*
X176599546Y-120050000D02*
X176103631Y-119554085D01*
X174913085Y-115613086D02*
X173500000Y-114200000D01*
%TO.N,/USR2*%
X184466726Y-110559620D02*
X182691726Y-108784620D01*
X182691726Y-108784620D02*
X174801168Y-108784620D01*
X186340380Y-110559620D02*
X184466726Y-110559620D01*
X186600000Y-110300000D02*
X186340380Y-110559620D01*
X171708274Y-111877514D02*
X171708274Y-114291726D01*
X171708274Y-114291726D02*
X170000000Y-116000000D01*
X174801168Y-108784620D02*
X171708274Y-111877514D01*
%TO.N,/USART_RX*%
X166430762Y-123800000D02*
X168580762Y-125950000D01*
X168580762Y-125950000D02*
X169350000Y-125950000D01*
X171560000Y-123178476D02*
X171560000Y-125840000D01*
X180200866Y-114942620D02*
X179795856Y-114942620D01*
X171560000Y-125840000D02*
X170200000Y-127200000D01*
X170200000Y-127200000D02*
X170200000Y-127400000D01*
X166200000Y-123800000D02*
X166430762Y-123800000D01*
X179795856Y-114942620D02*
X171560000Y-123178476D01*
%TO.N,/CURRENT*%
X180396640Y-101203360D02*
X179300000Y-102300000D01*
X180396640Y-99233885D02*
X180396640Y-101203360D01*
%TO.N,/USR3*%
X182484620Y-109284620D02*
X175008274Y-109284620D01*
X184259620Y-111059620D02*
X182484620Y-109284620D01*
X172208274Y-116041726D02*
X170000000Y-118250000D01*
X172208274Y-112084620D02*
X172208274Y-116041726D01*
X187290380Y-110909620D02*
X187140380Y-111059620D01*
X175008274Y-109284620D02*
X172208274Y-112084620D01*
X187140380Y-111059620D02*
X184259620Y-111059620D01*
%TO.N,/USR4*%
X172708274Y-118030031D02*
X170238305Y-120500000D01*
X170238305Y-120500000D02*
X170000000Y-120500000D01*
X187840380Y-111559620D02*
X184016726Y-111559620D01*
X191400000Y-120400000D02*
X191400000Y-121800000D01*
X187850000Y-111550000D02*
X187840380Y-111559620D01*
X188700000Y-117700000D02*
X191400000Y-120400000D01*
X184016726Y-111559620D02*
X182241726Y-109784620D01*
X175215380Y-109784620D02*
X172708274Y-112291726D01*
X188700000Y-112400000D02*
X188700000Y-117700000D01*
X172708274Y-112291726D02*
X172708274Y-118030031D01*
X187850000Y-111550000D02*
X188700000Y-112400000D01*
X182241726Y-109784620D02*
X175215380Y-109784620D01*
%TO.N,/VBUS_IN*%
X179794740Y-104800000D02*
X172244740Y-97250000D01*
X182000000Y-104800000D02*
X179794740Y-104800000D01*
X182400000Y-105200000D02*
X182000000Y-104800000D01*
X172244740Y-97250000D02*
X170500000Y-97250000D01*
%TO.N,/USART_TX*%
X169960509Y-122899114D02*
X178567003Y-114292620D01*
X180761329Y-114292620D02*
X180850000Y-114381291D01*
X178567003Y-114292620D02*
X180761329Y-114292620D01*
X168336849Y-122899114D02*
X169960509Y-122899114D01*
X168287166Y-122849431D02*
X168336849Y-122899114D01*
%TO.N,/CC2_*%
X185380000Y-115044210D02*
X181620408Y-111284620D01*
X178019239Y-112650000D02*
X178000000Y-112650000D01*
X185380000Y-118980000D02*
X185380000Y-115044210D01*
X181620408Y-111284620D02*
X179384619Y-111284620D01*
X186000000Y-119600000D02*
X185380000Y-118980000D01*
X179384619Y-111284620D02*
X178019239Y-112650000D01*
%TO.N,/CC1_*%
X185880000Y-114837104D02*
X185880000Y-118505000D01*
X185880000Y-118505000D02*
X186800000Y-119425000D01*
X178000000Y-111650000D02*
X178865380Y-110784620D01*
X178865380Y-110784620D02*
X181827514Y-110784620D01*
X181827514Y-110784620D02*
X185880000Y-114837104D01*
%TO.N,/S_sense*%
X197300000Y-120560000D02*
X197300000Y-107250000D01*
X197300000Y-107250000D02*
X196250000Y-106200000D01*
X197200000Y-120660000D02*
X197300000Y-120560000D01*
D21*
%TO.N,+7.5V*%
X163659998Y-107959998D02*
X163850000Y-108150000D01*
D22*
X166350000Y-137550000D02*
X165500000Y-138400000D01*
X165500000Y-138400000D02*
X165500000Y-141200000D01*
D21*
X164950000Y-118400000D02*
X164950000Y-121400000D01*
X164950000Y-121400000D02*
X168450000Y-124900000D01*
X163850000Y-117300000D02*
X164950000Y-118400000D01*
X163850000Y-108150000D02*
X163850000Y-117300000D01*
X161850000Y-107959998D02*
X163659998Y-107959998D01*
D22*
%TO.N,/I_LEAK*%
X182100000Y-106300000D02*
X183800000Y-108000000D01*
X183800000Y-108000000D02*
X186700000Y-108000000D01*
%TO.N,Net-(R43-Pad2)*%
X180849998Y-132269998D02*
X181130000Y-132550000D01*
X186800000Y-131125000D02*
X186500000Y-131425000D01*
X185375000Y-132550000D02*
X186500000Y-131425000D01*
X181130000Y-132550000D02*
X185375000Y-132550000D01*
X180849998Y-131631675D02*
X180849998Y-132269998D01*
%TO.N,Net-(R46-Pad2)*%
X197325000Y-132600000D02*
X198500000Y-131425000D01*
X188800000Y-128250000D02*
X193150000Y-132600000D01*
X185400000Y-128250000D02*
X188800000Y-128250000D01*
X193150000Y-132600000D02*
X197325000Y-132600000D01*
%TO.N,Net-(R47-Pad2)*%
X169000000Y-140900000D02*
X167750000Y-142150000D01*
X169000000Y-139050000D02*
X169000000Y-140900000D01*
X167750000Y-142150000D02*
X167750000Y-142700000D01*
X170350000Y-137700000D02*
X169000000Y-139050000D01*
X173470468Y-137424991D02*
X173195459Y-137700000D01*
X173195459Y-137700000D02*
X170350000Y-137700000D01*
%TO.N,Net-(R48-Pad2)*%
X173639178Y-140541778D02*
X172750000Y-141430956D01*
X172750000Y-141430956D02*
X172750000Y-142700000D01*
%TO.N,/S1*%
X172475000Y-131400000D02*
X171150000Y-131400000D01*
X172750000Y-131175000D02*
X172500000Y-131425000D01*
X172750000Y-128400000D02*
X172750000Y-131175000D01*
X172500000Y-131425000D02*
X172475000Y-131400000D01*
%TD*%
%TA.AperFunction,Conductor*%
%TO.N,/VDD_IN*%
G36*
X199593039Y-124019685D02*
G01*
X199638794Y-124072489D01*
X199650000Y-124124000D01*
X199650000Y-127376000D01*
X199630315Y-127443039D01*
X199577511Y-127488794D01*
X199526000Y-127500000D01*
X197374000Y-127500000D01*
X197306961Y-127480315D01*
X197261206Y-127427511D01*
X197250000Y-127376000D01*
X197250000Y-125324500D01*
X197269685Y-125257461D01*
X197322489Y-125211706D01*
X197374000Y-125200500D01*
X197549676Y-125200500D01*
X197549677Y-125200499D01*
X197622740Y-125185966D01*
X197705601Y-125130601D01*
X197760966Y-125047740D01*
X197775500Y-124974674D01*
X197775500Y-124124000D01*
X197795185Y-124056961D01*
X197847989Y-124011206D01*
X197899500Y-124000000D01*
X199526000Y-124000000D01*
X199593039Y-124019685D01*
G37*
%TD.AperFunction*%
%TD*%
%TA.AperFunction,Conductor*%
%TO.N,GND*%
G36*
X197003471Y-67750695D02*
G01*
X197044188Y-67752981D01*
X197300900Y-67767397D01*
X197314703Y-67768953D01*
X197604953Y-67818269D01*
X197618510Y-67821363D01*
X197901413Y-67902866D01*
X197914537Y-67907459D01*
X198186527Y-68020120D01*
X198199049Y-68026149D01*
X198397673Y-68135925D01*
X198456726Y-68168563D01*
X198468500Y-68175961D01*
X198708604Y-68346323D01*
X198719476Y-68354993D01*
X198938997Y-68551169D01*
X198948830Y-68561002D01*
X199145006Y-68780523D01*
X199153676Y-68791395D01*
X199324038Y-69031499D01*
X199331436Y-69043273D01*
X199473846Y-69300943D01*
X199479879Y-69313472D01*
X199592540Y-69585462D01*
X199597133Y-69598586D01*
X199678636Y-69881489D01*
X199681730Y-69895046D01*
X199731045Y-70185288D01*
X199732602Y-70199106D01*
X199749305Y-70496527D01*
X199749500Y-70503480D01*
X199749500Y-72174861D01*
X199729815Y-72241900D01*
X199677011Y-72287655D01*
X199607853Y-72297599D01*
X199544297Y-72268574D01*
X199537819Y-72262542D01*
X199403718Y-72128441D01*
X199235762Y-72016217D01*
X199235752Y-72016212D01*
X199049127Y-71938909D01*
X199049119Y-71938907D01*
X198851007Y-71899500D01*
X198851003Y-71899500D01*
X198648997Y-71899500D01*
X198648992Y-71899500D01*
X198450880Y-71938907D01*
X198450872Y-71938909D01*
X198264247Y-72016212D01*
X198264237Y-72016217D01*
X198096281Y-72128441D01*
X197953441Y-72271281D01*
X197841217Y-72439237D01*
X197841212Y-72439247D01*
X197763909Y-72625872D01*
X197763907Y-72625880D01*
X197724500Y-72823992D01*
X197724500Y-73026007D01*
X197763907Y-73224119D01*
X197763909Y-73224127D01*
X197841212Y-73410752D01*
X197841217Y-73410762D01*
X197953441Y-73578718D01*
X198096281Y-73721558D01*
X198264237Y-73833782D01*
X198264241Y-73833784D01*
X198264244Y-73833786D01*
X198450873Y-73911091D01*
X198648992Y-73950499D01*
X198648996Y-73950500D01*
X198648997Y-73950500D01*
X198851004Y-73950500D01*
X198851005Y-73950499D01*
X199049127Y-73911091D01*
X199235756Y-73833786D01*
X199403718Y-73721558D01*
X199458983Y-73666293D01*
X199537819Y-73587458D01*
X199599142Y-73553973D01*
X199668834Y-73558957D01*
X199724767Y-73600829D01*
X199749184Y-73666293D01*
X199749500Y-73675139D01*
X199749500Y-74714861D01*
X199729815Y-74781900D01*
X199677011Y-74827655D01*
X199607853Y-74837599D01*
X199544297Y-74808574D01*
X199537819Y-74802542D01*
X199403718Y-74668441D01*
X199235762Y-74556217D01*
X199235752Y-74556212D01*
X199049127Y-74478909D01*
X199049119Y-74478907D01*
X198851007Y-74439500D01*
X198851003Y-74439500D01*
X198648997Y-74439500D01*
X198648992Y-74439500D01*
X198450880Y-74478907D01*
X198450872Y-74478909D01*
X198264247Y-74556212D01*
X198264237Y-74556217D01*
X198096281Y-74668441D01*
X197953441Y-74811281D01*
X197841217Y-74979237D01*
X197841212Y-74979247D01*
X197763909Y-75165872D01*
X197763907Y-75165880D01*
X197724500Y-75363992D01*
X197724500Y-75566007D01*
X197763907Y-75764119D01*
X197763909Y-75764127D01*
X197841212Y-75950752D01*
X197841217Y-75950762D01*
X197953441Y-76118718D01*
X198096281Y-76261558D01*
X198264237Y-76373782D01*
X198264241Y-76373784D01*
X198264244Y-76373786D01*
X198450873Y-76451091D01*
X198607974Y-76482340D01*
X198648992Y-76490499D01*
X198648996Y-76490500D01*
X198648997Y-76490500D01*
X198851004Y-76490500D01*
X198851005Y-76490499D01*
X199049127Y-76451091D01*
X199235756Y-76373786D01*
X199403718Y-76261558D01*
X199458983Y-76206293D01*
X199537819Y-76127458D01*
X199599142Y-76093973D01*
X199668834Y-76098957D01*
X199724767Y-76140829D01*
X199749184Y-76206293D01*
X199749500Y-76215139D01*
X199749500Y-79573083D01*
X199743262Y-79594326D01*
X199741683Y-79616414D01*
X199733609Y-79627199D01*
X199729815Y-79640122D01*
X199713083Y-79654619D01*
X199699813Y-79672348D01*
X199687190Y-79677056D01*
X199677011Y-79685877D01*
X199655095Y-79689028D01*
X199634349Y-79696767D01*
X199621185Y-79693903D01*
X199607853Y-79695821D01*
X199587712Y-79686623D01*
X199566076Y-79681917D01*
X199548348Y-79668646D01*
X199544297Y-79666796D01*
X199537821Y-79660766D01*
X199517098Y-79640044D01*
X199499501Y-79622447D01*
X199499497Y-79622444D01*
X197331893Y-77454840D01*
X197331884Y-77454830D01*
X197272896Y-77395842D01*
X197199501Y-77322447D01*
X197199497Y-77322444D01*
X197199493Y-77322440D01*
X197052997Y-77216006D01*
X197052996Y-77216005D01*
X197052994Y-77216004D01*
X197001300Y-77189664D01*
X196891639Y-77133788D01*
X196891636Y-77133787D01*
X196719410Y-77077829D01*
X196713570Y-77076904D01*
X196627057Y-77063201D01*
X196540546Y-77049499D01*
X196359454Y-77049499D01*
X196354343Y-77049499D01*
X196354319Y-77049500D01*
X196159449Y-77049500D01*
X195980589Y-77077829D01*
X195808363Y-77133787D01*
X195808360Y-77133788D01*
X195647002Y-77216006D01*
X195500505Y-77322441D01*
X195500500Y-77322445D01*
X195372445Y-77450500D01*
X195372441Y-77450505D01*
X195266006Y-77597002D01*
X195183788Y-77758360D01*
X195183787Y-77758363D01*
X195127829Y-77930589D01*
X195099500Y-78109448D01*
X195099500Y-78290551D01*
X195127829Y-78469410D01*
X195183787Y-78641636D01*
X195183788Y-78641639D01*
X195266006Y-78802997D01*
X195372441Y-78949494D01*
X195372445Y-78949499D01*
X195500500Y-79077554D01*
X195500505Y-79077558D01*
X195628287Y-79170396D01*
X195647006Y-79183996D01*
X195808361Y-79266211D01*
X195899733Y-79295899D01*
X195949095Y-79326148D01*
X197563181Y-80940234D01*
X197596666Y-81001557D01*
X197599500Y-81027915D01*
X197599500Y-90276000D01*
X197579815Y-90343039D01*
X197527011Y-90388794D01*
X197475500Y-90400000D01*
X194999999Y-90400000D01*
X194600000Y-90799999D01*
X194600000Y-90800000D01*
X194600000Y-96800000D01*
X195000000Y-97200000D01*
X197475500Y-97200000D01*
X197542539Y-97219685D01*
X197588294Y-97272489D01*
X197599500Y-97324000D01*
X197599500Y-106683745D01*
X197593261Y-106704990D01*
X197591682Y-106727079D01*
X197583609Y-106737862D01*
X197579815Y-106750784D01*
X197563081Y-106765283D01*
X197549810Y-106783012D01*
X197537189Y-106787719D01*
X197527011Y-106796539D01*
X197505093Y-106799690D01*
X197484346Y-106807429D01*
X197471185Y-106804566D01*
X197457853Y-106806483D01*
X197437709Y-106797283D01*
X197416073Y-106792577D01*
X197398347Y-106779308D01*
X197394297Y-106777458D01*
X197387819Y-106771426D01*
X197361819Y-106745426D01*
X197328334Y-106684103D01*
X197325500Y-106657745D01*
X197325500Y-105350323D01*
X197325499Y-105350321D01*
X197310967Y-105277264D01*
X197310966Y-105277260D01*
X197293108Y-105250533D01*
X197255601Y-105194399D01*
X197172740Y-105139034D01*
X197172739Y-105139033D01*
X197172735Y-105139032D01*
X197099677Y-105124500D01*
X197099674Y-105124500D01*
X195400326Y-105124500D01*
X195400323Y-105124500D01*
X195327264Y-105139032D01*
X195327260Y-105139033D01*
X195244399Y-105194399D01*
X195189033Y-105277260D01*
X195189032Y-105277264D01*
X195174500Y-105350321D01*
X195174500Y-107049678D01*
X195189032Y-107122735D01*
X195189033Y-107122739D01*
X195189034Y-107122740D01*
X195244399Y-107205601D01*
X195292905Y-107238011D01*
X195327260Y-107260966D01*
X195327264Y-107260967D01*
X195400321Y-107275499D01*
X195400324Y-107275500D01*
X195400326Y-107275500D01*
X196707745Y-107275500D01*
X196737185Y-107284144D01*
X196767172Y-107290668D01*
X196772187Y-107294422D01*
X196774784Y-107295185D01*
X196795426Y-107311819D01*
X196863181Y-107379574D01*
X196896666Y-107440897D01*
X196899500Y-107467255D01*
X196899500Y-120130613D01*
X196879815Y-120197652D01*
X196863182Y-120218294D01*
X196759488Y-120321988D01*
X196687017Y-120447511D01*
X196687016Y-120447515D01*
X196649500Y-120587525D01*
X196649500Y-120732475D01*
X196677780Y-120838015D01*
X196687017Y-120872488D01*
X196759488Y-120998011D01*
X196759490Y-120998013D01*
X196759491Y-120998015D01*
X196861985Y-121100509D01*
X196861986Y-121100510D01*
X196861988Y-121100511D01*
X196987511Y-121172982D01*
X196987512Y-121172982D01*
X196987515Y-121172984D01*
X197127525Y-121210500D01*
X197127528Y-121210500D01*
X197272472Y-121210500D01*
X197272475Y-121210500D01*
X197412485Y-121172984D01*
X197413495Y-121172400D01*
X197414457Y-121172167D01*
X197419999Y-121169872D01*
X197420356Y-121170735D01*
X197481393Y-121155925D01*
X197547421Y-121178774D01*
X197590615Y-121233692D01*
X197599500Y-121279785D01*
X197599500Y-123859941D01*
X197585375Y-123917417D01*
X197550034Y-123984977D01*
X197530351Y-124052009D01*
X197530348Y-124052021D01*
X197520000Y-124123998D01*
X197520000Y-124821000D01*
X197500315Y-124888039D01*
X197447511Y-124933794D01*
X197396000Y-124945000D01*
X197373997Y-124945000D01*
X197319687Y-124950838D01*
X197268181Y-124962043D01*
X197268172Y-124962046D01*
X197241807Y-124969279D01*
X197241796Y-124969283D01*
X197155181Y-125018605D01*
X197155173Y-125018611D01*
X197102371Y-125064363D01*
X197070743Y-125097140D01*
X197024534Y-125185477D01*
X197024533Y-125185477D01*
X197004851Y-125252509D01*
X197004848Y-125252521D01*
X196994500Y-125324498D01*
X196994500Y-125494782D01*
X196987641Y-125529268D01*
X196989120Y-125529665D01*
X196987017Y-125537513D01*
X196987016Y-125537515D01*
X196949500Y-125677525D01*
X196949500Y-125822475D01*
X196985746Y-125957745D01*
X196988840Y-125969292D01*
X196989477Y-125970283D01*
X196994500Y-126005218D01*
X196994500Y-126244782D01*
X196987641Y-126279268D01*
X196989120Y-126279665D01*
X196987017Y-126287513D01*
X196987016Y-126287515D01*
X196949500Y-126427525D01*
X196949500Y-126572475D01*
X196987016Y-126712485D01*
X196988840Y-126719292D01*
X196989477Y-126720283D01*
X196994500Y-126755218D01*
X196994500Y-126994782D01*
X196987641Y-127029268D01*
X196989120Y-127029665D01*
X196987017Y-127037513D01*
X196987016Y-127037515D01*
X196949500Y-127177525D01*
X196949500Y-127322475D01*
X196987016Y-127462485D01*
X196987017Y-127462488D01*
X197059488Y-127588011D01*
X197059490Y-127588013D01*
X197059491Y-127588015D01*
X197079847Y-127608371D01*
X197113867Y-127647632D01*
X197146641Y-127679257D01*
X197155221Y-127683745D01*
X197161985Y-127690509D01*
X197177558Y-127699500D01*
X197287511Y-127762982D01*
X197287512Y-127762982D01*
X197287515Y-127762984D01*
X197427525Y-127800500D01*
X197427528Y-127800500D01*
X197572472Y-127800500D01*
X197572475Y-127800500D01*
X197712485Y-127762984D01*
X197712487Y-127762982D01*
X197719293Y-127761159D01*
X197720283Y-127760523D01*
X197755218Y-127755500D01*
X197944782Y-127755500D01*
X197979268Y-127762358D01*
X197979665Y-127760880D01*
X197987513Y-127762982D01*
X197987515Y-127762984D01*
X198127525Y-127800500D01*
X198127528Y-127800500D01*
X198272472Y-127800500D01*
X198272475Y-127800500D01*
X198412485Y-127762984D01*
X198412487Y-127762982D01*
X198419293Y-127761159D01*
X198420283Y-127760523D01*
X198455218Y-127755500D01*
X198644782Y-127755500D01*
X198679268Y-127762358D01*
X198679665Y-127760880D01*
X198687513Y-127762982D01*
X198687515Y-127762984D01*
X198827525Y-127800500D01*
X198827528Y-127800500D01*
X198972472Y-127800500D01*
X198972475Y-127800500D01*
X199112485Y-127762984D01*
X199112486Y-127762982D01*
X199120335Y-127760880D01*
X199120731Y-127762358D01*
X199155218Y-127755500D01*
X199526000Y-127755500D01*
X199580313Y-127749661D01*
X199599140Y-127745565D01*
X199668832Y-127750549D01*
X199724766Y-127792419D01*
X199749184Y-127857883D01*
X199749500Y-127866731D01*
X199749500Y-146996519D01*
X199749305Y-147003472D01*
X199732602Y-147300893D01*
X199731045Y-147314711D01*
X199681730Y-147604953D01*
X199678636Y-147618510D01*
X199597133Y-147901413D01*
X199592540Y-147914537D01*
X199479879Y-148186527D01*
X199473846Y-148199056D01*
X199331436Y-148456726D01*
X199324038Y-148468500D01*
X199153676Y-148708604D01*
X199145006Y-148719476D01*
X198948830Y-148938997D01*
X198938997Y-148948830D01*
X198719476Y-149145006D01*
X198708604Y-149153676D01*
X198468500Y-149324038D01*
X198456726Y-149331436D01*
X198199056Y-149473846D01*
X198186527Y-149479879D01*
X197914537Y-149592540D01*
X197901413Y-149597133D01*
X197618510Y-149678636D01*
X197604953Y-149681730D01*
X197314711Y-149731045D01*
X197300893Y-149732602D01*
X197003472Y-149749305D01*
X196996519Y-149749500D01*
X164003481Y-149749500D01*
X163996528Y-149749305D01*
X163699106Y-149732602D01*
X163685288Y-149731045D01*
X163395046Y-149681730D01*
X163381489Y-149678636D01*
X163098586Y-149597133D01*
X163085462Y-149592540D01*
X162813472Y-149479879D01*
X162800943Y-149473846D01*
X162543273Y-149331436D01*
X162531499Y-149324038D01*
X162291395Y-149153676D01*
X162280523Y-149145006D01*
X162061002Y-148948830D01*
X162051169Y-148938997D01*
X161902627Y-148772779D01*
X161854993Y-148719476D01*
X161846323Y-148708604D01*
X161675961Y-148468500D01*
X161668563Y-148456726D01*
X161526153Y-148199056D01*
X161520120Y-148186527D01*
X161407459Y-147914537D01*
X161402866Y-147901413D01*
X161321363Y-147618510D01*
X161318269Y-147604953D01*
X161268954Y-147314711D01*
X161267397Y-147300900D01*
X161250695Y-147003471D01*
X161250500Y-146996519D01*
X161250500Y-146891346D01*
X162619500Y-146891346D01*
X162619500Y-147108653D01*
X162653491Y-147323268D01*
X162720641Y-147529932D01*
X162819290Y-147723540D01*
X162947013Y-147899336D01*
X163100664Y-148052987D01*
X163276460Y-148180710D01*
X163367934Y-148227318D01*
X163470067Y-148279358D01*
X163470069Y-148279358D01*
X163470072Y-148279360D01*
X163580847Y-148315353D01*
X163676731Y-148346508D01*
X163891347Y-148380500D01*
X163891352Y-148380500D01*
X164108653Y-148380500D01*
X164323268Y-148346508D01*
X164529928Y-148279360D01*
X164723540Y-148180710D01*
X164899336Y-148052987D01*
X165052987Y-147899336D01*
X165180710Y-147723540D01*
X165279360Y-147529928D01*
X165346508Y-147323268D01*
X165350052Y-147300892D01*
X165380500Y-147108653D01*
X165380500Y-146891346D01*
X195619500Y-146891346D01*
X195619500Y-147108653D01*
X195653491Y-147323268D01*
X195720641Y-147529932D01*
X195819290Y-147723540D01*
X195947013Y-147899336D01*
X196100664Y-148052987D01*
X196276460Y-148180710D01*
X196367934Y-148227318D01*
X196470067Y-148279358D01*
X196470069Y-148279358D01*
X196470072Y-148279360D01*
X196580847Y-148315353D01*
X196676731Y-148346508D01*
X196891347Y-148380500D01*
X196891352Y-148380500D01*
X197108653Y-148380500D01*
X197323268Y-148346508D01*
X197529928Y-148279360D01*
X197723540Y-148180710D01*
X197899336Y-148052987D01*
X198052987Y-147899336D01*
X198180710Y-147723540D01*
X198279360Y-147529928D01*
X198346508Y-147323268D01*
X198350052Y-147300892D01*
X198380500Y-147108653D01*
X198380500Y-146891346D01*
X198346508Y-146676731D01*
X198279358Y-146470067D01*
X198180709Y-146276459D01*
X198052987Y-146100664D01*
X197899336Y-145947013D01*
X197723540Y-145819290D01*
X197529932Y-145720641D01*
X197323268Y-145653491D01*
X197108653Y-145619500D01*
X197108648Y-145619500D01*
X196891352Y-145619500D01*
X196891347Y-145619500D01*
X196676731Y-145653491D01*
X196470067Y-145720641D01*
X196276459Y-145819290D01*
X196100661Y-145947015D01*
X195947015Y-146100661D01*
X195819290Y-146276459D01*
X195720641Y-146470067D01*
X195653491Y-146676731D01*
X195619500Y-146891346D01*
X165380500Y-146891346D01*
X165346508Y-146676731D01*
X165279358Y-146470067D01*
X165180709Y-146276459D01*
X165052987Y-146100664D01*
X164899336Y-145947013D01*
X164723540Y-145819290D01*
X164529932Y-145720641D01*
X164323268Y-145653491D01*
X164108653Y-145619500D01*
X164108648Y-145619500D01*
X163891352Y-145619500D01*
X163891347Y-145619500D01*
X163676731Y-145653491D01*
X163470067Y-145720641D01*
X163276459Y-145819290D01*
X163100661Y-145947015D01*
X162947015Y-146100661D01*
X162819290Y-146276459D01*
X162720641Y-146470067D01*
X162653491Y-146676731D01*
X162619500Y-146891346D01*
X161250500Y-146891346D01*
X161250500Y-144633985D01*
X176344120Y-144633985D01*
X176344120Y-144778935D01*
X176381636Y-144918945D01*
X176381637Y-144918948D01*
X176454108Y-145044471D01*
X176454110Y-145044473D01*
X176454111Y-145044475D01*
X176556605Y-145146969D01*
X176556606Y-145146970D01*
X176556608Y-145146971D01*
X176601929Y-145173137D01*
X176682135Y-145219444D01*
X176817864Y-145255812D01*
X176877522Y-145292176D01*
X176908051Y-145355023D01*
X176909768Y-145375586D01*
X176909768Y-145472475D01*
X176936029Y-145570480D01*
X176947285Y-145612488D01*
X177019756Y-145738011D01*
X177019758Y-145738013D01*
X177019759Y-145738015D01*
X177122253Y-145840509D01*
X177122254Y-145840510D01*
X177122256Y-145840511D01*
X177247779Y-145912982D01*
X177247780Y-145912982D01*
X177247783Y-145912984D01*
X177387793Y-145950500D01*
X177387796Y-145950500D01*
X177532740Y-145950500D01*
X177532743Y-145950500D01*
X177672753Y-145912984D01*
X177798283Y-145840509D01*
X177900777Y-145738015D01*
X177915508Y-145712499D01*
X177966075Y-145664284D01*
X178022895Y-145650500D01*
X181102725Y-145650500D01*
X181102727Y-145650500D01*
X181204588Y-145623207D01*
X181295913Y-145570480D01*
X181664755Y-145201635D01*
X181726075Y-145168153D01*
X181795767Y-145173137D01*
X181851701Y-145215008D01*
X181872208Y-145257224D01*
X181887015Y-145312483D01*
X181887017Y-145312488D01*
X181959488Y-145438011D01*
X181959490Y-145438013D01*
X181959491Y-145438015D01*
X182061985Y-145540509D01*
X182061986Y-145540510D01*
X182061988Y-145540511D01*
X182187511Y-145612982D01*
X182187512Y-145612982D01*
X182187515Y-145612984D01*
X182327525Y-145650500D01*
X182327528Y-145650500D01*
X182472472Y-145650500D01*
X182472475Y-145650500D01*
X182612485Y-145612984D01*
X182738015Y-145540509D01*
X182840509Y-145438015D01*
X182840513Y-145438007D01*
X182843202Y-145434504D01*
X182846235Y-145432288D01*
X182846256Y-145432268D01*
X182846259Y-145432271D01*
X182899626Y-145393297D01*
X182969372Y-145389137D01*
X183030295Y-145423345D01*
X183039958Y-145434495D01*
X183044109Y-145439905D01*
X183044111Y-145439908D01*
X183146605Y-145542402D01*
X183146606Y-145542403D01*
X183146608Y-145542404D01*
X183272131Y-145614875D01*
X183272132Y-145614875D01*
X183272135Y-145614877D01*
X183412145Y-145652393D01*
X183412148Y-145652393D01*
X183557092Y-145652393D01*
X183557095Y-145652393D01*
X183697105Y-145614877D01*
X183822635Y-145542402D01*
X183826325Y-145538712D01*
X183887648Y-145505227D01*
X183914006Y-145502393D01*
X183957938Y-145502393D01*
X183957940Y-145502393D01*
X184059801Y-145475100D01*
X184151126Y-145422373D01*
X185570480Y-144003019D01*
X185623207Y-143911694D01*
X185650500Y-143809833D01*
X185650500Y-143704379D01*
X185650500Y-142967253D01*
X185670185Y-142900214D01*
X185686814Y-142879577D01*
X188035703Y-140530687D01*
X188035708Y-140530684D01*
X188045911Y-140520480D01*
X188045913Y-140520480D01*
X188120480Y-140445913D01*
X188173207Y-140354587D01*
X188179634Y-140330601D01*
X188200501Y-140252727D01*
X188200501Y-140147273D01*
X188200500Y-140147269D01*
X188200500Y-139829386D01*
X188220185Y-139762347D01*
X188236819Y-139741705D01*
X188240509Y-139738015D01*
X188312984Y-139612485D01*
X188350500Y-139472475D01*
X188350500Y-139327525D01*
X188312984Y-139187515D01*
X188260198Y-139096088D01*
X188240511Y-139061988D01*
X188240506Y-139061982D01*
X188236819Y-139058295D01*
X188203334Y-138996972D01*
X188200500Y-138970614D01*
X188200500Y-138575321D01*
X193099500Y-138575321D01*
X193099500Y-140174678D01*
X193114032Y-140247735D01*
X193114033Y-140247739D01*
X193114034Y-140247740D01*
X193169399Y-140330601D01*
X193252260Y-140385966D01*
X193252264Y-140385967D01*
X193325321Y-140400499D01*
X193325324Y-140400500D01*
X193325326Y-140400500D01*
X194674676Y-140400500D01*
X194674677Y-140400499D01*
X194747740Y-140385966D01*
X194830601Y-140330601D01*
X194885966Y-140247740D01*
X194900500Y-140174674D01*
X194900500Y-138575326D01*
X194900500Y-138575323D01*
X194900499Y-138575321D01*
X197599500Y-138575321D01*
X197599500Y-140174678D01*
X197614032Y-140247735D01*
X197614033Y-140247739D01*
X197614034Y-140247740D01*
X197669399Y-140330601D01*
X197752260Y-140385966D01*
X197752264Y-140385967D01*
X197825321Y-140400499D01*
X197825324Y-140400500D01*
X197825326Y-140400500D01*
X199174676Y-140400500D01*
X199174677Y-140400499D01*
X199247740Y-140385966D01*
X199330601Y-140330601D01*
X199385966Y-140247740D01*
X199400500Y-140174674D01*
X199400500Y-138575326D01*
X199400500Y-138575323D01*
X199400499Y-138575321D01*
X199385967Y-138502264D01*
X199385966Y-138502260D01*
X199375156Y-138486081D01*
X199330601Y-138419399D01*
X199250479Y-138365864D01*
X199247739Y-138364033D01*
X199247735Y-138364032D01*
X199174677Y-138349500D01*
X199174674Y-138349500D01*
X197825326Y-138349500D01*
X197825323Y-138349500D01*
X197752264Y-138364032D01*
X197752260Y-138364033D01*
X197669399Y-138419399D01*
X197614033Y-138502260D01*
X197614032Y-138502264D01*
X197599500Y-138575321D01*
X194900499Y-138575321D01*
X194885967Y-138502264D01*
X194885966Y-138502260D01*
X194875156Y-138486081D01*
X194830601Y-138419399D01*
X194750479Y-138365864D01*
X194747739Y-138364033D01*
X194747735Y-138364032D01*
X194674677Y-138349500D01*
X194674674Y-138349500D01*
X193325326Y-138349500D01*
X193325323Y-138349500D01*
X193252264Y-138364032D01*
X193252260Y-138364033D01*
X193169399Y-138419399D01*
X193114033Y-138502260D01*
X193114032Y-138502264D01*
X193099500Y-138575321D01*
X188200500Y-138575321D01*
X188200500Y-133189933D01*
X188220185Y-133122894D01*
X188272989Y-133077139D01*
X188292394Y-133070162D01*
X188412485Y-133037984D01*
X188538015Y-132965509D01*
X188640509Y-132863015D01*
X188712984Y-132737485D01*
X188750500Y-132597475D01*
X188750500Y-132452525D01*
X188712984Y-132312515D01*
X188646098Y-132196666D01*
X188640511Y-132186988D01*
X188640506Y-132186982D01*
X188538017Y-132084493D01*
X188538011Y-132084488D01*
X188412488Y-132012017D01*
X188412489Y-132012017D01*
X188396949Y-132007853D01*
X188272475Y-131974500D01*
X188127525Y-131974500D01*
X188003051Y-132007853D01*
X187987511Y-132012017D01*
X187861988Y-132084488D01*
X187861982Y-132084493D01*
X187759493Y-132186982D01*
X187759488Y-132186988D01*
X187687017Y-132312511D01*
X187687016Y-132312515D01*
X187649500Y-132452525D01*
X187649500Y-132452527D01*
X187649500Y-132457745D01*
X187629815Y-132524784D01*
X187613181Y-132545426D01*
X187479522Y-132679084D01*
X187479518Y-132679090D01*
X187426792Y-132770412D01*
X187426793Y-132770413D01*
X187399500Y-132872273D01*
X187399500Y-138243126D01*
X187379815Y-138310165D01*
X187327011Y-138355920D01*
X187257853Y-138365864D01*
X187251309Y-138364743D01*
X187174677Y-138349500D01*
X187174674Y-138349500D01*
X185825326Y-138349500D01*
X185825323Y-138349500D01*
X185752264Y-138364032D01*
X185752260Y-138364033D01*
X185669399Y-138419399D01*
X185614033Y-138502260D01*
X185614032Y-138502264D01*
X185599500Y-138575321D01*
X185599500Y-140174678D01*
X185614032Y-140247735D01*
X185614033Y-140247739D01*
X185614034Y-140247740D01*
X185669399Y-140330601D01*
X185752260Y-140385966D01*
X185752264Y-140385967D01*
X185825321Y-140400499D01*
X185825324Y-140400500D01*
X185825326Y-140400500D01*
X186733746Y-140400500D01*
X186800785Y-140420185D01*
X186846540Y-140472989D01*
X186856484Y-140542147D01*
X186827459Y-140605703D01*
X186821427Y-140612181D01*
X185362181Y-142071426D01*
X185300858Y-142104911D01*
X185231166Y-142099927D01*
X185175233Y-142058055D01*
X185150816Y-141992591D01*
X185150500Y-141983745D01*
X185150500Y-140829386D01*
X185170185Y-140762347D01*
X185186819Y-140741705D01*
X185190509Y-140738015D01*
X185262984Y-140612485D01*
X185300500Y-140472475D01*
X185300500Y-140327525D01*
X185262984Y-140187515D01*
X185255571Y-140174676D01*
X185190511Y-140061988D01*
X185190506Y-140061982D01*
X185186819Y-140058295D01*
X185153334Y-139996972D01*
X185150500Y-139970614D01*
X185150500Y-136297275D01*
X185150500Y-136297273D01*
X185123207Y-136195413D01*
X185123207Y-136195412D01*
X185070480Y-136104087D01*
X183414699Y-134448306D01*
X183381214Y-134386983D01*
X183378380Y-134360625D01*
X183378380Y-134355407D01*
X183378380Y-134355405D01*
X183340864Y-134215395D01*
X183268389Y-134089865D01*
X183165895Y-133987371D01*
X183165893Y-133987370D01*
X183165891Y-133987368D01*
X183040368Y-133914897D01*
X183040369Y-133914897D01*
X183028886Y-133911820D01*
X182900355Y-133877380D01*
X182755405Y-133877380D01*
X182626873Y-133911820D01*
X182615391Y-133914897D01*
X182489868Y-133987368D01*
X182489862Y-133987373D01*
X182387373Y-134089862D01*
X182387368Y-134089868D01*
X182314897Y-134215391D01*
X182314896Y-134215395D01*
X182277380Y-134355405D01*
X182277380Y-134500355D01*
X182314896Y-134640365D01*
X182314897Y-134640368D01*
X182387368Y-134765891D01*
X182387370Y-134765893D01*
X182387371Y-134765895D01*
X182489865Y-134868389D01*
X182489866Y-134868390D01*
X182489868Y-134868391D01*
X182615391Y-134940862D01*
X182615392Y-134940862D01*
X182615395Y-134940864D01*
X182755405Y-134978380D01*
X182760625Y-134978380D01*
X182827664Y-134998065D01*
X182848306Y-135014699D01*
X184313181Y-136479574D01*
X184346666Y-136540897D01*
X184349500Y-136567255D01*
X184349500Y-139970614D01*
X184329815Y-140037653D01*
X184313181Y-140058295D01*
X184309493Y-140061982D01*
X184309488Y-140061988D01*
X184237017Y-140187511D01*
X184237016Y-140187515D01*
X184199500Y-140327525D01*
X184199500Y-140472475D01*
X184218169Y-140542147D01*
X184237017Y-140612488D01*
X184309488Y-140738011D01*
X184309493Y-140738017D01*
X184313181Y-140741705D01*
X184346666Y-140803028D01*
X184349500Y-140829386D01*
X184349500Y-143332745D01*
X184329815Y-143399784D01*
X184313181Y-143420426D01*
X184057181Y-143676426D01*
X183995858Y-143709911D01*
X183926166Y-143704927D01*
X183870233Y-143663055D01*
X183845816Y-143597591D01*
X183845500Y-143588745D01*
X183845500Y-143587033D01*
X183845500Y-143587032D01*
X183814458Y-143471184D01*
X183754490Y-143367317D01*
X183669683Y-143282510D01*
X183565816Y-143222542D01*
X183449968Y-143191500D01*
X183330032Y-143191500D01*
X183252800Y-143212194D01*
X183214183Y-143222542D01*
X183110317Y-143282510D01*
X183023356Y-143369471D01*
X182962032Y-143402955D01*
X182892341Y-143397971D01*
X182847994Y-143369470D01*
X182838017Y-143359493D01*
X182838011Y-143359488D01*
X182712488Y-143287017D01*
X182712489Y-143287017D01*
X182695676Y-143282512D01*
X182572475Y-143249500D01*
X182427525Y-143249500D01*
X182304324Y-143282512D01*
X182287511Y-143287017D01*
X182161988Y-143359488D01*
X182161982Y-143359493D01*
X182059493Y-143461982D01*
X182059488Y-143461988D01*
X181987017Y-143587511D01*
X181987016Y-143587515D01*
X181949500Y-143727525D01*
X181949500Y-143727527D01*
X181949500Y-143732745D01*
X181929815Y-143799784D01*
X181913181Y-143820426D01*
X180920426Y-144813181D01*
X180859103Y-144846666D01*
X180832745Y-144849500D01*
X179416255Y-144849500D01*
X179395009Y-144843261D01*
X179372921Y-144841682D01*
X179362137Y-144833609D01*
X179349216Y-144829815D01*
X179334716Y-144813081D01*
X179316988Y-144799810D01*
X179312280Y-144787189D01*
X179303461Y-144777011D01*
X179300309Y-144755093D01*
X179292571Y-144734346D01*
X179295433Y-144721185D01*
X179293517Y-144707853D01*
X179302716Y-144687709D01*
X179307423Y-144666073D01*
X179320691Y-144648347D01*
X179322542Y-144644297D01*
X179328574Y-144637819D01*
X179379574Y-144586819D01*
X179440897Y-144553334D01*
X179467255Y-144550500D01*
X179472472Y-144550500D01*
X179472475Y-144550500D01*
X179612485Y-144512984D01*
X179738015Y-144440509D01*
X179840509Y-144338015D01*
X179912984Y-144212485D01*
X179950500Y-144072475D01*
X179950500Y-143927525D01*
X179912984Y-143787515D01*
X179911016Y-143784107D01*
X179840511Y-143661988D01*
X179840506Y-143661982D01*
X179738017Y-143559493D01*
X179738011Y-143559488D01*
X179612488Y-143487017D01*
X179612489Y-143487017D01*
X179601006Y-143483940D01*
X179472475Y-143449500D01*
X179327525Y-143449500D01*
X179198993Y-143483940D01*
X179187511Y-143487017D01*
X179061988Y-143559488D01*
X179061982Y-143559493D01*
X178959493Y-143661982D01*
X178959488Y-143661988D01*
X178887017Y-143787511D01*
X178887016Y-143787515D01*
X178849500Y-143927525D01*
X178849500Y-143927527D01*
X178849500Y-143932745D01*
X178829815Y-143999784D01*
X178813181Y-144020426D01*
X178520426Y-144313181D01*
X178459103Y-144346666D01*
X178432745Y-144349500D01*
X177367546Y-144349500D01*
X177300507Y-144329815D01*
X177279865Y-144313181D01*
X177232637Y-144265953D01*
X177232631Y-144265948D01*
X177107108Y-144193477D01*
X177107109Y-144193477D01*
X177095626Y-144190400D01*
X176967095Y-144155960D01*
X176822145Y-144155960D01*
X176693613Y-144190400D01*
X176682131Y-144193477D01*
X176556608Y-144265948D01*
X176556602Y-144265953D01*
X176454113Y-144368442D01*
X176454108Y-144368448D01*
X176381637Y-144493971D01*
X176381636Y-144493975D01*
X176344120Y-144633985D01*
X161250500Y-144633985D01*
X161250500Y-141623361D01*
X161270185Y-141556322D01*
X161322989Y-141510567D01*
X161392147Y-141500623D01*
X161455703Y-141529648D01*
X161462181Y-141535680D01*
X162520583Y-142594082D01*
X162554068Y-142655405D01*
X162552678Y-142713852D01*
X162545052Y-142742314D01*
X162545052Y-142742316D01*
X162545052Y-142887266D01*
X162566485Y-142967253D01*
X162582569Y-143027279D01*
X162655040Y-143152802D01*
X162655042Y-143152804D01*
X162655043Y-143152806D01*
X162757537Y-143255300D01*
X162757538Y-143255301D01*
X162757540Y-143255302D01*
X162883063Y-143327773D01*
X162883064Y-143327773D01*
X162883067Y-143327775D01*
X163023077Y-143365291D01*
X163023080Y-143365291D01*
X163168024Y-143365291D01*
X163168027Y-143365291D01*
X163308037Y-143327775D01*
X163433567Y-143255300D01*
X163536061Y-143152806D01*
X163608536Y-143027276D01*
X163646052Y-142887266D01*
X163646052Y-142742316D01*
X163608536Y-142602306D01*
X163536061Y-142476776D01*
X163433567Y-142374282D01*
X163427821Y-142368536D01*
X163428173Y-142368183D01*
X163422130Y-142362139D01*
X163421779Y-142362491D01*
X162186813Y-141127525D01*
X164949500Y-141127525D01*
X164949500Y-141272475D01*
X164987016Y-141412485D01*
X164987017Y-141412488D01*
X165059488Y-141538011D01*
X165059490Y-141538013D01*
X165059491Y-141538015D01*
X165161985Y-141640509D01*
X165161986Y-141640510D01*
X165161988Y-141640511D01*
X165287511Y-141712982D01*
X165287512Y-141712982D01*
X165287515Y-141712984D01*
X165427525Y-141750500D01*
X165427528Y-141750500D01*
X165572472Y-141750500D01*
X165572475Y-141750500D01*
X165712485Y-141712984D01*
X165838015Y-141640509D01*
X165940509Y-141538015D01*
X165976706Y-141475321D01*
X166849500Y-141475321D01*
X166849500Y-143924678D01*
X166864032Y-143997735D01*
X166864033Y-143997739D01*
X166873221Y-144011490D01*
X166919399Y-144080601D01*
X167002260Y-144135966D01*
X167002264Y-144135967D01*
X167075321Y-144150499D01*
X167075324Y-144150500D01*
X167075326Y-144150500D01*
X168424676Y-144150500D01*
X168424677Y-144150499D01*
X168497740Y-144135966D01*
X168580601Y-144080601D01*
X168635966Y-143997740D01*
X168650500Y-143924674D01*
X168650500Y-141867255D01*
X168670185Y-141800216D01*
X168686819Y-141779574D01*
X168991072Y-141475321D01*
X169320480Y-141145913D01*
X169373207Y-141054588D01*
X169397037Y-140965649D01*
X169433400Y-140905991D01*
X169496247Y-140875461D01*
X169565622Y-140883755D01*
X169604492Y-140910063D01*
X169672776Y-140978347D01*
X169821078Y-141077439D01*
X169821082Y-141077441D01*
X169821085Y-141077443D01*
X169985875Y-141145702D01*
X170100247Y-141168452D01*
X170160811Y-141180499D01*
X170160814Y-141180500D01*
X170160816Y-141180500D01*
X170339186Y-141180500D01*
X170339187Y-141180499D01*
X170514125Y-141145702D01*
X170678915Y-141077443D01*
X170818738Y-140984017D01*
X170827224Y-140978347D01*
X170827225Y-140978345D01*
X170953348Y-140852222D01*
X171052439Y-140703921D01*
X171052439Y-140703920D01*
X171052443Y-140703915D01*
X171120702Y-140539125D01*
X171155500Y-140364184D01*
X171155500Y-139435816D01*
X171155500Y-139435813D01*
X171155499Y-139435811D01*
X171133960Y-139327527D01*
X171120702Y-139260875D01*
X171052443Y-139096085D01*
X171052441Y-139096082D01*
X171052439Y-139096078D01*
X170953348Y-138947777D01*
X170827222Y-138821651D01*
X170678921Y-138722560D01*
X170678911Y-138722555D01*
X170585336Y-138683795D01*
X170554719Y-138671113D01*
X170514125Y-138654298D01*
X170514117Y-138654296D01*
X170339187Y-138619500D01*
X170339184Y-138619500D01*
X170296254Y-138619500D01*
X170229215Y-138599815D01*
X170207991Y-138575321D01*
X171599500Y-138575321D01*
X171599500Y-140174678D01*
X171614032Y-140247735D01*
X171614033Y-140247739D01*
X171614034Y-140247740D01*
X171669399Y-140330601D01*
X171752260Y-140385966D01*
X171752264Y-140385967D01*
X171825321Y-140400499D01*
X171825324Y-140400500D01*
X171825326Y-140400500D01*
X172914701Y-140400500D01*
X172981740Y-140420185D01*
X173027495Y-140472989D01*
X173037439Y-140542147D01*
X173008414Y-140605703D01*
X173002382Y-140612181D01*
X172429522Y-141185040D01*
X172429517Y-141185046D01*
X172428099Y-141187504D01*
X172426359Y-141189162D01*
X172424572Y-141191492D01*
X172424208Y-141191213D01*
X172377530Y-141235718D01*
X172320714Y-141249500D01*
X172075323Y-141249500D01*
X172002264Y-141264032D01*
X172002260Y-141264033D01*
X171919399Y-141319399D01*
X171864033Y-141402260D01*
X171864032Y-141402264D01*
X171849500Y-141475321D01*
X171849500Y-143924678D01*
X171864032Y-143997735D01*
X171864033Y-143997739D01*
X171873221Y-144011490D01*
X171919399Y-144080601D01*
X172002260Y-144135966D01*
X172002264Y-144135967D01*
X172075321Y-144150499D01*
X172075324Y-144150500D01*
X172075326Y-144150500D01*
X173424676Y-144150500D01*
X173424677Y-144150499D01*
X173497740Y-144135966D01*
X173580601Y-144080601D01*
X173635966Y-143997740D01*
X173650500Y-143924674D01*
X173650500Y-143587032D01*
X177154500Y-143587032D01*
X177154500Y-143706968D01*
X177185542Y-143822816D01*
X177245510Y-143926683D01*
X177330317Y-144011490D01*
X177434184Y-144071458D01*
X177550032Y-144102500D01*
X177669968Y-144102500D01*
X177785816Y-144071458D01*
X177889683Y-144011490D01*
X177974490Y-143926683D01*
X178034458Y-143822816D01*
X178065500Y-143706968D01*
X178065500Y-143587032D01*
X178034458Y-143471184D01*
X177974490Y-143367317D01*
X177889683Y-143282510D01*
X177785816Y-143222542D01*
X177669968Y-143191500D01*
X177550032Y-143191500D01*
X177472800Y-143212194D01*
X177434183Y-143222542D01*
X177330317Y-143282510D01*
X177330314Y-143282512D01*
X177245512Y-143367314D01*
X177245510Y-143367317D01*
X177185542Y-143471183D01*
X177185542Y-143471184D01*
X177154500Y-143587032D01*
X173650500Y-143587032D01*
X173650500Y-141475326D01*
X173650500Y-141475323D01*
X173650499Y-141475321D01*
X173646828Y-141456863D01*
X173646827Y-141456861D01*
X173640395Y-141424525D01*
X177549500Y-141424525D01*
X177549500Y-141569475D01*
X177587016Y-141709485D01*
X177659490Y-141835015D01*
X177864985Y-142040510D01*
X177990515Y-142112984D01*
X178130525Y-142150500D01*
X178130526Y-142150500D01*
X178130528Y-142150500D01*
X182369472Y-142150500D01*
X182369474Y-142150500D01*
X182369475Y-142150500D01*
X182509485Y-142112984D01*
X182635015Y-142040510D01*
X182840510Y-141835015D01*
X182912984Y-141709485D01*
X182950500Y-141569475D01*
X182950500Y-141424525D01*
X182912984Y-141284515D01*
X182894631Y-141252727D01*
X182840510Y-141158985D01*
X182738015Y-141056490D01*
X182612485Y-140984016D01*
X182612482Y-140984015D01*
X182591333Y-140978347D01*
X182591333Y-140978348D01*
X182495714Y-140952727D01*
X182472475Y-140946500D01*
X182327525Y-140946500D01*
X182208667Y-140978348D01*
X182208666Y-140978347D01*
X182187517Y-140984015D01*
X182187512Y-140984017D01*
X182141969Y-141010311D01*
X182102865Y-141032887D01*
X182040868Y-141049500D01*
X178459132Y-141049500D01*
X178397134Y-141032887D01*
X178312485Y-140984016D01*
X178312483Y-140984015D01*
X178312482Y-140984015D01*
X178291333Y-140978347D01*
X178291333Y-140978348D01*
X178195714Y-140952727D01*
X178172475Y-140946500D01*
X178027525Y-140946500D01*
X177908667Y-140978348D01*
X177908666Y-140978347D01*
X177887517Y-140984015D01*
X177887514Y-140984016D01*
X177761986Y-141056489D01*
X177761983Y-141056491D01*
X177659489Y-141158985D01*
X177640883Y-141191213D01*
X177608869Y-141246666D01*
X177605370Y-141252726D01*
X177605368Y-141252729D01*
X177587017Y-141284512D01*
X177587016Y-141284514D01*
X177587016Y-141284515D01*
X177549500Y-141424525D01*
X173640395Y-141424525D01*
X173635966Y-141402260D01*
X173580601Y-141319399D01*
X173577178Y-141317112D01*
X173568114Y-141298924D01*
X173563297Y-141271959D01*
X173555115Y-141245826D01*
X173557244Y-141238065D01*
X173555829Y-141230143D01*
X173566354Y-141204855D01*
X173573600Y-141178446D01*
X173581507Y-141168452D01*
X173582679Y-141165638D01*
X173585010Y-141164024D01*
X173591410Y-141155936D01*
X173618754Y-141128594D01*
X173680078Y-141095111D01*
X173706432Y-141092278D01*
X173711650Y-141092278D01*
X173711653Y-141092278D01*
X173851663Y-141054762D01*
X173977193Y-140982287D01*
X174079687Y-140879793D01*
X174152162Y-140754263D01*
X174189678Y-140614253D01*
X174189678Y-140469303D01*
X174152162Y-140329293D01*
X174151142Y-140327527D01*
X174079689Y-140203766D01*
X174079684Y-140203760D01*
X173977195Y-140101271D01*
X173977189Y-140101266D01*
X173851666Y-140028795D01*
X173851667Y-140028795D01*
X173826218Y-140021976D01*
X173711653Y-139991278D01*
X173566703Y-139991278D01*
X173566698Y-139991278D01*
X173556591Y-139993987D01*
X173486741Y-139992323D01*
X173428880Y-139953160D01*
X173401377Y-139888931D01*
X173400500Y-139874212D01*
X173400500Y-138575323D01*
X173400499Y-138575321D01*
X181099500Y-138575321D01*
X181099500Y-140174678D01*
X181114032Y-140247735D01*
X181114033Y-140247739D01*
X181114034Y-140247740D01*
X181169399Y-140330601D01*
X181252260Y-140385966D01*
X181252264Y-140385967D01*
X181325321Y-140400499D01*
X181325324Y-140400500D01*
X181325326Y-140400500D01*
X182674676Y-140400500D01*
X182674677Y-140400499D01*
X182747740Y-140385966D01*
X182830601Y-140330601D01*
X182885966Y-140247740D01*
X182900500Y-140174674D01*
X182900500Y-138575326D01*
X182900500Y-138575323D01*
X182900499Y-138575321D01*
X182885967Y-138502264D01*
X182885966Y-138502260D01*
X182875156Y-138486081D01*
X182830601Y-138419399D01*
X182750479Y-138365864D01*
X182747739Y-138364033D01*
X182747735Y-138364032D01*
X182674677Y-138349500D01*
X182674674Y-138349500D01*
X181325326Y-138349500D01*
X181325323Y-138349500D01*
X181252264Y-138364032D01*
X181252260Y-138364033D01*
X181169399Y-138419399D01*
X181114033Y-138502260D01*
X181114032Y-138502264D01*
X181099500Y-138575321D01*
X173400499Y-138575321D01*
X173385967Y-138502264D01*
X173385966Y-138502260D01*
X173375156Y-138486081D01*
X173330601Y-138419399D01*
X173250479Y-138365864D01*
X173247739Y-138364033D01*
X173247735Y-138364032D01*
X173174677Y-138349500D01*
X173174674Y-138349500D01*
X171825326Y-138349500D01*
X171825323Y-138349500D01*
X171752264Y-138364032D01*
X171752260Y-138364033D01*
X171669399Y-138419399D01*
X171614033Y-138502260D01*
X171614032Y-138502264D01*
X171599500Y-138575321D01*
X170207991Y-138575321D01*
X170183460Y-138547011D01*
X170173516Y-138477853D01*
X170202541Y-138414297D01*
X170208573Y-138407819D01*
X170250529Y-138365864D01*
X170479574Y-138136819D01*
X170540897Y-138103334D01*
X170567255Y-138100500D01*
X173248184Y-138100500D01*
X173248186Y-138100500D01*
X173350047Y-138073207D01*
X173441372Y-138020480D01*
X173450042Y-138011810D01*
X173511365Y-137978325D01*
X173537723Y-137975491D01*
X173542940Y-137975491D01*
X173542943Y-137975491D01*
X173682953Y-137937975D01*
X173808483Y-137865500D01*
X173910977Y-137763006D01*
X173983452Y-137637476D01*
X174020968Y-137497466D01*
X174020968Y-137352516D01*
X173983452Y-137212506D01*
X173983151Y-137211985D01*
X173910979Y-137086979D01*
X173910974Y-137086973D01*
X173808485Y-136984484D01*
X173808479Y-136984479D01*
X173682956Y-136912008D01*
X173682957Y-136912008D01*
X173671474Y-136908931D01*
X173542943Y-136874491D01*
X173397993Y-136874491D01*
X173269461Y-136908931D01*
X173257979Y-136912008D01*
X173132456Y-136984479D01*
X173132450Y-136984484D01*
X173029961Y-137086973D01*
X173029956Y-137086979D01*
X172957485Y-137212502D01*
X172954376Y-137220010D01*
X172951864Y-137218969D01*
X172922443Y-137267248D01*
X172859598Y-137297782D01*
X172839026Y-137299500D01*
X170297273Y-137299500D01*
X170195413Y-137326793D01*
X170195410Y-137326794D01*
X170116656Y-137372263D01*
X170104090Y-137379517D01*
X170104085Y-137379521D01*
X169031010Y-138452596D01*
X168969687Y-138486081D01*
X168899995Y-138481097D01*
X168844062Y-138439225D01*
X168840227Y-138433805D01*
X168830602Y-138419400D01*
X168747739Y-138364033D01*
X168747735Y-138364032D01*
X168674677Y-138349500D01*
X168674674Y-138349500D01*
X167325326Y-138349500D01*
X167325323Y-138349500D01*
X167252264Y-138364032D01*
X167252260Y-138364033D01*
X167169399Y-138419399D01*
X167114033Y-138502260D01*
X167114032Y-138502264D01*
X167099500Y-138575321D01*
X167099500Y-140174678D01*
X167114032Y-140247735D01*
X167114033Y-140247739D01*
X167114034Y-140247740D01*
X167169399Y-140330601D01*
X167252260Y-140385966D01*
X167252264Y-140385967D01*
X167325321Y-140400499D01*
X167325324Y-140400500D01*
X167325326Y-140400500D01*
X168475500Y-140400500D01*
X168484185Y-140403050D01*
X168493147Y-140401762D01*
X168517187Y-140412740D01*
X168542539Y-140420185D01*
X168548466Y-140427025D01*
X168556703Y-140430787D01*
X168570992Y-140453021D01*
X168588294Y-140472989D01*
X168590581Y-140483503D01*
X168594477Y-140489565D01*
X168599500Y-140524500D01*
X168599500Y-140682745D01*
X168579815Y-140749784D01*
X168563181Y-140770426D01*
X168120426Y-141213181D01*
X168059103Y-141246666D01*
X168032745Y-141249500D01*
X167075323Y-141249500D01*
X167002264Y-141264032D01*
X167002260Y-141264033D01*
X166919399Y-141319399D01*
X166864033Y-141402260D01*
X166864032Y-141402264D01*
X166849500Y-141475321D01*
X165976706Y-141475321D01*
X166012984Y-141412485D01*
X166050500Y-141272475D01*
X166050500Y-141127525D01*
X166012984Y-140987515D01*
X166010964Y-140984017D01*
X165940511Y-140861988D01*
X165940506Y-140861982D01*
X165936819Y-140858295D01*
X165903334Y-140796972D01*
X165900500Y-140770614D01*
X165900500Y-138617254D01*
X165920185Y-138550215D01*
X165936819Y-138529573D01*
X166329573Y-138136819D01*
X166390896Y-138103334D01*
X166417254Y-138100500D01*
X166422472Y-138100500D01*
X166422475Y-138100500D01*
X166562485Y-138062984D01*
X166688015Y-137990509D01*
X166790509Y-137888015D01*
X166862984Y-137762485D01*
X166900500Y-137622475D01*
X166900500Y-137477525D01*
X166862984Y-137337515D01*
X166856794Y-137326794D01*
X166790511Y-137211988D01*
X166790506Y-137211982D01*
X166688017Y-137109493D01*
X166688011Y-137109488D01*
X166562488Y-137037017D01*
X166562489Y-137037017D01*
X166551006Y-137033940D01*
X166422475Y-136999500D01*
X166277525Y-136999500D01*
X166148993Y-137033940D01*
X166137511Y-137037017D01*
X166011988Y-137109488D01*
X166011982Y-137109493D01*
X165909493Y-137211982D01*
X165909488Y-137211988D01*
X165837017Y-137337511D01*
X165837016Y-137337515D01*
X165799500Y-137477525D01*
X165799500Y-137477527D01*
X165799500Y-137482745D01*
X165779815Y-137549784D01*
X165763181Y-137570426D01*
X165179522Y-138154084D01*
X165179518Y-138154090D01*
X165126793Y-138245410D01*
X165124045Y-138255665D01*
X165109443Y-138310165D01*
X165099500Y-138347273D01*
X165099500Y-140770614D01*
X165079815Y-140837653D01*
X165063181Y-140858295D01*
X165059493Y-140861982D01*
X165059488Y-140861988D01*
X164987017Y-140987511D01*
X164987016Y-140987515D01*
X164949500Y-141127525D01*
X162186813Y-141127525D01*
X162036819Y-140977531D01*
X162003334Y-140916208D01*
X162000500Y-140889850D01*
X162000500Y-135323122D01*
X167469500Y-135323122D01*
X167469500Y-135476877D01*
X167499491Y-135627656D01*
X167499494Y-135627665D01*
X167558326Y-135769701D01*
X167558327Y-135769703D01*
X167643745Y-135897539D01*
X167643748Y-135897543D01*
X167752456Y-136006251D01*
X167752460Y-136006254D01*
X167880294Y-136091671D01*
X167880295Y-136091671D01*
X167880296Y-136091672D01*
X167880298Y-136091673D01*
X167910269Y-136104087D01*
X168022336Y-136150506D01*
X168022338Y-136150506D01*
X168022343Y-136150508D01*
X168173122Y-136180499D01*
X168173126Y-136180500D01*
X168173127Y-136180500D01*
X168326874Y-136180500D01*
X168326875Y-136180499D01*
X168377136Y-136170502D01*
X168477656Y-136150508D01*
X168477659Y-136150506D01*
X168477664Y-136150506D01*
X168619706Y-136091671D01*
X168747540Y-136006254D01*
X168856254Y-135897540D01*
X168941671Y-135769706D01*
X168941672Y-135769703D01*
X168943278Y-135767300D01*
X168996890Y-135722494D01*
X169066215Y-135713787D01*
X169129242Y-135743941D01*
X169164310Y-135797870D01*
X169179155Y-135843558D01*
X169235274Y-135953696D01*
X169260424Y-136003055D01*
X169261730Y-136005617D01*
X169368628Y-136152751D01*
X169368632Y-136152756D01*
X169497243Y-136281367D01*
X169497248Y-136281371D01*
X169625586Y-136374613D01*
X169644386Y-136388272D01*
X169747645Y-136440885D01*
X169806437Y-136470842D01*
X169806439Y-136470842D01*
X169806442Y-136470844D01*
X169899162Y-136500970D01*
X169979419Y-136527048D01*
X170159055Y-136555500D01*
X170159060Y-136555500D01*
X170340945Y-136555500D01*
X170520580Y-136527048D01*
X170693558Y-136470844D01*
X170855614Y-136388272D01*
X171002758Y-136281366D01*
X171131366Y-136152758D01*
X171238272Y-136005614D01*
X171320844Y-135843558D01*
X171377048Y-135670580D01*
X171383845Y-135627664D01*
X171405500Y-135490945D01*
X171405500Y-135309054D01*
X171377048Y-135129419D01*
X171327972Y-134978380D01*
X171320844Y-134956442D01*
X171320842Y-134956439D01*
X171320842Y-134956437D01*
X171277523Y-134871420D01*
X171238272Y-134794386D01*
X171202862Y-134745648D01*
X171131371Y-134647248D01*
X171131367Y-134647243D01*
X171002756Y-134518632D01*
X171002751Y-134518628D01*
X170855617Y-134411730D01*
X170855616Y-134411729D01*
X170855614Y-134411728D01*
X170778574Y-134372474D01*
X170693562Y-134329157D01*
X170520580Y-134272951D01*
X170340945Y-134244500D01*
X170340940Y-134244500D01*
X170159060Y-134244500D01*
X170159055Y-134244500D01*
X169979419Y-134272951D01*
X169806437Y-134329157D01*
X169644382Y-134411730D01*
X169497248Y-134518628D01*
X169497243Y-134518632D01*
X169368632Y-134647243D01*
X169368628Y-134647248D01*
X169261730Y-134794382D01*
X169179156Y-134956440D01*
X169164310Y-135002130D01*
X169124871Y-135059804D01*
X169060512Y-135087001D01*
X168991666Y-135075085D01*
X168943278Y-135032700D01*
X168941672Y-135030296D01*
X168941671Y-135030294D01*
X168856254Y-134902460D01*
X168856251Y-134902456D01*
X168747543Y-134793748D01*
X168747539Y-134793745D01*
X168619703Y-134708327D01*
X168619701Y-134708326D01*
X168477665Y-134649494D01*
X168477656Y-134649491D01*
X168326877Y-134619500D01*
X168326873Y-134619500D01*
X168173127Y-134619500D01*
X168173122Y-134619500D01*
X168022343Y-134649491D01*
X168022334Y-134649494D01*
X167880298Y-134708326D01*
X167880296Y-134708327D01*
X167752460Y-134793745D01*
X167752456Y-134793748D01*
X167643748Y-134902456D01*
X167643745Y-134902460D01*
X167558327Y-135030296D01*
X167558326Y-135030298D01*
X167499494Y-135172334D01*
X167499491Y-135172343D01*
X167469500Y-135323122D01*
X162000500Y-135323122D01*
X162000500Y-127965351D01*
X162020185Y-127898312D01*
X162036814Y-127877675D01*
X164435703Y-125478785D01*
X164435708Y-125478782D01*
X164445911Y-125468578D01*
X164445913Y-125468578D01*
X164520480Y-125394011D01*
X164573207Y-125302685D01*
X164581106Y-125273207D01*
X164600501Y-125200825D01*
X164600501Y-125095371D01*
X164600501Y-125087776D01*
X164600500Y-125087758D01*
X164600500Y-122128387D01*
X164620185Y-122061348D01*
X164672989Y-122015593D01*
X164742147Y-122005649D01*
X164805703Y-122034674D01*
X164812181Y-122040706D01*
X165918243Y-123146768D01*
X165951728Y-123208091D01*
X165946744Y-123277783D01*
X165904872Y-123333716D01*
X165892565Y-123341834D01*
X165861991Y-123359487D01*
X165861982Y-123359493D01*
X165759493Y-123461982D01*
X165759488Y-123461988D01*
X165687017Y-123587511D01*
X165687016Y-123587515D01*
X165649500Y-123727525D01*
X165649500Y-123872475D01*
X165679645Y-123984976D01*
X165687017Y-124012488D01*
X165759488Y-124138011D01*
X165759490Y-124138013D01*
X165759491Y-124138015D01*
X165861985Y-124240509D01*
X165861986Y-124240510D01*
X165861988Y-124240511D01*
X165987511Y-124312982D01*
X165987512Y-124312982D01*
X165987515Y-124312984D01*
X166127525Y-124350500D01*
X166127528Y-124350500D01*
X166272474Y-124350500D01*
X166272475Y-124350500D01*
X166315624Y-124338938D01*
X166385474Y-124340600D01*
X166435400Y-124371031D01*
X168334849Y-126270480D01*
X168426174Y-126323207D01*
X168528035Y-126350500D01*
X168920614Y-126350500D01*
X168987653Y-126370185D01*
X168992475Y-126373446D01*
X169000945Y-126379469D01*
X169011985Y-126390509D01*
X169035826Y-126404273D01*
X169040612Y-126407677D01*
X169058744Y-126430702D01*
X169078967Y-126451912D01*
X169080107Y-126457831D01*
X169083839Y-126462570D01*
X169086643Y-126491746D01*
X169092189Y-126520520D01*
X169089948Y-126526117D01*
X169090525Y-126532119D01*
X169077114Y-126558173D01*
X169066221Y-126585384D01*
X169058814Y-126593727D01*
X169058550Y-126594242D01*
X169058155Y-126594469D01*
X169056432Y-126596412D01*
X168684237Y-126968607D01*
X168622914Y-127002092D01*
X168553222Y-126997108D01*
X168527668Y-126984030D01*
X168497741Y-126964034D01*
X168497735Y-126964032D01*
X168424677Y-126949500D01*
X168424674Y-126949500D01*
X167075326Y-126949500D01*
X167075323Y-126949500D01*
X167002264Y-126964032D01*
X167002260Y-126964033D01*
X166919399Y-127019399D01*
X166864033Y-127102260D01*
X166864032Y-127102264D01*
X166849500Y-127175321D01*
X166849500Y-129624678D01*
X166864032Y-129697735D01*
X166864033Y-129697739D01*
X166864034Y-129697740D01*
X166919399Y-129780601D01*
X167002260Y-129835966D01*
X167002264Y-129835967D01*
X167075321Y-129850499D01*
X167075324Y-129850500D01*
X167075326Y-129850500D01*
X167075500Y-129850500D01*
X167075589Y-129850526D01*
X167081386Y-129851097D01*
X167081277Y-129852196D01*
X167142539Y-129870185D01*
X167188294Y-129922989D01*
X167199500Y-129974500D01*
X167199500Y-130387935D01*
X167179815Y-130454974D01*
X167175261Y-130460624D01*
X167114034Y-130552260D01*
X167114032Y-130552264D01*
X167099500Y-130625321D01*
X167099500Y-132224678D01*
X167114032Y-132297735D01*
X167114033Y-132297739D01*
X167114034Y-132297740D01*
X167169399Y-132380601D01*
X167235230Y-132424587D01*
X167252260Y-132435966D01*
X167252264Y-132435967D01*
X167325321Y-132450499D01*
X167325324Y-132450500D01*
X167325326Y-132450500D01*
X168674676Y-132450500D01*
X168674677Y-132450499D01*
X168747740Y-132435966D01*
X168830601Y-132380601D01*
X168885966Y-132297740D01*
X168895997Y-132247309D01*
X168928380Y-132185400D01*
X168989096Y-132150825D01*
X169058865Y-132154564D01*
X169105295Y-132183820D01*
X171661985Y-134740510D01*
X171661986Y-134740511D01*
X171661988Y-134740512D01*
X171684448Y-134753479D01*
X171755302Y-134794386D01*
X171787515Y-134812984D01*
X171927525Y-134850500D01*
X171927526Y-134850500D01*
X171927528Y-134850500D01*
X172066745Y-134850500D01*
X172133784Y-134870185D01*
X172179539Y-134922989D01*
X172189483Y-134992147D01*
X172169847Y-135043392D01*
X172146948Y-135077661D01*
X172146944Y-135077667D01*
X172095651Y-135201503D01*
X172095648Y-135201512D01*
X172069500Y-135332972D01*
X172069500Y-135467027D01*
X172095648Y-135598487D01*
X172095651Y-135598496D01*
X172146944Y-135722332D01*
X172146951Y-135722344D01*
X172221420Y-135833793D01*
X172221423Y-135833797D01*
X172316202Y-135928576D01*
X172316206Y-135928579D01*
X172427655Y-136003048D01*
X172427667Y-136003055D01*
X172532196Y-136046351D01*
X172551505Y-136054349D01*
X172551507Y-136054349D01*
X172551512Y-136054351D01*
X172682972Y-136080499D01*
X172682976Y-136080500D01*
X172682977Y-136080500D01*
X172817024Y-136080500D01*
X172817025Y-136080499D01*
X172860847Y-136071783D01*
X172948487Y-136054351D01*
X172948490Y-136054349D01*
X172948495Y-136054349D01*
X173014411Y-136027045D01*
X173072332Y-136003055D01*
X173072335Y-136003053D01*
X173072338Y-136003052D01*
X173183794Y-135928579D01*
X173278579Y-135833794D01*
X173353052Y-135722338D01*
X173353053Y-135722335D01*
X173353055Y-135722332D01*
X173392270Y-135627656D01*
X173404349Y-135598495D01*
X173430500Y-135467023D01*
X173430500Y-135332977D01*
X173425743Y-135309060D01*
X173404351Y-135201512D01*
X173404348Y-135201503D01*
X173353055Y-135077667D01*
X173353048Y-135077655D01*
X173278579Y-134966206D01*
X173278576Y-134966202D01*
X173183797Y-134871423D01*
X173183793Y-134871420D01*
X173072344Y-134796951D01*
X173072332Y-134796944D01*
X172948496Y-134745651D01*
X172948487Y-134745648D01*
X172817027Y-134719500D01*
X172817023Y-134719500D01*
X172682977Y-134719500D01*
X172655633Y-134724939D01*
X172624316Y-134731168D01*
X172554724Y-134724939D01*
X172499548Y-134682076D01*
X172476304Y-134616186D01*
X172492372Y-134548189D01*
X172492739Y-134547550D01*
X172512984Y-134512485D01*
X172550500Y-134372474D01*
X172550500Y-134227526D01*
X172547249Y-134215395D01*
X172512984Y-134087515D01*
X172494023Y-134054673D01*
X172440510Y-133961985D01*
X169806050Y-131327525D01*
X170599500Y-131327525D01*
X170599500Y-131472475D01*
X170622739Y-131559202D01*
X170637016Y-131612484D01*
X170637017Y-131612487D01*
X170709488Y-131738011D01*
X170709490Y-131738013D01*
X170709491Y-131738015D01*
X170811985Y-131840509D01*
X170811986Y-131840510D01*
X170811988Y-131840511D01*
X170937511Y-131912982D01*
X170937512Y-131912982D01*
X170937515Y-131912984D01*
X171077525Y-131950500D01*
X171077528Y-131950500D01*
X171222472Y-131950500D01*
X171222475Y-131950500D01*
X171362485Y-131912984D01*
X171413499Y-131883530D01*
X171481398Y-131867057D01*
X171547426Y-131889909D01*
X171590617Y-131944829D01*
X171599500Y-131990917D01*
X171599500Y-132224678D01*
X171614032Y-132297735D01*
X171614033Y-132297739D01*
X171614034Y-132297740D01*
X171669399Y-132380601D01*
X171735230Y-132424587D01*
X171752260Y-132435966D01*
X171752264Y-132435967D01*
X171825321Y-132450499D01*
X171825324Y-132450500D01*
X171825326Y-132450500D01*
X173174676Y-132450500D01*
X173174677Y-132450499D01*
X173247740Y-132435966D01*
X173330601Y-132380601D01*
X173385966Y-132297740D01*
X173400500Y-132224674D01*
X173400500Y-131559200D01*
X180299498Y-131559200D01*
X180299498Y-131704150D01*
X180336035Y-131840506D01*
X180337015Y-131844163D01*
X180409486Y-131969686D01*
X180409491Y-131969692D01*
X180413179Y-131973380D01*
X180446664Y-132034703D01*
X180449498Y-132061061D01*
X180449498Y-132322724D01*
X180476791Y-132424587D01*
X180503154Y-132470248D01*
X180529518Y-132515911D01*
X180809518Y-132795911D01*
X180809520Y-132795913D01*
X180884087Y-132870480D01*
X180932112Y-132898207D01*
X180932113Y-132898208D01*
X180975407Y-132923204D01*
X180975410Y-132923206D01*
X180975412Y-132923206D01*
X180975413Y-132923207D01*
X181077273Y-132950501D01*
X181077275Y-132950501D01*
X181190323Y-132950501D01*
X181190339Y-132950500D01*
X185427725Y-132950500D01*
X185427727Y-132950500D01*
X185529588Y-132923207D01*
X185620913Y-132870480D01*
X186004574Y-132486819D01*
X186065897Y-132453334D01*
X186092255Y-132450500D01*
X187174676Y-132450500D01*
X187174677Y-132450499D01*
X187247740Y-132435966D01*
X187330601Y-132380601D01*
X187385966Y-132297740D01*
X187400500Y-132224674D01*
X187400500Y-130625326D01*
X187400500Y-130625323D01*
X187400499Y-130625321D01*
X187385967Y-130552264D01*
X187385966Y-130552260D01*
X187373837Y-130534108D01*
X187330601Y-130469399D01*
X187247740Y-130414034D01*
X187247739Y-130414033D01*
X187247735Y-130414032D01*
X187174677Y-130399500D01*
X187174674Y-130399500D01*
X185825326Y-130399500D01*
X185825323Y-130399500D01*
X185752264Y-130414032D01*
X185752260Y-130414033D01*
X185669399Y-130469399D01*
X185614033Y-130552260D01*
X185614032Y-130552264D01*
X185599500Y-130625321D01*
X185599500Y-131707745D01*
X185579815Y-131774784D01*
X185563181Y-131795426D01*
X185245426Y-132113181D01*
X185184103Y-132146666D01*
X185157745Y-132149500D01*
X184201586Y-132149500D01*
X184134547Y-132129815D01*
X184088792Y-132077011D01*
X184078848Y-132007853D01*
X184081811Y-131993407D01*
X184085664Y-131979026D01*
X184100750Y-131922726D01*
X184100750Y-131777776D01*
X184063234Y-131637766D01*
X184048638Y-131612485D01*
X183990760Y-131512236D01*
X183463014Y-130984490D01*
X183337484Y-130912016D01*
X183337485Y-130912016D01*
X183302481Y-130902637D01*
X183197474Y-130874500D01*
X183197471Y-130874500D01*
X183024500Y-130874500D01*
X182957461Y-130854815D01*
X182911706Y-130802011D01*
X182900500Y-130750500D01*
X182900500Y-130625323D01*
X182900499Y-130625321D01*
X182885967Y-130552264D01*
X182885966Y-130552260D01*
X182873837Y-130534108D01*
X182830601Y-130469399D01*
X182747740Y-130414034D01*
X182747739Y-130414033D01*
X182747735Y-130414032D01*
X182674677Y-130399500D01*
X182674674Y-130399500D01*
X181325326Y-130399500D01*
X181325323Y-130399500D01*
X181252264Y-130414032D01*
X181252260Y-130414033D01*
X181169399Y-130469399D01*
X181114033Y-130552260D01*
X181114032Y-130552264D01*
X181099500Y-130625321D01*
X181099500Y-130967009D01*
X181079815Y-131034048D01*
X181027011Y-131079803D01*
X180957853Y-131089747D01*
X180943409Y-131086784D01*
X180922477Y-131081175D01*
X180922473Y-131081175D01*
X180777523Y-131081175D01*
X180648991Y-131115615D01*
X180637509Y-131118692D01*
X180511986Y-131191163D01*
X180511980Y-131191168D01*
X180409491Y-131293657D01*
X180409486Y-131293663D01*
X180337015Y-131419186D01*
X180337014Y-131419190D01*
X180299498Y-131559200D01*
X173400500Y-131559200D01*
X173400500Y-130625326D01*
X173400500Y-130625323D01*
X173400499Y-130625321D01*
X173385967Y-130552264D01*
X173385966Y-130552260D01*
X173373837Y-130534108D01*
X173330601Y-130469399D01*
X173247740Y-130414034D01*
X173247739Y-130414033D01*
X173236456Y-130409360D01*
X173237157Y-130407665D01*
X173188396Y-130382157D01*
X173153823Y-130321441D01*
X173150500Y-130292927D01*
X173150500Y-129974500D01*
X173170185Y-129907461D01*
X173222989Y-129861706D01*
X173274500Y-129850500D01*
X173424676Y-129850500D01*
X173424677Y-129850499D01*
X173497740Y-129835966D01*
X173580601Y-129780601D01*
X173635966Y-129697740D01*
X173650500Y-129624674D01*
X173650500Y-127175326D01*
X173650500Y-127175323D01*
X173650499Y-127175321D01*
X173635967Y-127102264D01*
X173635966Y-127102260D01*
X173580601Y-127019399D01*
X173497740Y-126964034D01*
X173497739Y-126964033D01*
X173497735Y-126964032D01*
X173424677Y-126949500D01*
X173424674Y-126949500D01*
X172075326Y-126949500D01*
X172075323Y-126949500D01*
X172002264Y-126964032D01*
X172002260Y-126964033D01*
X171919399Y-127019399D01*
X171864033Y-127102260D01*
X171864032Y-127102264D01*
X171849500Y-127175321D01*
X171849500Y-129624678D01*
X171864032Y-129697735D01*
X171864033Y-129697739D01*
X171864034Y-129697740D01*
X171919399Y-129780601D01*
X172002260Y-129835966D01*
X172002264Y-129835967D01*
X172075321Y-129850499D01*
X172075324Y-129850500D01*
X172075326Y-129850500D01*
X172225500Y-129850500D01*
X172292539Y-129870185D01*
X172338294Y-129922989D01*
X172349500Y-129974500D01*
X172349500Y-130275500D01*
X172329815Y-130342539D01*
X172277011Y-130388294D01*
X172225500Y-130399500D01*
X171825323Y-130399500D01*
X171752264Y-130414032D01*
X171752260Y-130414033D01*
X171669399Y-130469399D01*
X171614033Y-130552260D01*
X171614032Y-130552264D01*
X171599500Y-130625321D01*
X171599500Y-130809082D01*
X171579815Y-130876121D01*
X171527011Y-130921876D01*
X171457853Y-130931820D01*
X171413500Y-130916469D01*
X171362488Y-130887017D01*
X171362489Y-130887017D01*
X171351006Y-130883940D01*
X171222475Y-130849500D01*
X171077525Y-130849500D01*
X170948993Y-130883940D01*
X170937511Y-130887017D01*
X170811988Y-130959488D01*
X170811982Y-130959493D01*
X170709493Y-131061982D01*
X170709488Y-131061988D01*
X170637017Y-131187511D01*
X170636038Y-131191166D01*
X170599500Y-131327525D01*
X169806050Y-131327525D01*
X169463015Y-130984490D01*
X169337485Y-130912016D01*
X169337486Y-130912016D01*
X169302482Y-130902637D01*
X169197475Y-130874500D01*
X169197472Y-130874500D01*
X169024500Y-130874500D01*
X168957461Y-130854815D01*
X168911706Y-130802011D01*
X168900500Y-130750500D01*
X168900500Y-130625323D01*
X168900499Y-130625321D01*
X168885967Y-130552264D01*
X168885966Y-130552260D01*
X168873837Y-130534108D01*
X168830601Y-130469399D01*
X168747740Y-130414034D01*
X168747739Y-130414033D01*
X168747735Y-130414032D01*
X168674677Y-130399500D01*
X168674674Y-130399500D01*
X168424500Y-130399500D01*
X168357461Y-130379815D01*
X168311706Y-130327011D01*
X168300500Y-130275500D01*
X168300500Y-129974500D01*
X168320185Y-129907461D01*
X168372989Y-129861706D01*
X168418679Y-129851766D01*
X168418614Y-129851097D01*
X168424354Y-129850531D01*
X168424500Y-129850500D01*
X168424676Y-129850500D01*
X168424677Y-129850499D01*
X168497740Y-129835966D01*
X168580601Y-129780601D01*
X168635966Y-129697740D01*
X168650500Y-129624674D01*
X168650500Y-128610757D01*
X168670185Y-128543718D01*
X168686814Y-128523080D01*
X169539951Y-127669943D01*
X169601272Y-127636460D01*
X169670963Y-127641444D01*
X169726897Y-127683316D01*
X169735016Y-127695625D01*
X169755567Y-127731219D01*
X169759491Y-127738015D01*
X169861985Y-127840509D01*
X169861986Y-127840510D01*
X169861988Y-127840511D01*
X169987511Y-127912982D01*
X169987512Y-127912982D01*
X169987515Y-127912984D01*
X170127525Y-127950500D01*
X170127528Y-127950500D01*
X170272472Y-127950500D01*
X170272475Y-127950500D01*
X170412485Y-127912984D01*
X170538015Y-127840509D01*
X170640509Y-127738015D01*
X170712984Y-127612485D01*
X170750500Y-127472475D01*
X170750500Y-127327525D01*
X170745438Y-127308633D01*
X170747099Y-127238788D01*
X170777529Y-127188862D01*
X171880480Y-126085913D01*
X171906694Y-126040509D01*
X171933207Y-125994587D01*
X171960500Y-125892727D01*
X171960500Y-123395730D01*
X171980185Y-123328691D01*
X171996814Y-123308054D01*
X175457219Y-119847648D01*
X175518540Y-119814165D01*
X175588232Y-119819149D01*
X175644165Y-119861021D01*
X175652284Y-119873329D01*
X175663119Y-119892096D01*
X175663121Y-119892098D01*
X175663122Y-119892100D01*
X175765616Y-119994594D01*
X175765617Y-119994595D01*
X175765619Y-119994596D01*
X175891142Y-120067067D01*
X175891143Y-120067067D01*
X175891146Y-120067069D01*
X176031156Y-120104585D01*
X176036377Y-120104585D01*
X176065817Y-120113229D01*
X176095804Y-120119753D01*
X176100819Y-120123507D01*
X176103416Y-120124270D01*
X176124058Y-120140904D01*
X176274725Y-120291571D01*
X176274735Y-120291582D01*
X176279065Y-120295912D01*
X176279066Y-120295913D01*
X176353633Y-120370480D01*
X176424218Y-120411232D01*
X176424219Y-120411233D01*
X176436910Y-120418560D01*
X176444959Y-120423207D01*
X176546819Y-120450501D01*
X176546821Y-120450501D01*
X176659869Y-120450501D01*
X176659885Y-120450500D01*
X178313009Y-120450500D01*
X178313011Y-120450500D01*
X178414872Y-120423207D01*
X178506197Y-120370480D01*
X179020480Y-119856197D01*
X179026365Y-119846003D01*
X179046068Y-119820323D01*
X180879395Y-117986996D01*
X180940716Y-117953513D01*
X180999167Y-117954904D01*
X181043921Y-117966896D01*
X181043923Y-117966896D01*
X181188868Y-117966896D01*
X181188871Y-117966896D01*
X181328881Y-117929380D01*
X181454411Y-117856905D01*
X181556905Y-117754411D01*
X181629380Y-117628881D01*
X181666896Y-117488871D01*
X181666896Y-117343921D01*
X181629380Y-117203911D01*
X181556905Y-117078381D01*
X181454411Y-116975887D01*
X181454409Y-116975886D01*
X181454407Y-116975884D01*
X181328883Y-116903413D01*
X181328882Y-116903412D01*
X181328881Y-116903412D01*
X181327396Y-116903014D01*
X181326285Y-116902337D01*
X181321377Y-116900304D01*
X181321694Y-116899538D01*
X181267737Y-116866650D01*
X181237208Y-116803803D01*
X181245503Y-116734428D01*
X181271808Y-116695561D01*
X181845910Y-116121459D01*
X181845913Y-116121458D01*
X181920480Y-116046891D01*
X181955466Y-115986293D01*
X181973207Y-115955566D01*
X182000500Y-115853705D01*
X182000500Y-115748251D01*
X182000500Y-115017943D01*
X182020185Y-114950904D01*
X182072989Y-114905149D01*
X182142147Y-114895205D01*
X182181166Y-114908710D01*
X182181169Y-114908704D01*
X182181274Y-114908747D01*
X182186502Y-114910557D01*
X182188683Y-114911816D01*
X182328693Y-114949332D01*
X182328696Y-114949332D01*
X182473642Y-114949332D01*
X182473643Y-114949332D01*
X182490686Y-114944765D01*
X182560534Y-114946424D01*
X182610464Y-114976857D01*
X183443181Y-115809574D01*
X183476666Y-115870897D01*
X183479500Y-115897255D01*
X183479500Y-120711813D01*
X183459815Y-120778852D01*
X183407011Y-120824607D01*
X183337853Y-120834551D01*
X183323415Y-120831589D01*
X183261677Y-120815047D01*
X183116727Y-120815047D01*
X182988195Y-120849487D01*
X182976713Y-120852564D01*
X182851190Y-120925035D01*
X182851184Y-120925040D01*
X182748695Y-121027529D01*
X182748690Y-121027535D01*
X182676219Y-121153058D01*
X182676218Y-121153062D01*
X182638702Y-121293072D01*
X182638702Y-121293074D01*
X182638702Y-121298292D01*
X182619017Y-121365331D01*
X182602383Y-121385973D01*
X181650175Y-122338181D01*
X181588852Y-122371666D01*
X181562494Y-122374500D01*
X176744273Y-122374500D01*
X176642410Y-122401793D01*
X176551087Y-122454520D01*
X176551084Y-122454522D01*
X175913881Y-123091724D01*
X175852558Y-123125209D01*
X175782866Y-123120225D01*
X175778748Y-123118604D01*
X175719131Y-123093910D01*
X175719119Y-123093907D01*
X175521007Y-123054500D01*
X175521003Y-123054500D01*
X175318997Y-123054500D01*
X175318992Y-123054500D01*
X175120880Y-123093907D01*
X175120872Y-123093909D01*
X174934247Y-123171212D01*
X174934237Y-123171217D01*
X174766281Y-123283441D01*
X174623441Y-123426281D01*
X174511217Y-123594237D01*
X174511212Y-123594247D01*
X174433909Y-123780872D01*
X174433907Y-123780880D01*
X174394500Y-123978992D01*
X174394500Y-124181007D01*
X174433907Y-124379119D01*
X174433909Y-124379127D01*
X174511212Y-124565752D01*
X174511217Y-124565762D01*
X174623441Y-124733718D01*
X174766281Y-124876558D01*
X174934237Y-124988782D01*
X174934241Y-124988784D01*
X174934244Y-124988786D01*
X175120873Y-125066091D01*
X175318992Y-125105499D01*
X175318996Y-125105500D01*
X175318997Y-125105500D01*
X175521004Y-125105500D01*
X175521005Y-125105499D01*
X175719127Y-125066091D01*
X175905756Y-124988786D01*
X176073718Y-124876558D01*
X176216558Y-124733718D01*
X176328786Y-124565756D01*
X176406091Y-124379127D01*
X176445500Y-124181003D01*
X176445500Y-123978997D01*
X176424311Y-123872472D01*
X176410963Y-123805364D01*
X176417190Y-123735772D01*
X176444896Y-123693495D01*
X176926574Y-123211819D01*
X176953501Y-123197115D01*
X176979320Y-123180523D01*
X176985520Y-123179631D01*
X176987897Y-123178334D01*
X177014255Y-123175500D01*
X177114861Y-123175500D01*
X177181900Y-123195185D01*
X177227655Y-123247989D01*
X177237599Y-123317147D01*
X177208574Y-123380703D01*
X177202542Y-123387181D01*
X177163444Y-123426278D01*
X177163441Y-123426281D01*
X177051217Y-123594237D01*
X177051212Y-123594247D01*
X176973909Y-123780872D01*
X176973907Y-123780880D01*
X176934500Y-123978992D01*
X176934500Y-124181007D01*
X176973907Y-124379119D01*
X176973909Y-124379127D01*
X177051212Y-124565752D01*
X177051217Y-124565762D01*
X177163441Y-124733718D01*
X177306281Y-124876558D01*
X177474237Y-124988782D01*
X177474241Y-124988784D01*
X177474244Y-124988786D01*
X177660873Y-125066091D01*
X177858992Y-125105499D01*
X177858996Y-125105500D01*
X177858997Y-125105500D01*
X178061004Y-125105500D01*
X178061005Y-125105499D01*
X178259127Y-125066091D01*
X178445756Y-124988786D01*
X178613718Y-124876558D01*
X178756558Y-124733718D01*
X178868786Y-124565756D01*
X178946091Y-124379127D01*
X178985500Y-124181003D01*
X178985500Y-123978997D01*
X178946091Y-123780873D01*
X178868786Y-123594244D01*
X178868784Y-123594241D01*
X178868782Y-123594237D01*
X178756558Y-123426281D01*
X178717458Y-123387181D01*
X178683973Y-123325858D01*
X178688957Y-123256166D01*
X178730829Y-123200233D01*
X178796293Y-123175816D01*
X178805139Y-123175500D01*
X179654861Y-123175500D01*
X179721900Y-123195185D01*
X179767655Y-123247989D01*
X179777599Y-123317147D01*
X179748574Y-123380703D01*
X179742542Y-123387181D01*
X179703444Y-123426278D01*
X179703441Y-123426281D01*
X179591217Y-123594237D01*
X179591212Y-123594247D01*
X179513909Y-123780872D01*
X179513907Y-123780880D01*
X179474500Y-123978992D01*
X179474500Y-124181007D01*
X179513907Y-124379119D01*
X179513909Y-124379127D01*
X179591212Y-124565752D01*
X179591217Y-124565762D01*
X179703441Y-124733718D01*
X179846281Y-124876558D01*
X180014237Y-124988782D01*
X180014241Y-124988784D01*
X180014244Y-124988786D01*
X180200873Y-125066091D01*
X180398992Y-125105499D01*
X180398996Y-125105500D01*
X180398997Y-125105500D01*
X180601004Y-125105500D01*
X180601005Y-125105499D01*
X180799127Y-125066091D01*
X180985756Y-124988786D01*
X181153718Y-124876558D01*
X181156484Y-124873792D01*
X181162819Y-124867458D01*
X181224142Y-124833973D01*
X181293834Y-124838957D01*
X181349767Y-124880829D01*
X181374184Y-124946293D01*
X181374500Y-124955139D01*
X181374500Y-125957745D01*
X181354815Y-126024784D01*
X181338181Y-126045426D01*
X179429864Y-127953742D01*
X179429862Y-127953745D01*
X179377135Y-128045070D01*
X179363646Y-128095412D01*
X179363646Y-128095413D01*
X179363645Y-128095412D01*
X179349842Y-128146927D01*
X179349842Y-129766711D01*
X179330157Y-129833750D01*
X179313523Y-129854392D01*
X179309835Y-129858079D01*
X179309830Y-129858085D01*
X179237359Y-129983608D01*
X179237358Y-129983612D01*
X179199842Y-130123622D01*
X179199842Y-130268572D01*
X179237112Y-130407665D01*
X179237359Y-130408585D01*
X179309830Y-130534108D01*
X179309832Y-130534110D01*
X179309833Y-130534112D01*
X179412327Y-130636606D01*
X179412328Y-130636607D01*
X179412330Y-130636608D01*
X179537853Y-130709079D01*
X179537854Y-130709079D01*
X179537857Y-130709081D01*
X179677867Y-130746597D01*
X179677870Y-130746597D01*
X179822814Y-130746597D01*
X179822817Y-130746597D01*
X179962827Y-130709081D01*
X180088357Y-130636606D01*
X180190851Y-130534112D01*
X180263326Y-130408582D01*
X180300842Y-130268572D01*
X180300842Y-130123622D01*
X180263326Y-129983612D01*
X180218795Y-129906483D01*
X180190853Y-129858085D01*
X180190848Y-129858079D01*
X180187161Y-129854392D01*
X180153676Y-129793069D01*
X180150842Y-129766711D01*
X180150842Y-128416913D01*
X180170527Y-128349874D01*
X180187161Y-128329232D01*
X181053908Y-127462485D01*
X182095480Y-126420913D01*
X182148207Y-126329588D01*
X182175500Y-126227727D01*
X182175500Y-126122273D01*
X182175500Y-124965139D01*
X182195185Y-124898100D01*
X182247989Y-124852345D01*
X182317147Y-124842401D01*
X182380703Y-124871426D01*
X182385715Y-124876093D01*
X182386281Y-124876558D01*
X182554237Y-124988782D01*
X182554241Y-124988784D01*
X182554244Y-124988786D01*
X182740873Y-125066091D01*
X182938992Y-125105499D01*
X182938996Y-125105500D01*
X182938997Y-125105500D01*
X183141004Y-125105500D01*
X183141005Y-125105499D01*
X183339127Y-125066091D01*
X183525756Y-124988786D01*
X183693718Y-124876558D01*
X183727875Y-124842401D01*
X183767819Y-124802458D01*
X183829142Y-124768973D01*
X183898834Y-124773957D01*
X183954767Y-124815829D01*
X183979184Y-124881293D01*
X183979500Y-124890139D01*
X183979500Y-125540614D01*
X183959815Y-125607653D01*
X183943181Y-125628295D01*
X183909493Y-125661982D01*
X183909488Y-125661988D01*
X183837017Y-125787511D01*
X183837016Y-125787515D01*
X183799500Y-125927525D01*
X183799500Y-126072475D01*
X183836882Y-126211985D01*
X183837017Y-126212488D01*
X183909488Y-126338011D01*
X183909490Y-126338013D01*
X183909491Y-126338015D01*
X184011985Y-126440509D01*
X184011986Y-126440510D01*
X184011988Y-126440511D01*
X184137511Y-126512982D01*
X184137512Y-126512982D01*
X184137515Y-126512984D01*
X184277525Y-126550500D01*
X184277528Y-126550500D01*
X184422472Y-126550500D01*
X184422475Y-126550500D01*
X184562485Y-126512984D01*
X184688015Y-126440509D01*
X184790509Y-126338015D01*
X184862984Y-126212485D01*
X184900500Y-126072475D01*
X184900500Y-125927525D01*
X184862984Y-125787515D01*
X184862696Y-125787017D01*
X184797113Y-125673423D01*
X184780500Y-125611423D01*
X184780500Y-125011137D01*
X184800185Y-124944098D01*
X184852989Y-124898343D01*
X184922147Y-124888399D01*
X184973391Y-124908035D01*
X185094237Y-124988782D01*
X185094241Y-124988784D01*
X185094244Y-124988786D01*
X185280873Y-125066091D01*
X185478992Y-125105499D01*
X185478996Y-125105500D01*
X185478997Y-125105500D01*
X185681004Y-125105500D01*
X185681005Y-125105499D01*
X185879127Y-125066091D01*
X186065756Y-124988786D01*
X186233718Y-124876558D01*
X186376558Y-124733718D01*
X186488786Y-124565756D01*
X186566091Y-124379127D01*
X186605500Y-124181003D01*
X186605500Y-123978997D01*
X186605499Y-123978992D01*
X187094500Y-123978992D01*
X187094500Y-124181007D01*
X187133907Y-124379119D01*
X187133909Y-124379127D01*
X187211212Y-124565752D01*
X187211217Y-124565762D01*
X187323441Y-124733718D01*
X187466281Y-124876558D01*
X187634237Y-124988782D01*
X187634241Y-124988784D01*
X187634244Y-124988786D01*
X187820873Y-125066091D01*
X188018992Y-125105499D01*
X188018996Y-125105500D01*
X188018997Y-125105500D01*
X188221004Y-125105500D01*
X188221005Y-125105499D01*
X188419127Y-125066091D01*
X188605756Y-124988786D01*
X188773718Y-124876558D01*
X188916558Y-124733718D01*
X189028786Y-124565756D01*
X189106091Y-124379127D01*
X189145500Y-124181003D01*
X189145500Y-123978997D01*
X189106091Y-123780873D01*
X189028786Y-123594244D01*
X189028784Y-123594241D01*
X189028782Y-123594237D01*
X188916558Y-123426281D01*
X188773718Y-123283441D01*
X188605762Y-123171217D01*
X188605752Y-123171212D01*
X188419127Y-123093909D01*
X188419119Y-123093907D01*
X188221007Y-123054500D01*
X188221003Y-123054500D01*
X188018997Y-123054500D01*
X188018992Y-123054500D01*
X187820880Y-123093907D01*
X187820872Y-123093909D01*
X187634247Y-123171212D01*
X187634237Y-123171217D01*
X187466281Y-123283441D01*
X187323441Y-123426281D01*
X187211217Y-123594237D01*
X187211212Y-123594247D01*
X187133909Y-123780872D01*
X187133907Y-123780880D01*
X187094500Y-123978992D01*
X186605499Y-123978992D01*
X186566091Y-123780873D01*
X186488786Y-123594244D01*
X186488784Y-123594241D01*
X186488782Y-123594237D01*
X186376558Y-123426281D01*
X186233718Y-123283441D01*
X186065762Y-123171217D01*
X186065752Y-123171212D01*
X185879127Y-123093909D01*
X185879119Y-123093907D01*
X185681007Y-123054500D01*
X185681003Y-123054500D01*
X185478997Y-123054500D01*
X185478992Y-123054500D01*
X185280880Y-123093907D01*
X185280872Y-123093909D01*
X185094247Y-123171212D01*
X185094239Y-123171216D01*
X184973390Y-123251965D01*
X184906713Y-123272842D01*
X184839333Y-123254357D01*
X184792643Y-123202378D01*
X184780500Y-123148862D01*
X184780500Y-120365493D01*
X184800185Y-120298454D01*
X184852989Y-120252699D01*
X184922147Y-120242755D01*
X184985703Y-120271780D01*
X184992181Y-120277812D01*
X185824961Y-121110592D01*
X185824963Y-121110595D01*
X185899530Y-121185162D01*
X185944212Y-121210959D01*
X185983587Y-121233692D01*
X185990856Y-121237889D01*
X185998360Y-121240997D01*
X185997310Y-121243531D01*
X186040254Y-121268324D01*
X186077121Y-121305191D01*
X186077122Y-121305192D01*
X186077124Y-121305193D01*
X186202647Y-121377664D01*
X186202648Y-121377664D01*
X186202651Y-121377666D01*
X186342661Y-121415182D01*
X186342664Y-121415182D01*
X186487608Y-121415182D01*
X186487611Y-121415182D01*
X186627621Y-121377666D01*
X186753151Y-121305191D01*
X186855645Y-121202697D01*
X186928120Y-121077167D01*
X186965636Y-120937157D01*
X186965636Y-120792207D01*
X186928120Y-120652197D01*
X186908795Y-120618726D01*
X186855647Y-120526670D01*
X186855642Y-120526664D01*
X186753153Y-120424175D01*
X186753147Y-120424170D01*
X186627624Y-120351699D01*
X186627625Y-120351699D01*
X186611719Y-120347437D01*
X186487611Y-120314182D01*
X186342661Y-120314182D01*
X186342658Y-120314182D01*
X186340660Y-120314445D01*
X186338974Y-120314182D01*
X186334534Y-120314182D01*
X186334534Y-120313489D01*
X186271625Y-120303676D01*
X186219372Y-120257293D01*
X186200490Y-120190023D01*
X186220974Y-120123224D01*
X186246972Y-120094715D01*
X186254321Y-120088829D01*
X186338015Y-120040509D01*
X186431896Y-119946627D01*
X186437228Y-119942358D01*
X186463473Y-119931580D01*
X186488378Y-119917982D01*
X186495372Y-119918482D01*
X186501861Y-119915818D01*
X186529771Y-119920942D01*
X186558070Y-119922966D01*
X186569100Y-119928162D01*
X186570582Y-119928435D01*
X186571497Y-119929292D01*
X186576735Y-119931760D01*
X186587515Y-119937984D01*
X186727525Y-119975500D01*
X186727528Y-119975500D01*
X186872472Y-119975500D01*
X186872475Y-119975500D01*
X187012485Y-119937984D01*
X187138015Y-119865509D01*
X187240509Y-119763015D01*
X187312984Y-119637485D01*
X187350500Y-119497475D01*
X187350500Y-119352525D01*
X187312984Y-119212515D01*
X187312859Y-119212299D01*
X187240511Y-119086988D01*
X187240506Y-119086982D01*
X187138017Y-118984493D01*
X187138011Y-118984488D01*
X187012488Y-118912017D01*
X187012489Y-118912017D01*
X186996269Y-118907671D01*
X186872475Y-118874500D01*
X186872472Y-118874500D01*
X186867255Y-118874500D01*
X186800216Y-118854815D01*
X186779574Y-118838181D01*
X186316819Y-118375426D01*
X186283334Y-118314103D01*
X186280500Y-118287745D01*
X186280500Y-117622600D01*
X186300185Y-117555561D01*
X186352989Y-117509806D01*
X186422147Y-117499862D01*
X186485703Y-117528887D01*
X186492181Y-117534919D01*
X188567851Y-119610589D01*
X188601336Y-119671912D01*
X188604170Y-119698270D01*
X188604170Y-120531045D01*
X188584485Y-120598084D01*
X188567851Y-120618726D01*
X188564163Y-120622413D01*
X188564158Y-120622419D01*
X188491687Y-120747942D01*
X188491686Y-120747946D01*
X188454170Y-120887956D01*
X188454170Y-121032906D01*
X188491548Y-121172401D01*
X188491687Y-121172919D01*
X188564158Y-121298442D01*
X188564160Y-121298444D01*
X188564161Y-121298446D01*
X188666655Y-121400940D01*
X188666656Y-121400941D01*
X188666658Y-121400942D01*
X188792181Y-121473413D01*
X188792182Y-121473413D01*
X188792185Y-121473415D01*
X188932195Y-121510931D01*
X188932198Y-121510931D01*
X189077142Y-121510931D01*
X189077145Y-121510931D01*
X189098077Y-121505322D01*
X189167923Y-121506983D01*
X189225787Y-121546144D01*
X189253293Y-121610371D01*
X189254170Y-121625096D01*
X189254170Y-123093943D01*
X189254170Y-123199397D01*
X189267190Y-123247989D01*
X189281463Y-123301259D01*
X189300203Y-123333716D01*
X189334190Y-123392583D01*
X189334192Y-123392585D01*
X189635100Y-123693493D01*
X189668585Y-123754816D01*
X189669037Y-123805365D01*
X189655689Y-123872472D01*
X189634501Y-123978996D01*
X189634500Y-123978999D01*
X189634500Y-124181007D01*
X189673907Y-124379119D01*
X189673909Y-124379127D01*
X189751212Y-124565752D01*
X189751217Y-124565762D01*
X189863441Y-124733718D01*
X190006281Y-124876558D01*
X190174237Y-124988782D01*
X190174241Y-124988784D01*
X190174244Y-124988786D01*
X190360873Y-125066091D01*
X190558992Y-125105499D01*
X190558996Y-125105500D01*
X190558997Y-125105500D01*
X190761004Y-125105500D01*
X190761005Y-125105499D01*
X190959127Y-125066091D01*
X191145756Y-124988786D01*
X191313718Y-124876558D01*
X191456558Y-124733718D01*
X191568786Y-124565756D01*
X191646091Y-124379127D01*
X191685500Y-124181003D01*
X191685500Y-123978997D01*
X191646091Y-123780873D01*
X191568786Y-123594244D01*
X191568784Y-123594241D01*
X191568782Y-123594237D01*
X191456558Y-123426281D01*
X191313718Y-123283441D01*
X191145762Y-123171217D01*
X191145752Y-123171212D01*
X190959127Y-123093909D01*
X190959119Y-123093907D01*
X190761007Y-123054500D01*
X190761003Y-123054500D01*
X190558997Y-123054500D01*
X190558992Y-123054500D01*
X190360880Y-123093907D01*
X190360872Y-123093909D01*
X190301252Y-123118605D01*
X190281374Y-123120742D01*
X190262645Y-123127728D01*
X190247348Y-123124400D01*
X190231782Y-123126074D01*
X190213904Y-123117125D01*
X190194372Y-123112876D01*
X190172083Y-123096190D01*
X190169303Y-123094799D01*
X190166118Y-123091725D01*
X190091489Y-123017096D01*
X190058004Y-122955773D01*
X190055170Y-122929415D01*
X190055170Y-119920924D01*
X190074855Y-119853885D01*
X190127659Y-119808130D01*
X190196817Y-119798186D01*
X190260373Y-119827211D01*
X190266851Y-119833243D01*
X190963181Y-120529573D01*
X190996666Y-120590896D01*
X190999500Y-120617254D01*
X190999500Y-121370614D01*
X190979815Y-121437653D01*
X190963181Y-121458295D01*
X190959493Y-121461982D01*
X190959488Y-121461988D01*
X190887017Y-121587511D01*
X190887016Y-121587515D01*
X190849500Y-121727525D01*
X190849500Y-121872475D01*
X190887016Y-122012485D01*
X190887017Y-122012488D01*
X190959488Y-122138011D01*
X190959490Y-122138013D01*
X190959491Y-122138015D01*
X191061985Y-122240509D01*
X191061986Y-122240510D01*
X191061988Y-122240511D01*
X191187511Y-122312982D01*
X191187512Y-122312982D01*
X191187515Y-122312984D01*
X191327525Y-122350500D01*
X191327528Y-122350500D01*
X191472472Y-122350500D01*
X191472475Y-122350500D01*
X191612485Y-122312984D01*
X191738015Y-122240509D01*
X191840509Y-122138015D01*
X191912984Y-122012485D01*
X191950500Y-121872475D01*
X191950500Y-121727525D01*
X191912984Y-121587515D01*
X191901924Y-121568359D01*
X191840511Y-121461988D01*
X191840506Y-121461982D01*
X191836819Y-121458295D01*
X191803334Y-121396972D01*
X191800500Y-121370614D01*
X191800500Y-120462729D01*
X191800501Y-120462716D01*
X191800501Y-120347274D01*
X191800501Y-120347273D01*
X191773207Y-120245413D01*
X191758241Y-120219491D01*
X191720480Y-120154087D01*
X191645913Y-120079520D01*
X191645912Y-120079519D01*
X191641582Y-120075189D01*
X191641571Y-120075179D01*
X189136819Y-117570426D01*
X189103334Y-117509103D01*
X189100500Y-117482745D01*
X189100500Y-112462729D01*
X189100501Y-112462716D01*
X189100501Y-112347276D01*
X189100501Y-112347274D01*
X189073207Y-112245413D01*
X189050160Y-112205495D01*
X189020480Y-112154087D01*
X188945913Y-112079520D01*
X188945910Y-112079518D01*
X188436819Y-111570426D01*
X188403334Y-111509103D01*
X188400500Y-111482745D01*
X188400500Y-111477527D01*
X188400500Y-111477525D01*
X188362984Y-111337515D01*
X188348244Y-111311985D01*
X188290511Y-111211988D01*
X188290506Y-111211982D01*
X188188017Y-111109493D01*
X188188011Y-111109488D01*
X188062488Y-111037017D01*
X188062489Y-111037017D01*
X188019320Y-111025449D01*
X187932785Y-111002262D01*
X187873126Y-110965897D01*
X187842597Y-110903050D01*
X187840880Y-110882488D01*
X187840880Y-110837147D01*
X187840880Y-110837145D01*
X187803364Y-110697135D01*
X187797418Y-110686837D01*
X187730891Y-110571608D01*
X187730886Y-110571602D01*
X187628397Y-110469113D01*
X187628391Y-110469108D01*
X187502868Y-110396637D01*
X187502869Y-110396637D01*
X187491386Y-110393560D01*
X187362855Y-110359120D01*
X187274500Y-110359120D01*
X187207461Y-110339435D01*
X187161706Y-110286631D01*
X187150500Y-110235120D01*
X187150500Y-110227527D01*
X187150500Y-110227525D01*
X187112984Y-110087515D01*
X187055537Y-109988015D01*
X187040511Y-109961988D01*
X187040506Y-109961982D01*
X186938017Y-109859493D01*
X186938011Y-109859488D01*
X186812488Y-109787017D01*
X186812485Y-109787016D01*
X186672475Y-109749500D01*
X186527525Y-109749500D01*
X186398993Y-109783940D01*
X186387511Y-109787017D01*
X186261988Y-109859488D01*
X186261982Y-109859493D01*
X186159493Y-109961982D01*
X186159488Y-109961988D01*
X186082952Y-110094553D01*
X186080532Y-110093156D01*
X186045232Y-110136969D01*
X185978940Y-110159041D01*
X185974502Y-110159120D01*
X184683981Y-110159120D01*
X184616942Y-110139435D01*
X184596300Y-110122801D01*
X182937641Y-108464142D01*
X182937639Y-108464140D01*
X182890318Y-108436819D01*
X182846315Y-108411413D01*
X182795383Y-108397766D01*
X182744453Y-108384120D01*
X182744452Y-108384120D01*
X175360317Y-108384120D01*
X175293278Y-108364435D01*
X175247523Y-108311631D01*
X175237579Y-108242473D01*
X175266604Y-108178917D01*
X175272636Y-108172439D01*
X176133256Y-107311819D01*
X177015967Y-106429107D01*
X177077288Y-106395624D01*
X177146980Y-106400608D01*
X177179328Y-106421397D01*
X177180539Y-106419820D01*
X177186988Y-106424769D01*
X177312511Y-106497240D01*
X177312512Y-106497240D01*
X177312515Y-106497242D01*
X177452525Y-106534758D01*
X177452528Y-106534758D01*
X177597472Y-106534758D01*
X177597475Y-106534758D01*
X177737485Y-106497242D01*
X177863015Y-106424767D01*
X177863015Y-106424766D01*
X177870054Y-106420703D01*
X177871006Y-106422352D01*
X177926407Y-106400931D01*
X177936732Y-106400500D01*
X181232543Y-106400500D01*
X181232545Y-106400500D01*
X181334406Y-106373207D01*
X181380903Y-106346361D01*
X181448800Y-106329888D01*
X181514828Y-106352739D01*
X181558020Y-106407659D01*
X181562676Y-106421648D01*
X181572816Y-106459491D01*
X181587017Y-106512488D01*
X181659488Y-106638011D01*
X181659490Y-106638013D01*
X181659491Y-106638015D01*
X181761985Y-106740509D01*
X181761986Y-106740510D01*
X181761988Y-106740511D01*
X181887511Y-106812982D01*
X181887512Y-106812982D01*
X181887515Y-106812984D01*
X182027525Y-106850500D01*
X182032745Y-106850500D01*
X182099784Y-106870185D01*
X182120426Y-106886819D01*
X183554087Y-108320480D01*
X183645412Y-108373207D01*
X183747273Y-108400500D01*
X186270614Y-108400500D01*
X186337653Y-108420185D01*
X186358295Y-108436819D01*
X186361985Y-108440509D01*
X186361986Y-108440510D01*
X186361988Y-108440511D01*
X186487511Y-108512982D01*
X186487512Y-108512982D01*
X186487515Y-108512984D01*
X186627525Y-108550500D01*
X186627528Y-108550500D01*
X186772472Y-108550500D01*
X186772475Y-108550500D01*
X186912485Y-108512984D01*
X187038015Y-108440509D01*
X187140509Y-108338015D01*
X187212984Y-108212485D01*
X187250500Y-108072475D01*
X187250500Y-107927525D01*
X187212984Y-107787515D01*
X187140509Y-107661985D01*
X187038015Y-107559491D01*
X187038013Y-107559490D01*
X187038011Y-107559488D01*
X186912488Y-107487017D01*
X186912489Y-107487017D01*
X186892317Y-107481612D01*
X186772475Y-107449500D01*
X186627525Y-107449500D01*
X186507683Y-107481612D01*
X186487511Y-107487017D01*
X186361988Y-107559488D01*
X186361982Y-107559493D01*
X186358295Y-107563181D01*
X186296972Y-107596666D01*
X186270614Y-107599500D01*
X185252204Y-107599500D01*
X185185165Y-107579815D01*
X185139410Y-107527011D01*
X185129466Y-107457853D01*
X185158491Y-107394297D01*
X185190204Y-107368113D01*
X185210187Y-107356575D01*
X185238015Y-107340509D01*
X185340509Y-107238015D01*
X185412984Y-107112485D01*
X185450500Y-106972475D01*
X185450500Y-106827525D01*
X185412984Y-106687515D01*
X185410807Y-106683745D01*
X185340511Y-106561988D01*
X185340506Y-106561982D01*
X185238017Y-106459493D01*
X185238011Y-106459488D01*
X185112488Y-106387017D01*
X185112489Y-106387017D01*
X185101006Y-106383940D01*
X184972475Y-106349500D01*
X184827525Y-106349500D01*
X184698993Y-106383940D01*
X184687511Y-106387017D01*
X184561988Y-106459488D01*
X184561982Y-106459493D01*
X184459493Y-106561982D01*
X184459488Y-106561988D01*
X184387017Y-106687511D01*
X184387016Y-106687515D01*
X184349500Y-106827525D01*
X184349500Y-106972475D01*
X184370186Y-107049674D01*
X184387017Y-107112488D01*
X184459488Y-107238011D01*
X184459490Y-107238013D01*
X184459491Y-107238015D01*
X184561985Y-107340509D01*
X184561986Y-107340510D01*
X184561988Y-107340511D01*
X184609796Y-107368113D01*
X184658012Y-107418680D01*
X184671234Y-107487288D01*
X184645266Y-107552152D01*
X184588352Y-107592680D01*
X184547796Y-107599500D01*
X184017255Y-107599500D01*
X183950216Y-107579815D01*
X183929574Y-107563181D01*
X182686819Y-106320426D01*
X182653334Y-106259103D01*
X182650500Y-106232745D01*
X182650500Y-106227527D01*
X182650500Y-106227525D01*
X182612984Y-106087515D01*
X182540509Y-105961985D01*
X182511206Y-105932682D01*
X182477721Y-105871359D01*
X182482705Y-105801667D01*
X182524577Y-105745734D01*
X182566791Y-105725227D01*
X182612485Y-105712984D01*
X182738015Y-105640509D01*
X182840509Y-105538015D01*
X182912984Y-105412485D01*
X182950500Y-105272475D01*
X182950500Y-105127525D01*
X182912984Y-104987515D01*
X182840509Y-104861985D01*
X182738015Y-104759491D01*
X182738013Y-104759490D01*
X182738011Y-104759488D01*
X182612488Y-104687017D01*
X182612489Y-104687017D01*
X182601006Y-104683940D01*
X182472475Y-104649500D01*
X182472472Y-104649500D01*
X182467255Y-104649500D01*
X182400216Y-104629815D01*
X182379574Y-104613181D01*
X182245915Y-104479522D01*
X182245913Y-104479520D01*
X182200250Y-104453156D01*
X182154589Y-104426793D01*
X182103657Y-104413146D01*
X182052727Y-104399500D01*
X182052726Y-104399500D01*
X180011995Y-104399500D01*
X179944956Y-104379815D01*
X179924314Y-104363181D01*
X172988658Y-97427525D01*
X173749500Y-97427525D01*
X173749500Y-97572475D01*
X173781128Y-97690511D01*
X173787017Y-97712488D01*
X173859488Y-97838011D01*
X173859490Y-97838013D01*
X173859491Y-97838015D01*
X173961985Y-97940509D01*
X173961986Y-97940510D01*
X173961988Y-97940511D01*
X174087511Y-98012982D01*
X174087512Y-98012982D01*
X174087515Y-98012984D01*
X174227525Y-98050500D01*
X174372475Y-98050500D01*
X179520613Y-98050500D01*
X179587652Y-98070185D01*
X179608294Y-98086819D01*
X180106797Y-98585322D01*
X180140282Y-98646645D01*
X180135298Y-98716337D01*
X180093426Y-98772270D01*
X180081118Y-98780389D01*
X180058628Y-98793373D01*
X180058622Y-98793378D01*
X179956133Y-98895867D01*
X179956128Y-98895873D01*
X179883657Y-99021396D01*
X179883656Y-99021400D01*
X179846140Y-99161410D01*
X179846140Y-99306360D01*
X179883656Y-99446370D01*
X179883657Y-99446373D01*
X179956128Y-99571896D01*
X179956133Y-99571902D01*
X179959821Y-99575590D01*
X179993306Y-99636913D01*
X179996140Y-99663271D01*
X179996140Y-100986105D01*
X179976455Y-101053144D01*
X179959821Y-101073786D01*
X179320426Y-101713181D01*
X179259103Y-101746666D01*
X179232745Y-101749500D01*
X179227525Y-101749500D01*
X179113139Y-101780150D01*
X179087511Y-101787017D01*
X178961988Y-101859488D01*
X178961982Y-101859493D01*
X178859493Y-101961982D01*
X178859488Y-101961988D01*
X178787017Y-102087511D01*
X178787016Y-102087515D01*
X178749500Y-102227525D01*
X178749500Y-102372475D01*
X178787016Y-102512485D01*
X178787017Y-102512488D01*
X178859488Y-102638011D01*
X178859490Y-102638013D01*
X178859491Y-102638015D01*
X178961985Y-102740509D01*
X178961986Y-102740510D01*
X178961988Y-102740511D01*
X179087511Y-102812982D01*
X179087512Y-102812982D01*
X179087515Y-102812984D01*
X179227525Y-102850500D01*
X179227528Y-102850500D01*
X179372472Y-102850500D01*
X179372475Y-102850500D01*
X179512485Y-102812984D01*
X179638015Y-102740509D01*
X179740509Y-102638015D01*
X179812984Y-102512485D01*
X179850500Y-102372475D01*
X179850500Y-102367255D01*
X179870185Y-102300216D01*
X179886819Y-102279574D01*
X180286745Y-101879648D01*
X180717120Y-101449273D01*
X180769847Y-101357948D01*
X180797140Y-101256087D01*
X180797140Y-101150633D01*
X180797140Y-99765842D01*
X180816825Y-99698803D01*
X180869629Y-99653048D01*
X180938787Y-99643104D01*
X180983137Y-99658454D01*
X180991481Y-99663271D01*
X181092343Y-99721504D01*
X181092344Y-99721504D01*
X181100518Y-99726223D01*
X181240528Y-99763739D01*
X181240529Y-99763739D01*
X181240531Y-99763739D01*
X181385475Y-99763739D01*
X181385477Y-99763739D01*
X181385478Y-99763739D01*
X181525488Y-99726223D01*
X181533662Y-99721504D01*
X181651018Y-99653749D01*
X182117948Y-99186819D01*
X182179271Y-99153334D01*
X182205629Y-99150500D01*
X182585609Y-99150500D01*
X182652648Y-99170185D01*
X182698403Y-99222989D01*
X182708347Y-99292147D01*
X182705383Y-99306595D01*
X182699500Y-99328547D01*
X182699500Y-99328549D01*
X182699500Y-99473499D01*
X182726856Y-99575590D01*
X182737017Y-99613512D01*
X182809488Y-99739035D01*
X182809493Y-99739041D01*
X182867642Y-99797190D01*
X182887347Y-99822870D01*
X182905371Y-99854087D01*
X182929520Y-99895913D01*
X182929522Y-99895915D01*
X183263181Y-100229574D01*
X183296666Y-100290897D01*
X183299500Y-100317255D01*
X183299500Y-103347273D01*
X183299500Y-103452727D01*
X183319542Y-103527525D01*
X183326794Y-103554591D01*
X183332885Y-103565140D01*
X183349500Y-103627143D01*
X183349500Y-103672475D01*
X183370010Y-103749018D01*
X183387017Y-103812488D01*
X183459488Y-103938011D01*
X183459490Y-103938013D01*
X183459491Y-103938015D01*
X183561985Y-104040509D01*
X183561986Y-104040510D01*
X183561988Y-104040511D01*
X183687511Y-104112982D01*
X183687512Y-104112982D01*
X183687515Y-104112984D01*
X183827525Y-104150500D01*
X183827528Y-104150500D01*
X183972472Y-104150500D01*
X183972475Y-104150500D01*
X184112485Y-104112984D01*
X184238015Y-104040509D01*
X184340509Y-103938015D01*
X184412984Y-103812485D01*
X184450500Y-103672475D01*
X184450500Y-103527525D01*
X184412984Y-103387515D01*
X184341490Y-103263685D01*
X184340511Y-103261988D01*
X184340506Y-103261982D01*
X184238017Y-103159493D01*
X184238015Y-103159491D01*
X184162500Y-103115892D01*
X184114284Y-103065325D01*
X184100500Y-103008505D01*
X184100500Y-100047276D01*
X184100500Y-100047273D01*
X184079725Y-99969737D01*
X184073207Y-99945412D01*
X184020480Y-99854087D01*
X183817182Y-99650789D01*
X183783697Y-99589466D01*
X183785087Y-99531016D01*
X183800500Y-99473499D01*
X183800500Y-99328549D01*
X183794617Y-99306593D01*
X183796278Y-99236746D01*
X183835440Y-99178882D01*
X183899668Y-99151377D01*
X183914391Y-99150500D01*
X185725500Y-99150500D01*
X185792539Y-99170185D01*
X185838294Y-99222989D01*
X185849500Y-99274500D01*
X185849500Y-105772475D01*
X185864043Y-105826751D01*
X185864055Y-105826793D01*
X185887016Y-105912485D01*
X185959489Y-106038013D01*
X185959491Y-106038016D01*
X188963181Y-109041706D01*
X188996666Y-109103029D01*
X188999500Y-109129387D01*
X188999500Y-109722474D01*
X189016793Y-109787015D01*
X189016794Y-109787015D01*
X189016794Y-109787016D01*
X189037016Y-109862485D01*
X189094752Y-109962488D01*
X189109489Y-109988013D01*
X189109491Y-109988016D01*
X193113181Y-113991706D01*
X193146666Y-114053029D01*
X193149500Y-114079387D01*
X193149500Y-116825500D01*
X193129815Y-116892539D01*
X193077011Y-116938294D01*
X193025500Y-116949500D01*
X191116887Y-116949500D01*
X191049848Y-116929815D01*
X191029206Y-116913181D01*
X190375516Y-116259491D01*
X190375515Y-116259490D01*
X190249985Y-116187016D01*
X190249982Y-116187015D01*
X190221936Y-116179499D01*
X190221936Y-116179500D01*
X190165955Y-116164500D01*
X190109975Y-116149500D01*
X189965025Y-116149500D01*
X189853064Y-116179500D01*
X189853063Y-116179499D01*
X189825017Y-116187015D01*
X189825014Y-116187016D01*
X189699486Y-116259489D01*
X189699483Y-116259491D01*
X189596991Y-116361983D01*
X189596987Y-116361988D01*
X189533125Y-116472603D01*
X189533125Y-116472604D01*
X189524516Y-116487515D01*
X189487000Y-116627525D01*
X189487000Y-116627527D01*
X189487000Y-116772477D01*
X189497720Y-116812481D01*
X189497720Y-116812483D01*
X189497721Y-116812483D01*
X189497721Y-116812484D01*
X189524516Y-116912485D01*
X189596990Y-117038015D01*
X190499485Y-117940510D01*
X190609605Y-118004087D01*
X190609606Y-118004088D01*
X190609607Y-118004088D01*
X190625015Y-118012984D01*
X190765025Y-118050500D01*
X190765026Y-118050500D01*
X190909974Y-118050500D01*
X193025500Y-118050500D01*
X193092539Y-118070185D01*
X193138294Y-118122989D01*
X193149500Y-118174500D01*
X193149500Y-122205613D01*
X193129815Y-122272652D01*
X193113181Y-122293294D01*
X192259491Y-123146983D01*
X192259489Y-123146986D01*
X192200305Y-123249498D01*
X192200304Y-123249497D01*
X192188548Y-123269861D01*
X192187016Y-123272515D01*
X192149500Y-123412525D01*
X192149500Y-123412527D01*
X192149500Y-125320613D01*
X192129815Y-125387652D01*
X192113181Y-125408294D01*
X191309491Y-126211983D01*
X191309487Y-126211988D01*
X191246850Y-126320481D01*
X191237018Y-126337510D01*
X191237016Y-126337513D01*
X191228262Y-126370185D01*
X191199500Y-126477525D01*
X191199500Y-126477527D01*
X191199500Y-129783745D01*
X191179815Y-129850784D01*
X191127011Y-129896539D01*
X191057853Y-129906483D01*
X190994297Y-129877458D01*
X190987819Y-129871426D01*
X189045915Y-127929522D01*
X189045913Y-127929520D01*
X188991860Y-127898312D01*
X188954589Y-127876793D01*
X188884013Y-127857883D01*
X188852727Y-127849500D01*
X188852726Y-127849500D01*
X185829386Y-127849500D01*
X185762347Y-127829815D01*
X185741705Y-127813181D01*
X185738017Y-127809493D01*
X185738011Y-127809488D01*
X185612488Y-127737017D01*
X185612489Y-127737017D01*
X185601006Y-127733940D01*
X185472475Y-127699500D01*
X185327525Y-127699500D01*
X185198993Y-127733940D01*
X185187511Y-127737017D01*
X185061988Y-127809488D01*
X185061982Y-127809493D01*
X184959493Y-127911982D01*
X184959488Y-127911988D01*
X184887017Y-128037511D01*
X184887016Y-128037515D01*
X184849500Y-128177525D01*
X184849500Y-128322475D01*
X184874805Y-128416913D01*
X184887017Y-128462488D01*
X184959488Y-128588011D01*
X184959490Y-128588013D01*
X184959491Y-128588015D01*
X185061985Y-128690509D01*
X185061986Y-128690510D01*
X185061988Y-128690511D01*
X185187511Y-128762982D01*
X185187512Y-128762982D01*
X185187515Y-128762984D01*
X185327525Y-128800500D01*
X185327528Y-128800500D01*
X185472472Y-128800500D01*
X185472475Y-128800500D01*
X185612485Y-128762984D01*
X185738015Y-128690509D01*
X185741705Y-128686819D01*
X185803028Y-128653334D01*
X185829386Y-128650500D01*
X188582745Y-128650500D01*
X188649784Y-128670185D01*
X188670426Y-128686819D01*
X192904087Y-132920480D01*
X192995412Y-132973207D01*
X193097273Y-133000500D01*
X193097275Y-133000500D01*
X197377725Y-133000500D01*
X197377727Y-133000500D01*
X197479588Y-132973207D01*
X197570913Y-132920480D01*
X198004574Y-132486819D01*
X198065897Y-132453334D01*
X198092255Y-132450500D01*
X199174676Y-132450500D01*
X199174677Y-132450499D01*
X199247740Y-132435966D01*
X199330601Y-132380601D01*
X199385966Y-132297740D01*
X199400500Y-132224674D01*
X199400500Y-130625326D01*
X199400500Y-130625323D01*
X199400499Y-130625321D01*
X199385967Y-130552264D01*
X199385966Y-130552260D01*
X199373837Y-130534108D01*
X199330601Y-130469399D01*
X199247740Y-130414034D01*
X199247739Y-130414033D01*
X199247735Y-130414032D01*
X199174677Y-130399500D01*
X199174674Y-130399500D01*
X197825326Y-130399500D01*
X197825323Y-130399500D01*
X197752264Y-130414032D01*
X197752260Y-130414033D01*
X197669399Y-130469399D01*
X197614033Y-130552260D01*
X197614032Y-130552264D01*
X197599500Y-130625321D01*
X197599500Y-131707745D01*
X197579815Y-131774784D01*
X197563181Y-131795426D01*
X197195426Y-132163181D01*
X197134103Y-132196666D01*
X197107745Y-132199500D01*
X195024500Y-132199500D01*
X194957461Y-132179815D01*
X194911706Y-132127011D01*
X194900500Y-132075500D01*
X194900500Y-130625323D01*
X194900499Y-130625321D01*
X194885967Y-130552264D01*
X194885966Y-130552260D01*
X194873837Y-130534108D01*
X194830601Y-130469399D01*
X194747740Y-130414034D01*
X194747739Y-130414033D01*
X194747735Y-130414032D01*
X194674677Y-130399500D01*
X194674674Y-130399500D01*
X193325326Y-130399500D01*
X193325323Y-130399500D01*
X193252264Y-130414032D01*
X193252260Y-130414033D01*
X193169399Y-130469399D01*
X193114033Y-130552260D01*
X193114031Y-130552266D01*
X193112296Y-130560989D01*
X193079909Y-130622899D01*
X193019191Y-130657471D01*
X192949422Y-130653728D01*
X192902999Y-130624474D01*
X192336819Y-130058294D01*
X192303334Y-129996971D01*
X192300500Y-129970613D01*
X192300500Y-126829387D01*
X192320185Y-126762348D01*
X192336819Y-126741706D01*
X192728026Y-126350499D01*
X193140510Y-125938015D01*
X193212984Y-125812485D01*
X193250500Y-125672474D01*
X193250500Y-125527526D01*
X193250500Y-125061029D01*
X193270185Y-124993990D01*
X193322989Y-124948235D01*
X193392147Y-124938291D01*
X193447383Y-124960709D01*
X193558212Y-125041232D01*
X193712555Y-125119873D01*
X193877299Y-125173402D01*
X194048389Y-125200500D01*
X194048390Y-125200500D01*
X194221610Y-125200500D01*
X194221611Y-125200500D01*
X194392701Y-125173402D01*
X194557445Y-125119873D01*
X194711788Y-125041232D01*
X194851928Y-124939414D01*
X194974414Y-124816928D01*
X195076232Y-124676788D01*
X195154873Y-124522445D01*
X195208402Y-124357701D01*
X195235500Y-124186611D01*
X195235500Y-124013389D01*
X195208402Y-123842299D01*
X195154873Y-123677555D01*
X195076232Y-123523212D01*
X194974414Y-123383072D01*
X194851928Y-123260586D01*
X194711788Y-123158768D01*
X194557445Y-123080127D01*
X194392701Y-123026598D01*
X194392699Y-123026597D01*
X194392697Y-123026597D01*
X194232146Y-123001168D01*
X194169011Y-122971239D01*
X194132080Y-122911927D01*
X194133078Y-122842064D01*
X194144151Y-122816707D01*
X194212984Y-122697485D01*
X194217903Y-122679127D01*
X194228499Y-122639586D01*
X194236551Y-122609531D01*
X194250500Y-122557475D01*
X194250500Y-122412525D01*
X194250500Y-118412525D01*
X194250500Y-117427525D01*
X194250500Y-113662525D01*
X194212984Y-113522515D01*
X194198233Y-113496966D01*
X194140511Y-113396988D01*
X194140506Y-113396982D01*
X194038017Y-113294493D01*
X194038011Y-113294488D01*
X193905447Y-113217952D01*
X193905966Y-113217051D01*
X193874653Y-113196128D01*
X191081756Y-110403231D01*
X191048271Y-110341908D01*
X191053255Y-110272216D01*
X191095127Y-110216283D01*
X191107437Y-110208163D01*
X191138015Y-110190509D01*
X191240509Y-110088015D01*
X191312984Y-109962485D01*
X191350500Y-109822475D01*
X191350500Y-109677525D01*
X191312984Y-109537515D01*
X191288269Y-109494708D01*
X191240511Y-109411988D01*
X191240506Y-109411982D01*
X191138017Y-109309493D01*
X191138011Y-109309488D01*
X191012488Y-109237017D01*
X191012489Y-109237017D01*
X191001006Y-109233940D01*
X190872475Y-109199500D01*
X190727525Y-109199500D01*
X190598993Y-109233940D01*
X190587511Y-109237017D01*
X190461988Y-109309488D01*
X190461982Y-109309493D01*
X190359493Y-109411982D01*
X190359487Y-109411991D01*
X190341834Y-109442565D01*
X190323741Y-109459815D01*
X190308759Y-109479829D01*
X190298889Y-109483510D01*
X190291266Y-109490779D01*
X190266718Y-109495509D01*
X190243295Y-109504246D01*
X190233001Y-109502006D01*
X190222659Y-109504000D01*
X190199451Y-109494708D01*
X190175022Y-109489394D01*
X190162194Y-109479791D01*
X190157795Y-109478030D01*
X190146768Y-109468243D01*
X190136819Y-109458294D01*
X190103334Y-109396971D01*
X190100500Y-109370613D01*
X190100500Y-108777527D01*
X190100500Y-108777525D01*
X190062984Y-108637515D01*
X190058664Y-108630032D01*
X189990510Y-108511985D01*
X186986819Y-105508294D01*
X186953334Y-105446971D01*
X186950500Y-105420613D01*
X186950500Y-102615350D01*
X195174500Y-102615350D01*
X195174500Y-102784649D01*
X195200981Y-102951847D01*
X195253296Y-103112853D01*
X195277059Y-103159489D01*
X195329285Y-103261988D01*
X195330152Y-103263688D01*
X195429648Y-103400634D01*
X195429652Y-103400639D01*
X195549360Y-103520347D01*
X195549365Y-103520351D01*
X195650621Y-103593917D01*
X195686315Y-103619850D01*
X195782425Y-103668820D01*
X195837146Y-103696703D01*
X195837148Y-103696703D01*
X195837151Y-103696705D01*
X195923450Y-103724745D01*
X195998152Y-103749018D01*
X196165351Y-103775500D01*
X196165356Y-103775500D01*
X196334649Y-103775500D01*
X196501847Y-103749018D01*
X196662849Y-103696705D01*
X196813685Y-103619850D01*
X196950641Y-103520346D01*
X197070346Y-103400641D01*
X197169850Y-103263685D01*
X197246705Y-103112849D01*
X197299018Y-102951847D01*
X197315070Y-102850500D01*
X197325500Y-102784649D01*
X197325500Y-102615350D01*
X197299018Y-102448152D01*
X197274428Y-102372472D01*
X197246705Y-102287151D01*
X197246703Y-102287148D01*
X197246703Y-102287146D01*
X197216324Y-102227525D01*
X197169850Y-102136315D01*
X197134392Y-102087511D01*
X197070351Y-101999365D01*
X197070347Y-101999360D01*
X196950639Y-101879652D01*
X196950634Y-101879648D01*
X196813688Y-101780152D01*
X196813687Y-101780151D01*
X196813685Y-101780150D01*
X196753531Y-101749500D01*
X196662853Y-101703296D01*
X196501847Y-101650981D01*
X196334649Y-101624500D01*
X196334644Y-101624500D01*
X196165356Y-101624500D01*
X196165351Y-101624500D01*
X195998152Y-101650981D01*
X195837146Y-101703296D01*
X195686311Y-101780152D01*
X195549365Y-101879648D01*
X195549360Y-101879652D01*
X195429652Y-101999360D01*
X195429648Y-101999365D01*
X195330152Y-102136311D01*
X195253296Y-102287146D01*
X195200981Y-102448152D01*
X195174500Y-102615350D01*
X186950500Y-102615350D01*
X186950500Y-99115350D01*
X195174500Y-99115350D01*
X195174500Y-99284649D01*
X195200981Y-99451847D01*
X195253296Y-99612853D01*
X195330152Y-99763688D01*
X195429648Y-99900634D01*
X195429652Y-99900639D01*
X195549360Y-100020347D01*
X195549365Y-100020351D01*
X195668817Y-100107137D01*
X195686315Y-100119850D01*
X195782425Y-100168820D01*
X195837146Y-100196703D01*
X195837148Y-100196703D01*
X195837151Y-100196705D01*
X195923450Y-100224745D01*
X195998152Y-100249018D01*
X196165351Y-100275500D01*
X196165356Y-100275500D01*
X196334649Y-100275500D01*
X196501847Y-100249018D01*
X196662849Y-100196705D01*
X196813685Y-100119850D01*
X196950641Y-100020346D01*
X197070346Y-99900641D01*
X197169850Y-99763685D01*
X197246705Y-99612849D01*
X197299018Y-99451847D01*
X197318546Y-99328551D01*
X197325500Y-99284649D01*
X197325500Y-99115350D01*
X197299018Y-98948152D01*
X197248728Y-98793378D01*
X197246705Y-98787151D01*
X197246703Y-98787148D01*
X197246703Y-98787146D01*
X197210623Y-98716337D01*
X197169850Y-98636315D01*
X197132802Y-98585322D01*
X197070351Y-98499365D01*
X197070347Y-98499360D01*
X196950639Y-98379652D01*
X196950634Y-98379648D01*
X196813688Y-98280152D01*
X196813687Y-98280151D01*
X196813685Y-98280150D01*
X196748458Y-98246915D01*
X196662853Y-98203296D01*
X196501847Y-98150981D01*
X196334649Y-98124500D01*
X196334644Y-98124500D01*
X196165356Y-98124500D01*
X196165351Y-98124500D01*
X195998152Y-98150981D01*
X195837146Y-98203296D01*
X195686311Y-98280152D01*
X195549365Y-98379648D01*
X195549360Y-98379652D01*
X195429652Y-98499360D01*
X195429648Y-98499365D01*
X195330152Y-98636311D01*
X195253296Y-98787146D01*
X195200981Y-98948152D01*
X195174500Y-99115350D01*
X186950500Y-99115350D01*
X186950500Y-96202527D01*
X186950500Y-96202525D01*
X186912984Y-96062515D01*
X186898550Y-96037515D01*
X186840511Y-95936988D01*
X186840506Y-95936982D01*
X186836819Y-95933295D01*
X186803334Y-95871972D01*
X186800500Y-95845614D01*
X186800500Y-94179386D01*
X186820185Y-94112347D01*
X186836819Y-94091705D01*
X186840509Y-94088015D01*
X186912984Y-93962485D01*
X186950500Y-93822475D01*
X186950500Y-93677525D01*
X186912984Y-93537515D01*
X186840509Y-93411985D01*
X186738015Y-93309491D01*
X186738013Y-93309490D01*
X186738011Y-93309488D01*
X186612488Y-93237017D01*
X186612489Y-93237017D01*
X186601006Y-93233940D01*
X186472475Y-93199500D01*
X186327525Y-93199500D01*
X186198993Y-93233940D01*
X186187511Y-93237017D01*
X186061988Y-93309488D01*
X186061982Y-93309493D01*
X185959493Y-93411982D01*
X185959488Y-93411988D01*
X185887017Y-93537511D01*
X185887016Y-93537515D01*
X185849500Y-93677525D01*
X185849500Y-93822475D01*
X185887016Y-93962485D01*
X185887017Y-93962488D01*
X185959488Y-94088011D01*
X185959493Y-94088017D01*
X185963181Y-94091705D01*
X185996666Y-94153028D01*
X185999500Y-94179386D01*
X185999500Y-95821614D01*
X185979815Y-95888653D01*
X185927011Y-95934408D01*
X185857853Y-95944352D01*
X185794297Y-95915327D01*
X185787819Y-95909295D01*
X185688017Y-95809493D01*
X185688011Y-95809488D01*
X185562488Y-95737017D01*
X185562489Y-95737017D01*
X185551006Y-95733940D01*
X185422475Y-95699500D01*
X185277525Y-95699500D01*
X185148993Y-95733940D01*
X185137511Y-95737017D01*
X185011988Y-95809488D01*
X185011982Y-95809493D01*
X184909493Y-95911982D01*
X184909488Y-95911988D01*
X184837017Y-96037511D01*
X184837016Y-96037515D01*
X184799500Y-96177525D01*
X184799500Y-96177527D01*
X184799500Y-96182745D01*
X184779815Y-96249784D01*
X184763181Y-96270426D01*
X184179522Y-96854084D01*
X184179520Y-96854087D01*
X184126791Y-96945414D01*
X184104644Y-97028071D01*
X184104643Y-97028079D01*
X184102115Y-97037515D01*
X184099500Y-97047273D01*
X184099500Y-97077101D01*
X184098823Y-97083554D01*
X184087902Y-97110109D01*
X184079815Y-97137653D01*
X184073200Y-97145860D01*
X184072250Y-97148173D01*
X184070164Y-97149629D01*
X184063181Y-97158295D01*
X184059493Y-97161982D01*
X184059488Y-97161988D01*
X183987017Y-97287511D01*
X183987016Y-97287515D01*
X183949500Y-97427525D01*
X183949500Y-97572475D01*
X183981128Y-97690511D01*
X183987017Y-97712488D01*
X184059488Y-97838011D01*
X184064438Y-97844461D01*
X184063369Y-97845280D01*
X184092780Y-97899142D01*
X184087796Y-97968834D01*
X184045924Y-98024767D01*
X183980460Y-98049184D01*
X183971614Y-98049500D01*
X181853767Y-98049500D01*
X181748759Y-98077637D01*
X181713756Y-98087016D01*
X181588228Y-98159489D01*
X181588225Y-98159491D01*
X181500802Y-98246915D01*
X181439479Y-98280400D01*
X181369787Y-98275416D01*
X181325440Y-98246915D01*
X180138016Y-97059491D01*
X180138015Y-97059490D01*
X180012485Y-96987016D01*
X180012486Y-96987016D01*
X179977482Y-96977637D01*
X179872475Y-96949500D01*
X174372475Y-96949500D01*
X174227525Y-96949500D01*
X174098993Y-96983940D01*
X174087511Y-96987017D01*
X173961988Y-97059488D01*
X173961982Y-97059493D01*
X173859493Y-97161982D01*
X173859488Y-97161988D01*
X173787017Y-97287511D01*
X173787016Y-97287515D01*
X173749500Y-97427525D01*
X172988658Y-97427525D01*
X172490655Y-96929522D01*
X172490653Y-96929520D01*
X172444990Y-96903156D01*
X172399329Y-96876793D01*
X172314586Y-96854087D01*
X172297467Y-96849500D01*
X172297466Y-96849500D01*
X170929386Y-96849500D01*
X170862347Y-96829815D01*
X170841705Y-96813181D01*
X170838017Y-96809493D01*
X170838011Y-96809488D01*
X170712488Y-96737017D01*
X170712489Y-96737017D01*
X170701006Y-96733940D01*
X170572475Y-96699500D01*
X170427525Y-96699500D01*
X170298993Y-96733940D01*
X170287511Y-96737017D01*
X170161988Y-96809488D01*
X170161982Y-96809493D01*
X170059493Y-96911982D01*
X170059488Y-96911988D01*
X169987017Y-97037511D01*
X169987016Y-97037515D01*
X169949500Y-97177525D01*
X169949500Y-97322475D01*
X169977649Y-97427527D01*
X169987017Y-97462488D01*
X170059488Y-97588011D01*
X170059490Y-97588013D01*
X170059491Y-97588015D01*
X170161985Y-97690509D01*
X170161986Y-97690510D01*
X170161988Y-97690511D01*
X170287511Y-97762982D01*
X170287512Y-97762982D01*
X170287515Y-97762984D01*
X170427525Y-97800500D01*
X170427528Y-97800500D01*
X170572472Y-97800500D01*
X170572475Y-97800500D01*
X170712485Y-97762984D01*
X170838015Y-97690509D01*
X170841705Y-97686819D01*
X170903028Y-97653334D01*
X170929386Y-97650500D01*
X172027485Y-97650500D01*
X172094524Y-97670185D01*
X172115166Y-97686819D01*
X179474259Y-105045912D01*
X179474260Y-105045913D01*
X179548827Y-105120480D01*
X179640153Y-105173207D01*
X179742013Y-105200500D01*
X181017469Y-105200500D01*
X181038914Y-105206797D01*
X181061204Y-105208469D01*
X181071789Y-105216450D01*
X181084508Y-105220185D01*
X181099143Y-105237075D01*
X181116992Y-105250533D01*
X181121582Y-105262970D01*
X181130263Y-105272989D01*
X181133444Y-105295112D01*
X181141183Y-105316082D01*
X181139277Y-105335681D01*
X181140207Y-105342147D01*
X181138543Y-105351277D01*
X181137949Y-105353960D01*
X181114182Y-105442661D01*
X181114182Y-105461427D01*
X181111256Y-105474658D01*
X181100676Y-105493875D01*
X181094497Y-105514920D01*
X181077863Y-105535562D01*
X181050244Y-105563181D01*
X180988921Y-105596666D01*
X180962563Y-105599500D01*
X177970128Y-105599500D01*
X177903089Y-105579815D01*
X177882447Y-105563181D01*
X177863017Y-105543751D01*
X177863011Y-105543746D01*
X177737488Y-105471275D01*
X177737489Y-105471275D01*
X177726006Y-105468198D01*
X177597475Y-105433758D01*
X177452525Y-105433758D01*
X177323993Y-105468198D01*
X177312511Y-105471275D01*
X177186988Y-105543746D01*
X177186982Y-105543751D01*
X177183295Y-105547439D01*
X177121972Y-105580924D01*
X177095614Y-105583758D01*
X176841697Y-105583758D01*
X176739837Y-105611051D01*
X176739834Y-105611052D01*
X176688814Y-105640509D01*
X176648514Y-105663776D01*
X176648508Y-105663780D01*
X169590159Y-112722130D01*
X169528836Y-112755615D01*
X169502478Y-112758449D01*
X166682369Y-112758449D01*
X166615330Y-112738764D01*
X166594688Y-112722130D01*
X166591000Y-112718442D01*
X166590994Y-112718437D01*
X166465471Y-112645966D01*
X166465472Y-112645966D01*
X166453989Y-112642889D01*
X166325458Y-112608449D01*
X166180508Y-112608449D01*
X166051976Y-112642889D01*
X166040494Y-112645966D01*
X165914971Y-112718437D01*
X165914965Y-112718442D01*
X165812476Y-112820931D01*
X165812471Y-112820937D01*
X165740000Y-112946460D01*
X165735743Y-112962347D01*
X165702483Y-113086474D01*
X165702483Y-113231424D01*
X165736777Y-113359409D01*
X165740000Y-113371437D01*
X165812471Y-113496960D01*
X165812473Y-113496962D01*
X165812474Y-113496964D01*
X165914968Y-113599458D01*
X165914969Y-113599459D01*
X165914971Y-113599460D01*
X166040494Y-113671931D01*
X166040495Y-113671931D01*
X166040498Y-113671933D01*
X166180508Y-113709449D01*
X166180511Y-113709449D01*
X166325455Y-113709449D01*
X166325458Y-113709449D01*
X166465468Y-113671933D01*
X166590998Y-113599458D01*
X166594688Y-113595768D01*
X166656011Y-113562283D01*
X166682369Y-113559449D01*
X169325500Y-113559449D01*
X169392539Y-113579134D01*
X169438294Y-113631938D01*
X169449500Y-113683449D01*
X169449500Y-113822475D01*
X169475475Y-113919413D01*
X169487017Y-113962488D01*
X169559488Y-114088011D01*
X169559490Y-114088013D01*
X169559491Y-114088015D01*
X169661985Y-114190509D01*
X169661986Y-114190510D01*
X169661988Y-114190511D01*
X169787511Y-114262982D01*
X169787512Y-114262982D01*
X169787515Y-114262984D01*
X169927525Y-114300500D01*
X169927528Y-114300500D01*
X170072472Y-114300500D01*
X170072475Y-114300500D01*
X170212485Y-114262984D01*
X170338015Y-114190509D01*
X170440509Y-114088015D01*
X170512984Y-113962485D01*
X170550500Y-113822475D01*
X170550500Y-113677525D01*
X170512984Y-113537515D01*
X170504321Y-113522511D01*
X170440511Y-113411988D01*
X170440506Y-113411982D01*
X170338017Y-113309493D01*
X170338015Y-113309491D01*
X170338012Y-113309489D01*
X170335650Y-113307677D01*
X170334158Y-113305634D01*
X170332268Y-113303744D01*
X170332562Y-113303449D01*
X170294446Y-113251250D01*
X170290291Y-113181504D01*
X170323452Y-113121621D01*
X171096094Y-112348980D01*
X171157416Y-112315496D01*
X171227108Y-112320480D01*
X171283041Y-112362352D01*
X171307458Y-112427816D01*
X171307774Y-112436662D01*
X171307774Y-114074471D01*
X171288089Y-114141510D01*
X171271455Y-114162152D01*
X170020426Y-115413181D01*
X169959103Y-115446666D01*
X169932745Y-115449500D01*
X169927525Y-115449500D01*
X169798993Y-115483940D01*
X169787511Y-115487017D01*
X169661988Y-115559488D01*
X169661982Y-115559493D01*
X169559493Y-115661982D01*
X169559488Y-115661988D01*
X169487017Y-115787511D01*
X169487016Y-115787515D01*
X169449500Y-115927525D01*
X169449500Y-116072475D01*
X169480192Y-116187016D01*
X169487017Y-116212488D01*
X169559488Y-116338011D01*
X169559490Y-116338013D01*
X169559491Y-116338015D01*
X169661985Y-116440509D01*
X169661986Y-116440510D01*
X169661988Y-116440511D01*
X169787511Y-116512982D01*
X169787512Y-116512982D01*
X169787515Y-116512984D01*
X169927525Y-116550500D01*
X169927528Y-116550500D01*
X170072472Y-116550500D01*
X170072475Y-116550500D01*
X170212485Y-116512984D01*
X170338015Y-116440509D01*
X170440509Y-116338015D01*
X170512984Y-116212485D01*
X170550500Y-116072475D01*
X170550500Y-116067255D01*
X170570185Y-116000216D01*
X170586819Y-115979574D01*
X171596093Y-114970300D01*
X171657416Y-114936815D01*
X171727108Y-114941799D01*
X171783041Y-114983671D01*
X171807458Y-115049135D01*
X171807774Y-115057981D01*
X171807774Y-115824471D01*
X171788089Y-115891510D01*
X171771455Y-115912152D01*
X170020426Y-117663181D01*
X169959103Y-117696666D01*
X169932745Y-117699500D01*
X169927525Y-117699500D01*
X169798993Y-117733940D01*
X169787511Y-117737017D01*
X169661988Y-117809488D01*
X169661982Y-117809493D01*
X169559493Y-117911982D01*
X169559488Y-117911988D01*
X169487017Y-118037511D01*
X169487016Y-118037515D01*
X169449500Y-118177525D01*
X169449500Y-118322475D01*
X169483705Y-118450127D01*
X169487017Y-118462488D01*
X169559488Y-118588011D01*
X169559490Y-118588013D01*
X169559491Y-118588015D01*
X169661985Y-118690509D01*
X169661986Y-118690510D01*
X169661988Y-118690511D01*
X169787511Y-118762982D01*
X169787512Y-118762982D01*
X169787515Y-118762984D01*
X169927525Y-118800500D01*
X169927528Y-118800500D01*
X170072472Y-118800500D01*
X170072475Y-118800500D01*
X170212485Y-118762984D01*
X170338015Y-118690509D01*
X170440509Y-118588015D01*
X170512984Y-118462485D01*
X170550500Y-118322475D01*
X170550500Y-118317255D01*
X170570185Y-118250216D01*
X170586819Y-118229574D01*
X172096093Y-116720300D01*
X172157416Y-116686815D01*
X172227108Y-116691799D01*
X172283041Y-116733671D01*
X172307458Y-116799135D01*
X172307774Y-116807981D01*
X172307774Y-117812775D01*
X172288089Y-117879814D01*
X172271455Y-117900456D01*
X170241348Y-119930562D01*
X170180025Y-119964047D01*
X170121574Y-119962656D01*
X170105220Y-119958274D01*
X170072475Y-119949500D01*
X169927525Y-119949500D01*
X169798993Y-119983940D01*
X169787511Y-119987017D01*
X169661988Y-120059488D01*
X169661982Y-120059493D01*
X169559493Y-120161982D01*
X169559488Y-120161988D01*
X169487017Y-120287511D01*
X169487016Y-120287515D01*
X169449500Y-120427525D01*
X169449500Y-120572475D01*
X169462882Y-120622416D01*
X169487017Y-120712488D01*
X169545337Y-120813500D01*
X169561810Y-120881400D01*
X169538958Y-120947427D01*
X169484037Y-120990617D01*
X169437950Y-120999500D01*
X167417255Y-120999500D01*
X167350216Y-120979815D01*
X167329574Y-120963181D01*
X166868624Y-120502231D01*
X166848917Y-120476548D01*
X166840511Y-120461988D01*
X166840507Y-120461983D01*
X166738017Y-120359493D01*
X166738011Y-120359488D01*
X166612488Y-120287017D01*
X166612489Y-120287017D01*
X166601006Y-120283940D01*
X166472475Y-120249500D01*
X166327525Y-120249500D01*
X166244376Y-120271780D01*
X166187510Y-120287017D01*
X166187507Y-120287018D01*
X166186496Y-120287603D01*
X166185534Y-120287836D01*
X166180001Y-120290128D01*
X166179643Y-120289265D01*
X166118595Y-120304073D01*
X166052569Y-120281219D01*
X166009381Y-120226296D01*
X166000500Y-120180214D01*
X166000500Y-118078035D01*
X165999205Y-118073203D01*
X165999204Y-118073198D01*
X165973208Y-117976176D01*
X165967850Y-117966896D01*
X165920480Y-117884849D01*
X164936819Y-116901188D01*
X164903334Y-116839865D01*
X164900500Y-116813507D01*
X164900500Y-113162627D01*
X164920185Y-113095588D01*
X164962501Y-113055239D01*
X164988015Y-113040509D01*
X165090509Y-112938015D01*
X165162984Y-112812485D01*
X165200500Y-112672475D01*
X165200500Y-112527525D01*
X165162984Y-112387515D01*
X165140736Y-112348981D01*
X165090511Y-112261988D01*
X165090506Y-112261982D01*
X164988017Y-112159493D01*
X164988011Y-112159488D01*
X164862488Y-112087017D01*
X164862489Y-112087017D01*
X164836663Y-112080097D01*
X164722475Y-112049500D01*
X164577525Y-112049500D01*
X164556592Y-112055108D01*
X164486743Y-112053446D01*
X164428881Y-112014283D01*
X164401377Y-111950055D01*
X164400500Y-111935334D01*
X164400500Y-108077527D01*
X164400500Y-108077525D01*
X164362984Y-107937515D01*
X164309809Y-107845413D01*
X164290510Y-107811985D01*
X164290508Y-107811983D01*
X164290507Y-107811981D01*
X164290506Y-107811980D01*
X163998014Y-107519489D01*
X163998013Y-107519488D01*
X163872483Y-107447014D01*
X163872484Y-107447014D01*
X163837480Y-107437635D01*
X163732473Y-107409498D01*
X161922475Y-107409498D01*
X161777525Y-107409498D01*
X161660344Y-107440897D01*
X161637511Y-107447015D01*
X161511988Y-107519486D01*
X161511982Y-107519491D01*
X161462181Y-107569293D01*
X161400858Y-107602778D01*
X161331166Y-107597794D01*
X161275233Y-107555922D01*
X161250816Y-107490458D01*
X161250500Y-107481612D01*
X161250500Y-94927525D01*
X177449500Y-94927525D01*
X177449500Y-95072475D01*
X177487016Y-95212485D01*
X177487017Y-95212488D01*
X177559488Y-95338011D01*
X177559490Y-95338013D01*
X177559491Y-95338015D01*
X177661985Y-95440509D01*
X177661986Y-95440510D01*
X177661988Y-95440511D01*
X177787511Y-95512982D01*
X177787512Y-95512982D01*
X177787515Y-95512984D01*
X177927525Y-95550500D01*
X177927528Y-95550500D01*
X178072472Y-95550500D01*
X178072475Y-95550500D01*
X178212485Y-95512984D01*
X178338015Y-95440509D01*
X178440509Y-95338015D01*
X178512984Y-95212485D01*
X178550500Y-95072475D01*
X178550500Y-94927525D01*
X178512984Y-94787515D01*
X178440509Y-94661985D01*
X178338015Y-94559491D01*
X178338013Y-94559490D01*
X178338011Y-94559488D01*
X178212488Y-94487017D01*
X178212489Y-94487017D01*
X178201006Y-94483940D01*
X178072475Y-94449500D01*
X177927525Y-94449500D01*
X177798993Y-94483940D01*
X177787511Y-94487017D01*
X177661988Y-94559488D01*
X177661982Y-94559493D01*
X177559493Y-94661982D01*
X177559488Y-94661988D01*
X177487017Y-94787511D01*
X177487016Y-94787515D01*
X177449500Y-94927525D01*
X161250500Y-94927525D01*
X161250500Y-93227525D01*
X167349500Y-93227525D01*
X167349500Y-93372475D01*
X167360087Y-93411985D01*
X167387017Y-93512488D01*
X167459488Y-93638011D01*
X167459490Y-93638013D01*
X167459491Y-93638015D01*
X167561985Y-93740509D01*
X167561986Y-93740510D01*
X167561988Y-93740511D01*
X167687511Y-93812982D01*
X167687512Y-93812982D01*
X167687515Y-93812984D01*
X167827525Y-93850500D01*
X167827528Y-93850500D01*
X167972472Y-93850500D01*
X167972475Y-93850500D01*
X168112485Y-93812984D01*
X168238015Y-93740509D01*
X168340509Y-93638015D01*
X168412984Y-93512485D01*
X168450500Y-93372475D01*
X168450500Y-93267253D01*
X168470185Y-93200214D01*
X168486814Y-93179576D01*
X169735703Y-91930687D01*
X169735708Y-91930684D01*
X169745911Y-91920480D01*
X169745913Y-91920480D01*
X169820480Y-91845913D01*
X169873207Y-91754587D01*
X169900501Y-91652727D01*
X169900501Y-91547273D01*
X169900501Y-91539678D01*
X169900500Y-91539660D01*
X169900500Y-90802525D01*
X190074500Y-90802525D01*
X190074500Y-91302525D01*
X190074500Y-91447475D01*
X190099206Y-91539678D01*
X190112017Y-91587488D01*
X190184488Y-91713011D01*
X190184490Y-91713013D01*
X190184491Y-91713015D01*
X190286985Y-91815509D01*
X190286986Y-91815510D01*
X190286988Y-91815511D01*
X190412511Y-91887982D01*
X190412512Y-91887982D01*
X190412515Y-91887984D01*
X190552525Y-91925500D01*
X190552528Y-91925500D01*
X190697472Y-91925500D01*
X190697475Y-91925500D01*
X190837485Y-91887984D01*
X190963015Y-91815509D01*
X191065509Y-91713015D01*
X191137984Y-91587485D01*
X191175500Y-91447475D01*
X191175500Y-91302525D01*
X191175500Y-91154386D01*
X191195185Y-91087347D01*
X191211814Y-91066710D01*
X193663173Y-88615350D01*
X195174500Y-88615350D01*
X195174500Y-88784649D01*
X195200981Y-88951847D01*
X195253296Y-89112853D01*
X195330152Y-89263688D01*
X195429648Y-89400634D01*
X195429652Y-89400639D01*
X195549360Y-89520347D01*
X195549365Y-89520351D01*
X195668817Y-89607137D01*
X195686315Y-89619850D01*
X195782425Y-89668820D01*
X195837146Y-89696703D01*
X195837148Y-89696703D01*
X195837151Y-89696705D01*
X195923450Y-89724745D01*
X195998152Y-89749018D01*
X196165351Y-89775500D01*
X196165356Y-89775500D01*
X196334649Y-89775500D01*
X196501847Y-89749018D01*
X196662849Y-89696705D01*
X196813685Y-89619850D01*
X196950641Y-89520346D01*
X197070346Y-89400641D01*
X197169850Y-89263685D01*
X197246705Y-89112849D01*
X197299018Y-88951847D01*
X197325500Y-88784649D01*
X197325500Y-88615350D01*
X197299018Y-88448152D01*
X197246703Y-88287146D01*
X197218820Y-88232425D01*
X197169850Y-88136315D01*
X197157137Y-88118817D01*
X197070351Y-87999365D01*
X197070347Y-87999360D01*
X196950639Y-87879652D01*
X196950634Y-87879648D01*
X196813688Y-87780152D01*
X196813687Y-87780151D01*
X196813685Y-87780150D01*
X196766582Y-87756150D01*
X196662853Y-87703296D01*
X196501847Y-87650981D01*
X196334649Y-87624500D01*
X196334644Y-87624500D01*
X196165356Y-87624500D01*
X196165351Y-87624500D01*
X195998152Y-87650981D01*
X195837146Y-87703296D01*
X195686311Y-87780152D01*
X195549365Y-87879648D01*
X195549360Y-87879652D01*
X195429652Y-87999360D01*
X195429648Y-87999365D01*
X195330152Y-88136311D01*
X195253296Y-88287146D01*
X195200981Y-88448152D01*
X195174500Y-88615350D01*
X193663173Y-88615350D01*
X195980546Y-86297977D01*
X196041867Y-86264494D01*
X196087618Y-86263187D01*
X196165356Y-86275500D01*
X196165359Y-86275500D01*
X196334649Y-86275500D01*
X196501847Y-86249018D01*
X196662849Y-86196705D01*
X196813685Y-86119850D01*
X196950641Y-86020346D01*
X197070346Y-85900641D01*
X197169850Y-85763685D01*
X197246705Y-85612849D01*
X197299018Y-85451847D01*
X197299516Y-85448702D01*
X197325500Y-85284649D01*
X197325500Y-85115350D01*
X197299018Y-84948152D01*
X197246703Y-84787146D01*
X197218820Y-84732425D01*
X197169850Y-84636315D01*
X197157137Y-84618817D01*
X197070351Y-84499365D01*
X197070347Y-84499360D01*
X196950639Y-84379652D01*
X196950634Y-84379648D01*
X196813688Y-84280152D01*
X196813687Y-84280151D01*
X196813685Y-84280150D01*
X196766582Y-84256150D01*
X196662853Y-84203296D01*
X196501847Y-84150981D01*
X196334649Y-84124500D01*
X196334644Y-84124500D01*
X196165356Y-84124500D01*
X196165351Y-84124500D01*
X195998152Y-84150981D01*
X195837146Y-84203296D01*
X195686311Y-84280152D01*
X195549365Y-84379648D01*
X195549360Y-84379652D01*
X195429652Y-84499360D01*
X195429648Y-84499365D01*
X195330152Y-84636311D01*
X195253296Y-84787146D01*
X195200981Y-84948152D01*
X195174500Y-85115350D01*
X195174500Y-85284649D01*
X195200484Y-85448702D01*
X195191530Y-85517995D01*
X195165692Y-85555781D01*
X190184491Y-90536983D01*
X190184489Y-90536986D01*
X190112016Y-90662514D01*
X190112016Y-90662515D01*
X190074500Y-90802525D01*
X169900500Y-90802525D01*
X169900500Y-77508636D01*
X169920185Y-77441597D01*
X169972989Y-77395842D01*
X170042147Y-77385898D01*
X170105703Y-77414923D01*
X170112181Y-77420955D01*
X170155912Y-77464686D01*
X170155913Y-77464687D01*
X170155915Y-77464688D01*
X170281438Y-77537159D01*
X170281439Y-77537159D01*
X170281442Y-77537161D01*
X170421452Y-77574677D01*
X170421455Y-77574677D01*
X170566399Y-77574677D01*
X170566402Y-77574677D01*
X170706412Y-77537161D01*
X170831942Y-77464686D01*
X170934436Y-77362192D01*
X171006911Y-77236662D01*
X171044427Y-77096652D01*
X171044427Y-76951702D01*
X171006911Y-76811692D01*
X170964082Y-76737511D01*
X170934438Y-76686165D01*
X170934433Y-76686159D01*
X170831944Y-76583670D01*
X170831938Y-76583665D01*
X170706415Y-76511194D01*
X170706410Y-76511192D01*
X170630824Y-76490938D01*
X170575238Y-76458845D01*
X169586819Y-75470426D01*
X169553334Y-75409103D01*
X169550500Y-75382745D01*
X169550500Y-75327527D01*
X169550500Y-75327525D01*
X169512984Y-75187515D01*
X169500488Y-75165872D01*
X169440511Y-75061988D01*
X169440506Y-75061982D01*
X169338017Y-74959493D01*
X169338011Y-74959488D01*
X169212488Y-74887017D01*
X169212489Y-74887017D01*
X169201006Y-74883940D01*
X169072475Y-74849500D01*
X168927525Y-74849500D01*
X168798993Y-74883940D01*
X168787511Y-74887017D01*
X168661988Y-74959488D01*
X168661982Y-74959493D01*
X168559493Y-75061982D01*
X168559488Y-75061988D01*
X168487017Y-75187511D01*
X168487016Y-75187515D01*
X168449500Y-75327525D01*
X168449500Y-75472475D01*
X168487016Y-75612485D01*
X168487017Y-75612488D01*
X168559488Y-75738011D01*
X168559490Y-75738013D01*
X168559491Y-75738015D01*
X168661985Y-75840509D01*
X168661986Y-75840510D01*
X168661988Y-75840511D01*
X168787511Y-75912982D01*
X168787512Y-75912982D01*
X168787515Y-75912984D01*
X168904425Y-75944310D01*
X168960010Y-75976403D01*
X169269375Y-76285768D01*
X169302860Y-76347091D01*
X169297876Y-76416783D01*
X169256004Y-76472716D01*
X169243696Y-76480835D01*
X169194068Y-76509488D01*
X169194062Y-76509493D01*
X169091573Y-76611982D01*
X169091568Y-76611988D01*
X169019097Y-76737511D01*
X169019096Y-76737515D01*
X168981580Y-76877525D01*
X168981580Y-77022475D01*
X169019096Y-77162485D01*
X169082887Y-77272974D01*
X169099500Y-77334974D01*
X169099500Y-91382744D01*
X169079815Y-91449783D01*
X169063181Y-91470425D01*
X167791708Y-92741897D01*
X167736123Y-92773990D01*
X167687516Y-92787015D01*
X167687511Y-92787017D01*
X167561988Y-92859488D01*
X167561982Y-92859493D01*
X167459493Y-92961982D01*
X167459488Y-92961988D01*
X167387017Y-93087511D01*
X167387016Y-93087515D01*
X167349500Y-93227525D01*
X161250500Y-93227525D01*
X161250500Y-76215139D01*
X161270185Y-76148100D01*
X161322989Y-76102345D01*
X161392147Y-76092401D01*
X161455703Y-76121426D01*
X161462181Y-76127458D01*
X161596281Y-76261558D01*
X161764237Y-76373782D01*
X161764241Y-76373784D01*
X161764244Y-76373786D01*
X161950873Y-76451091D01*
X162107974Y-76482340D01*
X162148992Y-76490499D01*
X162148996Y-76490500D01*
X162148997Y-76490500D01*
X162351004Y-76490500D01*
X162351005Y-76490499D01*
X162549127Y-76451091D01*
X162735756Y-76373786D01*
X162903718Y-76261558D01*
X163046558Y-76118718D01*
X163158786Y-75950756D01*
X163236091Y-75764127D01*
X163275500Y-75566003D01*
X163275500Y-75363997D01*
X163236091Y-75165873D01*
X163158786Y-74979244D01*
X163158784Y-74979241D01*
X163158782Y-74979237D01*
X163046558Y-74811281D01*
X162903718Y-74668441D01*
X162735762Y-74556217D01*
X162735752Y-74556212D01*
X162549127Y-74478909D01*
X162549119Y-74478907D01*
X162351007Y-74439500D01*
X162351003Y-74439500D01*
X162148997Y-74439500D01*
X162148992Y-74439500D01*
X161950880Y-74478907D01*
X161950872Y-74478909D01*
X161764247Y-74556212D01*
X161764237Y-74556217D01*
X161596281Y-74668441D01*
X161596278Y-74668444D01*
X161462181Y-74802542D01*
X161400858Y-74836027D01*
X161331166Y-74831043D01*
X161275233Y-74789171D01*
X161250816Y-74723707D01*
X161250500Y-74714861D01*
X161250500Y-73675139D01*
X161270185Y-73608100D01*
X161322989Y-73562345D01*
X161392147Y-73552401D01*
X161455703Y-73581426D01*
X161462181Y-73587458D01*
X161596281Y-73721558D01*
X161764237Y-73833782D01*
X161764241Y-73833784D01*
X161764244Y-73833786D01*
X161950873Y-73911091D01*
X162148992Y-73950499D01*
X162148996Y-73950500D01*
X162148997Y-73950500D01*
X162351004Y-73950500D01*
X162351005Y-73950499D01*
X162549127Y-73911091D01*
X162735756Y-73833786D01*
X162903718Y-73721558D01*
X163046558Y-73578718D01*
X163158786Y-73410756D01*
X163236091Y-73224127D01*
X163275500Y-73026003D01*
X163275500Y-72823997D01*
X163236091Y-72625873D01*
X163158786Y-72439244D01*
X163158784Y-72439241D01*
X163158782Y-72439237D01*
X163046558Y-72271281D01*
X162903718Y-72128441D01*
X162735762Y-72016217D01*
X162735752Y-72016212D01*
X162549127Y-71938909D01*
X162549119Y-71938907D01*
X162351007Y-71899500D01*
X162351003Y-71899500D01*
X162148997Y-71899500D01*
X162148992Y-71899500D01*
X161950880Y-71938907D01*
X161950872Y-71938909D01*
X161764247Y-72016212D01*
X161764237Y-72016217D01*
X161596281Y-72128441D01*
X161596278Y-72128444D01*
X161462181Y-72262542D01*
X161400858Y-72296027D01*
X161331166Y-72291043D01*
X161275233Y-72249171D01*
X161250816Y-72183707D01*
X161250500Y-72174861D01*
X161250500Y-70503480D01*
X161250695Y-70496528D01*
X161253298Y-70450172D01*
X161267398Y-70199097D01*
X161268952Y-70185298D01*
X161318269Y-69895041D01*
X161319569Y-69889346D01*
X163899500Y-69889346D01*
X163899500Y-70106653D01*
X163933491Y-70321268D01*
X164000641Y-70527932D01*
X164099290Y-70721540D01*
X164227013Y-70897336D01*
X164380664Y-71050987D01*
X164556460Y-71178710D01*
X164647934Y-71225318D01*
X164750067Y-71277358D01*
X164750069Y-71277358D01*
X164750072Y-71277360D01*
X164860847Y-71313353D01*
X164956731Y-71344508D01*
X165171347Y-71378500D01*
X165171352Y-71378500D01*
X165388653Y-71378500D01*
X165603268Y-71344508D01*
X165809928Y-71277360D01*
X166003540Y-71178710D01*
X166179336Y-71050987D01*
X166332987Y-70897336D01*
X166460710Y-70721540D01*
X166559360Y-70527928D01*
X166626508Y-70321268D01*
X166660500Y-70106653D01*
X166660500Y-69889346D01*
X194379500Y-69889346D01*
X194379500Y-70106653D01*
X194413491Y-70321268D01*
X194480641Y-70527932D01*
X194579290Y-70721540D01*
X194707013Y-70897336D01*
X194860664Y-71050987D01*
X195036460Y-71178710D01*
X195127934Y-71225318D01*
X195230067Y-71277358D01*
X195230069Y-71277358D01*
X195230072Y-71277360D01*
X195340847Y-71313353D01*
X195436731Y-71344508D01*
X195651347Y-71378500D01*
X195651352Y-71378500D01*
X195868653Y-71378500D01*
X196083268Y-71344508D01*
X196289928Y-71277360D01*
X196483540Y-71178710D01*
X196659336Y-71050987D01*
X196812987Y-70897336D01*
X196940710Y-70721540D01*
X197039360Y-70527928D01*
X197106508Y-70321268D01*
X197140500Y-70106653D01*
X197140500Y-69889346D01*
X197106508Y-69674731D01*
X197039358Y-69468067D01*
X196987318Y-69365934D01*
X196940710Y-69274460D01*
X196812987Y-69098664D01*
X196659336Y-68945013D01*
X196483540Y-68817290D01*
X196289932Y-68718641D01*
X196083268Y-68651491D01*
X195868653Y-68617500D01*
X195868648Y-68617500D01*
X195651352Y-68617500D01*
X195651347Y-68617500D01*
X195436731Y-68651491D01*
X195230067Y-68718641D01*
X195036459Y-68817290D01*
X194860661Y-68945015D01*
X194707015Y-69098661D01*
X194579290Y-69274459D01*
X194480641Y-69468067D01*
X194413491Y-69674731D01*
X194379500Y-69889346D01*
X166660500Y-69889346D01*
X166626508Y-69674731D01*
X166559358Y-69468067D01*
X166507318Y-69365934D01*
X166460710Y-69274460D01*
X166332987Y-69098664D01*
X166179336Y-68945013D01*
X166003540Y-68817290D01*
X165809932Y-68718641D01*
X165603268Y-68651491D01*
X165388653Y-68617500D01*
X165388648Y-68617500D01*
X165171352Y-68617500D01*
X165171347Y-68617500D01*
X164956731Y-68651491D01*
X164750067Y-68718641D01*
X164556459Y-68817290D01*
X164380661Y-68945015D01*
X164227015Y-69098661D01*
X164099290Y-69274459D01*
X164000641Y-69468067D01*
X163933491Y-69674731D01*
X163899500Y-69889346D01*
X161319569Y-69889346D01*
X161321363Y-69881490D01*
X161330391Y-69850153D01*
X161330391Y-69850152D01*
X161402866Y-69598586D01*
X161407459Y-69585462D01*
X161456085Y-69468067D01*
X161520123Y-69313463D01*
X161526145Y-69300957D01*
X161668566Y-69043267D01*
X161675961Y-69031499D01*
X161682503Y-69022279D01*
X161846330Y-68791385D01*
X161854985Y-68780531D01*
X162051179Y-68560991D01*
X162060991Y-68551179D01*
X162280531Y-68354985D01*
X162291385Y-68346330D01*
X162531504Y-68175957D01*
X162543267Y-68168566D01*
X162800957Y-68026145D01*
X162813463Y-68020123D01*
X163085462Y-67907459D01*
X163098582Y-67902867D01*
X163381494Y-67821361D01*
X163395041Y-67818269D01*
X163685298Y-67768952D01*
X163699097Y-67767398D01*
X163959562Y-67752770D01*
X163996529Y-67750695D01*
X164003481Y-67750500D01*
X164044170Y-67750500D01*
X196955830Y-67750500D01*
X196996519Y-67750500D01*
X197003471Y-67750695D01*
G37*
%TD.AperFunction*%
%TA.AperFunction,Conductor*%
G36*
X181083469Y-114900339D02*
G01*
X181113255Y-114901049D01*
X181117822Y-114904140D01*
X181123305Y-114904747D01*
X181146445Y-114923512D01*
X181171118Y-114940211D01*
X181173289Y-114945281D01*
X181177573Y-114948755D01*
X181186894Y-114977050D01*
X181198623Y-115004439D01*
X181199220Y-115014468D01*
X181199434Y-115015117D01*
X181199291Y-115015666D01*
X181199500Y-115019161D01*
X181199500Y-115583723D01*
X181179815Y-115650762D01*
X181163181Y-115671404D01*
X178080359Y-118754226D01*
X178019036Y-118787711D01*
X177992678Y-118790545D01*
X177977525Y-118790545D01*
X177864251Y-118820897D01*
X177837511Y-118828062D01*
X177711988Y-118900533D01*
X177711982Y-118900538D01*
X177609493Y-119003027D01*
X177609488Y-119003033D01*
X177537017Y-119128556D01*
X177537016Y-119128560D01*
X177499500Y-119268570D01*
X177499500Y-119413520D01*
X177519143Y-119486829D01*
X177520906Y-119493407D01*
X177519243Y-119563256D01*
X177480081Y-119621119D01*
X177415852Y-119648623D01*
X177401131Y-119649500D01*
X176816801Y-119649500D01*
X176787356Y-119640854D01*
X176757373Y-119634331D01*
X176752359Y-119630577D01*
X176749762Y-119629815D01*
X176729119Y-119613180D01*
X176690449Y-119574509D01*
X176656964Y-119513186D01*
X176654131Y-119486829D01*
X176654131Y-119481612D01*
X176654131Y-119481610D01*
X176616615Y-119341600D01*
X176556828Y-119238047D01*
X176544142Y-119216073D01*
X176544137Y-119216067D01*
X176441648Y-119113578D01*
X176441642Y-119113573D01*
X176422875Y-119102738D01*
X176374660Y-119052170D01*
X176361439Y-118983562D01*
X176387408Y-118918698D01*
X176397188Y-118907679D01*
X179832906Y-115471961D01*
X179894227Y-115438478D01*
X179963919Y-115443462D01*
X179982579Y-115452254D01*
X179988381Y-115455604D01*
X180128391Y-115493120D01*
X180128394Y-115493120D01*
X180273338Y-115493120D01*
X180273341Y-115493120D01*
X180413351Y-115455604D01*
X180538881Y-115383129D01*
X180641375Y-115280635D01*
X180713850Y-115155105D01*
X180749061Y-115023693D01*
X180785425Y-114964037D01*
X180847194Y-114933694D01*
X180857931Y-114931791D01*
X180922475Y-114931791D01*
X181048593Y-114897997D01*
X181053859Y-114897064D01*
X181083469Y-114900339D01*
G37*
%TD.AperFunction*%
%TA.AperFunction,Conductor*%
G36*
X187497328Y-111979805D02*
G01*
X187505775Y-111985744D01*
X187511984Y-111990508D01*
X187511985Y-111990509D01*
X187553163Y-112014283D01*
X187637511Y-112062982D01*
X187637512Y-112062982D01*
X187637515Y-112062984D01*
X187777525Y-112100500D01*
X187782745Y-112100500D01*
X187849784Y-112120185D01*
X187870426Y-112136819D01*
X188263181Y-112529573D01*
X188296666Y-112590896D01*
X188299500Y-112617254D01*
X188299500Y-117202984D01*
X188279815Y-117270023D01*
X188227011Y-117315778D01*
X188157853Y-117325722D01*
X188094297Y-117296697D01*
X188087819Y-117290665D01*
X187316819Y-116519665D01*
X187283334Y-116458342D01*
X187280500Y-116431984D01*
X187280500Y-114083134D01*
X187280500Y-114083132D01*
X187257130Y-113995913D01*
X187253207Y-113981271D01*
X187200480Y-113889946D01*
X187130876Y-113820342D01*
X187097391Y-113759019D01*
X187094557Y-113732661D01*
X187094557Y-113727443D01*
X187094557Y-113727441D01*
X187057041Y-113587431D01*
X187056013Y-113585651D01*
X186984568Y-113461904D01*
X186984563Y-113461898D01*
X186882074Y-113359409D01*
X186882068Y-113359404D01*
X186756545Y-113286933D01*
X186756546Y-113286933D01*
X186745063Y-113283856D01*
X186616532Y-113249416D01*
X186471582Y-113249416D01*
X186343050Y-113283856D01*
X186331568Y-113286933D01*
X186206045Y-113359404D01*
X186206039Y-113359409D01*
X186103550Y-113461898D01*
X186103546Y-113461904D01*
X186065295Y-113528155D01*
X186014727Y-113576369D01*
X185946120Y-113589591D01*
X185881256Y-113563622D01*
X185870236Y-113553841D01*
X184488194Y-112171800D01*
X184454710Y-112110478D01*
X184459694Y-112040786D01*
X184501566Y-111984853D01*
X184567030Y-111960436D01*
X184575876Y-111960120D01*
X187430289Y-111960120D01*
X187497328Y-111979805D01*
G37*
%TD.AperFunction*%
%TA.AperFunction,Conductor*%
G36*
X178166164Y-110704805D02*
G01*
X178211919Y-110757609D01*
X178221863Y-110826767D01*
X178192838Y-110890323D01*
X178186806Y-110896801D01*
X178020426Y-111063181D01*
X177959103Y-111096666D01*
X177932745Y-111099500D01*
X177927525Y-111099500D01*
X177802245Y-111133069D01*
X177787511Y-111137017D01*
X177661988Y-111209488D01*
X177661982Y-111209493D01*
X177559493Y-111311982D01*
X177559488Y-111311988D01*
X177487017Y-111437511D01*
X177487016Y-111437515D01*
X177449500Y-111577525D01*
X177449500Y-111722475D01*
X177487016Y-111862485D01*
X177487017Y-111862488D01*
X177559488Y-111988011D01*
X177559493Y-111988017D01*
X177633795Y-112062319D01*
X177667280Y-112123642D01*
X177662296Y-112193334D01*
X177633795Y-112237681D01*
X177559493Y-112311982D01*
X177559488Y-112311988D01*
X177487017Y-112437511D01*
X177487016Y-112437515D01*
X177449500Y-112577525D01*
X177449500Y-112722475D01*
X177487016Y-112862485D01*
X177487017Y-112862488D01*
X177559488Y-112988011D01*
X177559493Y-112988017D01*
X177589817Y-113018341D01*
X177623302Y-113079664D01*
X177618318Y-113149356D01*
X177609523Y-113168022D01*
X177554754Y-113262884D01*
X177554753Y-113262888D01*
X177517237Y-113402898D01*
X177517237Y-113547848D01*
X177550791Y-113673070D01*
X177554754Y-113687861D01*
X177627225Y-113813384D01*
X177627227Y-113813386D01*
X177627228Y-113813388D01*
X177729722Y-113915882D01*
X177729723Y-113915883D01*
X177729725Y-113915884D01*
X177855248Y-113988355D01*
X177855249Y-113988355D01*
X177855252Y-113988357D01*
X177995262Y-114025873D01*
X177995265Y-114025873D01*
X178002401Y-114027785D01*
X178062061Y-114064150D01*
X178092590Y-114126997D01*
X178084295Y-114196373D01*
X178057988Y-114235241D01*
X177261194Y-115032035D01*
X177199871Y-115065520D01*
X177130179Y-115060536D01*
X177074246Y-115018664D01*
X177066126Y-115006355D01*
X177053029Y-114983671D01*
X177040509Y-114961985D01*
X176938015Y-114859491D01*
X176938013Y-114859490D01*
X176938011Y-114859488D01*
X176812488Y-114787017D01*
X176812489Y-114787017D01*
X176801006Y-114783940D01*
X176672475Y-114749500D01*
X176527525Y-114749500D01*
X176398993Y-114783940D01*
X176387511Y-114787017D01*
X176301200Y-114836849D01*
X176233299Y-114853322D01*
X176167273Y-114830469D01*
X176124082Y-114775548D01*
X176119427Y-114761563D01*
X176112984Y-114737515D01*
X176108321Y-114729439D01*
X176040511Y-114611988D01*
X176040506Y-114611982D01*
X175938017Y-114509493D01*
X175938011Y-114509488D01*
X175812488Y-114437017D01*
X175812489Y-114437017D01*
X175801006Y-114433940D01*
X175672475Y-114399500D01*
X175527525Y-114399500D01*
X175398993Y-114433940D01*
X175387511Y-114437017D01*
X175261988Y-114509488D01*
X175261982Y-114509493D01*
X175159493Y-114611982D01*
X175159488Y-114611988D01*
X175087017Y-114737511D01*
X175087016Y-114737515D01*
X175049500Y-114877525D01*
X175049500Y-114877527D01*
X175049500Y-114883746D01*
X175029815Y-114950785D01*
X174977011Y-114996540D01*
X174907853Y-115006484D01*
X174844297Y-114977459D01*
X174837819Y-114971427D01*
X173936819Y-114070426D01*
X173903334Y-114009103D01*
X173900500Y-113982745D01*
X173900500Y-113029386D01*
X173920185Y-112962347D01*
X173936819Y-112941705D01*
X173940509Y-112938015D01*
X174012984Y-112812485D01*
X174050500Y-112672475D01*
X174050500Y-112527525D01*
X174012984Y-112387515D01*
X173990736Y-112348981D01*
X173940511Y-112261988D01*
X173940506Y-112261982D01*
X173838017Y-112159493D01*
X173838011Y-112159488D01*
X173705447Y-112082952D01*
X173707095Y-112080097D01*
X173664650Y-112045841D01*
X173642634Y-111979531D01*
X173659963Y-111911844D01*
X173678873Y-111887519D01*
X174787517Y-110778875D01*
X174848838Y-110745392D01*
X174918530Y-110750376D01*
X174974463Y-110792248D01*
X174982224Y-110805866D01*
X174982952Y-110805447D01*
X175059488Y-110938011D01*
X175059490Y-110938013D01*
X175059491Y-110938015D01*
X175161985Y-111040509D01*
X175161986Y-111040510D01*
X175161988Y-111040511D01*
X175287511Y-111112982D01*
X175287512Y-111112982D01*
X175287515Y-111112984D01*
X175427525Y-111150500D01*
X175427528Y-111150500D01*
X175572472Y-111150500D01*
X175572475Y-111150500D01*
X175712485Y-111112984D01*
X175838015Y-111040509D01*
X175940509Y-110938015D01*
X175976746Y-110875250D01*
X176012982Y-110812489D01*
X176012982Y-110812487D01*
X176012984Y-110812485D01*
X176022486Y-110777023D01*
X176058851Y-110717365D01*
X176121698Y-110686837D01*
X176142260Y-110685120D01*
X178099125Y-110685120D01*
X178166164Y-110704805D01*
G37*
%TD.AperFunction*%
%TA.AperFunction,Conductor*%
G36*
X180420747Y-112704805D02*
G01*
X180466502Y-112757609D01*
X180476446Y-112826767D01*
X180473485Y-112841202D01*
X180450668Y-112926357D01*
X180450668Y-113071307D01*
X180476583Y-113168022D01*
X180488185Y-113211320D01*
X180560656Y-113336843D01*
X180560658Y-113336845D01*
X180560659Y-113336847D01*
X180663153Y-113439341D01*
X180663154Y-113439342D01*
X180663156Y-113439343D01*
X180788679Y-113511814D01*
X180788680Y-113511814D01*
X180788683Y-113511816D01*
X180928693Y-113549332D01*
X180933913Y-113549332D01*
X180963353Y-113557976D01*
X180993340Y-113564500D01*
X180998355Y-113568254D01*
X181000952Y-113569017D01*
X181021594Y-113585651D01*
X181065511Y-113629568D01*
X181098996Y-113690891D01*
X181094012Y-113760583D01*
X181052140Y-113816516D01*
X180986676Y-113840933D01*
X180945738Y-113837024D01*
X180922476Y-113830791D01*
X180922475Y-113830791D01*
X180777525Y-113830791D01*
X180637515Y-113868307D01*
X180637514Y-113868307D01*
X180637512Y-113868308D01*
X180625046Y-113875506D01*
X180563044Y-113892120D01*
X179594986Y-113892120D01*
X179527947Y-113872435D01*
X179482192Y-113819631D01*
X179472248Y-113750473D01*
X179475207Y-113736042D01*
X179500477Y-113641737D01*
X179500477Y-113496787D01*
X179492851Y-113468326D01*
X179494512Y-113398480D01*
X179524942Y-113348555D01*
X180152059Y-112721439D01*
X180178986Y-112706735D01*
X180204805Y-112690143D01*
X180211005Y-112689251D01*
X180213382Y-112687954D01*
X180239740Y-112685120D01*
X180353708Y-112685120D01*
X180420747Y-112704805D01*
G37*
%TD.AperFunction*%
%TA.AperFunction,Conductor*%
G36*
X161455703Y-108344671D02*
G01*
X161462181Y-108350703D01*
X161511985Y-108400507D01*
X161511986Y-108400508D01*
X161511988Y-108400509D01*
X161637511Y-108472980D01*
X161637512Y-108472980D01*
X161637515Y-108472982D01*
X161777525Y-108510498D01*
X161922475Y-108510498D01*
X163175500Y-108510498D01*
X163242539Y-108530183D01*
X163288294Y-108582987D01*
X163299500Y-108634498D01*
X163299500Y-110827213D01*
X163279815Y-110894252D01*
X163227011Y-110940007D01*
X163157853Y-110949951D01*
X163102616Y-110927532D01*
X163076791Y-110908769D01*
X162922447Y-110830128D01*
X162922446Y-110830127D01*
X162922445Y-110830127D01*
X162757701Y-110776598D01*
X162757699Y-110776597D01*
X162757698Y-110776597D01*
X162626271Y-110755781D01*
X162586611Y-110749500D01*
X162413389Y-110749500D01*
X162373728Y-110755781D01*
X162242302Y-110776597D01*
X162077552Y-110830128D01*
X161923211Y-110908768D01*
X161844581Y-110965897D01*
X161783072Y-111010586D01*
X161783070Y-111010588D01*
X161783069Y-111010588D01*
X161660588Y-111133069D01*
X161660588Y-111133070D01*
X161660586Y-111133072D01*
X161657721Y-111137016D01*
X161558768Y-111273211D01*
X161484985Y-111418020D01*
X161437011Y-111468816D01*
X161369190Y-111485611D01*
X161303055Y-111463074D01*
X161259603Y-111408359D01*
X161250500Y-111361725D01*
X161250500Y-108438384D01*
X161270185Y-108371345D01*
X161322989Y-108325590D01*
X161392147Y-108315646D01*
X161455703Y-108344671D01*
G37*
%TD.AperFunction*%
%TD*%
M02*
